<svg xmlns="http://www.w3.org/2000/svg" width="1400" height="380"><line x1="60" y1="20" x2="60" y2="325" stroke="#e5e7eb" stroke-width="1" /><line x1="172" y1="20" x2="172" y2="325" stroke="#e5e7eb" stroke-width="1" /><line x1="273" y1="20" x2="273" y2="325" stroke="#e5e7eb" stroke-width="1" /><line x1="385" y1="20" x2="385" y2="325" stroke="#e5e7eb" stroke-width="1" /><line x1="493" y1="20" x2="493" y2="325" stroke="#e5e7eb" stroke-width="1" /><line x1="606" y1="20" x2="606" y2="325" stroke="#e5e7eb" stroke-width="1" /><line x1="714" y1="20" x2="714" y2="325" stroke="#e5e7eb" stroke-width="1" /><line x1="826" y1="20" x2="826" y2="325" stroke="#e5e7eb" stroke-width="1" /><line x1="938" y1="20" x2="938" y2="325" stroke="#e5e7eb" stroke-width="1" /><line x1="1047" y1="20" x2="1047" y2="325" stroke="#e5e7eb" stroke-width="1" /><line x1="1159" y1="20" x2="1159" y2="325" stroke="#e5e7eb" stroke-width="1" /><line x1="1267" y1="20" x2="1267" y2="325" stroke="#e5e7eb" stroke-width="1" /><line x1="60" y1="224" x2="1380" y2="224" stroke="#e5e7eb" stroke-width="1" /><line x1="60" y1="20" x2="1380" y2="20" stroke="#e5e7eb" stroke-width="1" /><line x1="60" y1="325" x2="1380" y2="325" stroke="black" stroke-width="1"/><line x1="60" y1="20" x2="60" y2="325" stroke="black" stroke-width="1"/><text x="720.0" y="362" font-size="12" text-anchor="middle">Time (UTC, 2010)</text><text x="18" y="172.5" font-size="12" transform="rotate(-90, 18, 172.5)" text-anchor="middle">Gap duration (minutes)</text><line x1="60" y1="325" x2="60" y2="330" stroke="black" stroke-width="1"/><text x="60" y="343" font-size="10" text-anchor="middle">Jan</text><line x1="172" y1="325" x2="172" y2="330" stroke="black" stroke-width="1"/><text x="172" y="343" font-size="10" text-anchor="middle">Feb</text><line x1="273" y1="325" x2="273" y2="330" stroke="black" stroke-width="1"/><text x="273" y="343" font-size="10" text-anchor="middle">Mar</text><line x1="385" y1="325" x2="385" y2="330" stroke="black" stroke-width="1"/><text x="385" y="343" font-size="10" text-anchor="middle">Apr</text><line x1="493" y1="325" x2="493" y2="330" stroke="black" stroke-width="1"/><text x="493" y="343" font-size="10" text-anchor="middle">May</text><line x1="606" y1="325" x2="606" y2="330" stroke="black" stroke-width="1"/><text x="606" y="343" font-size="10" text-anchor="middle">Jun</text><line x1="714" y1="325" x2="714" y2="330" stroke="black" stroke-width="1"/><text x="714" y="343" font-size="10" text-anchor="middle">Jul</text><line x1="826" y1="325" x2="826" y2="330" stroke="black" stroke-width="1"/><text x="826" y="343" font-size="10" text-anchor="middle">Aug</text><line x1="938" y1="325" x2="938" y2="330" stroke="black" stroke-width="1"/><text x="938" y="343" font-size="10" text-anchor="middle">Sep</text><line x1="1047" y1="325" x2="1047" y2="330" stroke="black" stroke-width="1"/><text x="1047" y="343" font-size="10" text-anchor="middle">Oct</text><line x1="1159" y1="325" x2="1159" y2="330" stroke="black" stroke-width="1"/><text x="1159" y="343" font-size="10" text-anchor="middle">Nov</text><line x1="1267" y1="325" x2="1267" y2="330" stroke="black" stroke-width="1"/><text x="1267" y="343" font-size="10" text-anchor="middle">Dec</text><line x1="55" y1="224" x2="60" y2="224" stroke="black" stroke-width="1"/><text x="52" y="227" font-size="10" text-anchor="end">10</text><line x1="55" y1="20" x2="60" y2="20" stroke="black" stroke-width="1"/><text x="52" y="23" font-size="10" text-anchor="end">30</text><circle cx="85" cy="224" r="2.5" fill="red" /><circle cx="86" cy="224" r="2.5" fill="red" /><circle cx="110" cy="224" r="2.5" fill="red" /><circle cx="124" cy="224" r="2.5" fill="red" /><circle cx="124" cy="224" r="2.5" fill="red" /><circle cx="146" cy="224" r="2.5" fill="red" /><circle cx="150" cy="224" r="2.5" fill="red" /><circle cx="182" cy="224" r="2.5" fill="red" /><circle cx="208" cy="224" r="2.5" fill="red" /><circle cx="223" cy="224" r="2.5" fill="red" /><circle cx="225" cy="224" r="2.5" fill="red" /><circle cx="288" cy="224" r="2.5" fill="red" /><circle cx="323" cy="224" r="2.5" fill="red" /><circle cx="327" cy="224" r="2.5" fill="red" /><circle cx="328" cy="224" r="2.5" fill="red" /><circle cx="331" cy="173" r="2.5" fill="red" /><circle cx="349" cy="224" r="2.5" fill="red" /><circle cx="349" cy="224" r="2.5" fill="red" /><circle cx="356" cy="224" r="2.5" fill="red" /><circle cx="364" cy="224" r="2.5" fill="red" /><circle cx="381" cy="224" r="2.5" fill="red" /><circle cx="399" cy="224" r="2.5" fill="red" /><circle cx="400" cy="224" r="2.5" fill="red" /><circle cx="401" cy="224" r="2.5" fill="red" /><circle cx="403" cy="224" r="2.5" fill="red" /><circle cx="407" cy="224" r="2.5" fill="red" /><circle cx="414" cy="224" r="2.5" fill="red" /><circle cx="414" cy="224" r="2.5" fill="red" /><circle cx="428" cy="224" r="2.5" fill="red" /><circle cx="435" cy="224" r="2.5" fill="red" /><circle cx="476" cy="224" r="2.5" fill="red" /><circle cx="476" cy="224" r="2.5" fill="red" /><circle cx="605" cy="224" r="2.5" fill="red" /><circle cx="605" cy="224" r="2.5" fill="red" /><circle cx="605" cy="224" r="2.5" fill="red" /><circle cx="631" cy="224" r="2.5" fill="red" /><circle cx="634" cy="224" r="2.5" fill="red" /><circle cx="656" cy="224" r="2.5" fill="red" /><circle cx="685" cy="224" r="2.5" fill="red" /><circle cx="703" cy="224" r="2.5" fill="red" /><circle cx="710" cy="224" r="2.5" fill="red" /><circle cx="729" cy="224" r="2.5" fill="red" /><circle cx="731" cy="224" r="2.5" fill="red" /><circle cx="731" cy="224" r="2.5" fill="red" /><circle cx="732" cy="224" r="2.5" fill="red" /><circle cx="732" cy="224" r="2.5" fill="red" /><circle cx="732" cy="224" r="2.5" fill="red" /><circle cx="732" cy="224" r="2.5" fill="red" /><circle cx="743" cy="224" r="2.5" fill="red" /><circle cx="765" cy="224" r="2.5" fill="red" /><circle cx="790" cy="224" r="2.5" fill="red" /><circle cx="793" cy="224" r="2.5" fill="red" /><circle cx="815" cy="224" r="2.5" fill="red" /><circle cx="830" cy="224" r="2.5" fill="red" /><circle cx="830" cy="224" r="2.5" fill="red" /><circle cx="830" cy="224" r="2.5" fill="red" /><circle cx="830" cy="224" r="2.5" fill="red" /><circle cx="837" cy="173" r="2.5" fill="red" /><circle cx="837" cy="173" r="2.5" fill="red" /><circle cx="837" cy="224" r="2.5" fill="red" /><circle cx="844" cy="224" r="2.5" fill="red" /><circle cx="855" cy="224" r="2.5" fill="red" /><circle cx="856" cy="224" r="2.5" fill="red" /><circle cx="856" cy="224" r="2.5" fill="red" /><circle cx="859" cy="224" r="2.5" fill="red" /><circle cx="859" cy="224" r="2.5" fill="red" /><circle cx="859" cy="224" r="2.5" fill="red" /><circle cx="887" cy="224" r="2.5" fill="red" /><circle cx="887" cy="224" r="2.5" fill="red" /><circle cx="891" cy="173" r="2.5" fill="red" /><circle cx="896" cy="224" r="2.5" fill="red" /><circle cx="931" cy="224" r="2.5" fill="red" /><circle cx="931" cy="224" r="2.5" fill="red" /><circle cx="938" cy="224" r="2.5" fill="red" /><circle cx="943" cy="224" r="2.5" fill="red" /><circle cx="945" cy="224" r="2.5" fill="red" /><circle cx="959" cy="224" r="2.5" fill="red" /><circle cx="959" cy="173" r="2.5" fill="red" /><circle cx="960" cy="224" r="2.5" fill="red" /><circle cx="960" cy="224" r="2.5" fill="red" /><circle cx="960" cy="224" r="2.5" fill="red" /><circle cx="985" cy="224" r="2.5" fill="red" /><circle cx="985" cy="224" r="2.5" fill="red" /><circle cx="989" cy="224" r="2.5" fill="red" /><circle cx="992" cy="224" r="2.5" fill="red" /><circle cx="1010" cy="224" r="2.5" fill="red" /><circle cx="1011" cy="224" r="2.5" fill="red" /><circle cx="1011" cy="224" r="2.5" fill="red" /><circle cx="1021" cy="224" r="2.5" fill="red" /><circle cx="1032" cy="224" r="2.5" fill="red" /><circle cx="1032" cy="224" r="2.5" fill="red" /><circle cx="1032" cy="224" r="2.5" fill="red" /><circle cx="1043" cy="173" r="2.5" fill="red" /><circle cx="1058" cy="224" r="2.5" fill="red" /><circle cx="1061" cy="224" r="2.5" fill="red" /><circle cx="1065" cy="224" r="2.5" fill="red" /><circle cx="1065" cy="224" r="2.5" fill="red" /><circle cx="1086" cy="224" r="2.5" fill="red" /><circle cx="1094" cy="173" r="2.5" fill="red" /><circle cx="1097" cy="224" r="2.5" fill="red" /><circle cx="1122" cy="224" r="2.5" fill="red" /><circle cx="1123" cy="224" r="2.5" fill="red" /><circle cx="1173" cy="173" r="2.5" fill="red" /><circle cx="1209" cy="224" r="2.5" fill="red" /><circle cx="1245" cy="224" r="2.5" fill="red" /><circle cx="1248" cy="224" r="2.5" fill="red" /><circle cx="1249" cy="224" r="2.5" fill="red" /><circle cx="1252" cy="224" r="2.5" fill="red" /><circle cx="1301" cy="224" r="2.5" fill="red" /><circle cx="1351" cy="224" r="2.5" fill="red" /><circle cx="1353" cy="173" r="2.5" fill="red" /><circle cx="1353" cy="224" r="2.5" fill="red" /><circle cx="1353" cy="224" r="2.5" fill="red" /><circle cx="1353" cy="224" r="2.5" fill="red" /><circle cx="1354" cy="224" r="2.5" fill="red" /><circle cx="1376" cy="224" r="2.5" fill="red" /></svg>