<svg xmlns="http://www.w3.org/2000/svg" width="1400" height="380"><line x1="60" y1="20" x2="60" y2="325" stroke="#e5e7eb" stroke-width="1" /><line x1="172" y1="20" x2="172" y2="325" stroke="#e5e7eb" stroke-width="1" /><line x1="273" y1="20" x2="273" y2="325" stroke="#e5e7eb" stroke-width="1" /><line x1="385" y1="20" x2="385" y2="325" stroke="#e5e7eb" stroke-width="1" /><line x1="493" y1="20" x2="493" y2="325" stroke="#e5e7eb" stroke-width="1" /><line x1="606" y1="20" x2="606" y2="325" stroke="#e5e7eb" stroke-width="1" /><line x1="714" y1="20" x2="714" y2="325" stroke="#e5e7eb" stroke-width="1" /><line x1="826" y1="20" x2="826" y2="325" stroke="#e5e7eb" stroke-width="1" /><line x1="938" y1="20" x2="938" y2="325" stroke="#e5e7eb" stroke-width="1" /><line x1="1047" y1="20" x2="1047" y2="325" stroke="#e5e7eb" stroke-width="1" /><line x1="1159" y1="20" x2="1159" y2="325" stroke="#e5e7eb" stroke-width="1" /><line x1="1267" y1="20" x2="1267" y2="325" stroke="#e5e7eb" stroke-width="1" /><line x1="60" y1="321" x2="1380" y2="321" stroke="#e5e7eb" stroke-width="1" /><line x1="60" y1="313" x2="1380" y2="313" stroke="#e5e7eb" stroke-width="1" /><line x1="60" y1="300" x2="1380" y2="300" stroke="#e5e7eb" stroke-width="1" /><line x1="60" y1="275" x2="1380" y2="275" stroke="#e5e7eb" stroke-width="1" /><line x1="60" y1="249" x2="1380" y2="249" stroke="#e5e7eb" stroke-width="1" /><line x1="60" y1="173" x2="1380" y2="173" stroke="#e5e7eb" stroke-width="1" /><line x1="60" y1="20" x2="1380" y2="20" stroke="#e5e7eb" stroke-width="1" /><line x1="60" y1="325" x2="1380" y2="325" stroke="black" stroke-width="1"/><line x1="60" y1="20" x2="60" y2="325" stroke="black" stroke-width="1"/><text x="720.0" y="362" font-size="12" text-anchor="middle">Time (UTC, 2005)</text><text x="18" y="172.5" font-size="12" transform="rotate(-90, 18, 172.5)" text-anchor="middle">Gap duration (minutes)</text><line x1="60" y1="325" x2="60" y2="330" stroke="black" stroke-width="1"/><text x="60" y="343" font-size="10" text-anchor="middle">Jan</text><line x1="172" y1="325" x2="172" y2="330" stroke="black" stroke-width="1"/><text x="172" y="343" font-size="10" text-anchor="middle">Feb</text><line x1="273" y1="325" x2="273" y2="330" stroke="black" stroke-width="1"/><text x="273" y="343" font-size="10" text-anchor="middle">Mar</text><line x1="385" y1="325" x2="385" y2="330" stroke="black" stroke-width="1"/><text x="385" y="343" font-size="10" text-anchor="middle">Apr</text><line x1="493" y1="325" x2="493" y2="330" stroke="black" stroke-width="1"/><text x="493" y="343" font-size="10" text-anchor="middle">May</text><line x1="606" y1="325" x2="606" y2="330" stroke="black" stroke-width="1"/><text x="606" y="343" font-size="10" text-anchor="middle">Jun</text><line x1="714" y1="325" x2="714" y2="330" stroke="black" stroke-width="1"/><text x="714" y="343" font-size="10" text-anchor="middle">Jul</text><line x1="826" y1="325" x2="826" y2="330" stroke="black" stroke-width="1"/><text x="826" y="343" font-size="10" text-anchor="middle">Aug</text><line x1="938" y1="325" x2="938" y2="330" stroke="black" stroke-width="1"/><text x="938" y="343" font-size="10" text-anchor="middle">Sep</text><line x1="1047" y1="325" x2="1047" y2="330" stroke="black" stroke-width="1"/><text x="1047" y="343" font-size="10" text-anchor="middle">Oct</text><line x1="1159" y1="325" x2="1159" y2="330" stroke="black" stroke-width="1"/><text x="1159" y="343" font-size="10" text-anchor="middle">Nov</text><line x1="1267" y1="325" x2="1267" y2="330" stroke="black" stroke-width="1"/><text x="1267" y="343" font-size="10" text-anchor="middle">Dec</text><line x1="55" y1="321" x2="60" y2="321" stroke="black" stroke-width="1"/><text x="52" y="324" font-size="10" text-anchor="end">10</text><line x1="55" y1="313" x2="60" y2="313" stroke="black" stroke-width="1"/><text x="52" y="316" font-size="10" text-anchor="end">30</text><line x1="55" y1="300" x2="60" y2="300" stroke="black" stroke-width="1"/><text x="52" y="303" font-size="10" text-anchor="end">60</text><line x1="55" y1="275" x2="60" y2="275" stroke="black" stroke-width="1"/><text x="52" y="278" font-size="10" text-anchor="end">120</text><line x1="55" y1="249" x2="60" y2="249" stroke="black" stroke-width="1"/><text x="52" y="252" font-size="10" text-anchor="end">180</text><line x1="55" y1="173" x2="60" y2="173" stroke="black" stroke-width="1"/><text x="52" y="176" font-size="10" text-anchor="end">360</text><line x1="55" y1="20" x2="60" y2="20" stroke="black" stroke-width="1"/><text x="52" y="23" font-size="10" text-anchor="end">720</text><circle cx="92" cy="321" r="2.5" fill="red" /><circle cx="92" cy="321" r="2.5" fill="red" /><circle cx="100" cy="321" r="2.5" fill="red" /><circle cx="100" cy="321" r="2.5" fill="red" /><circle cx="106" cy="321" r="2.5" fill="red" /><circle cx="107" cy="306" r="2.5" fill="red" /><circle cx="110" cy="321" r="2.5" fill="red" /><circle cx="117" cy="321" r="2.5" fill="red" /><circle cx="118" cy="321" r="2.5" fill="red" /><circle cx="118" cy="321" r="2.5" fill="red" /><circle cx="118" cy="321" r="2.5" fill="red" /><circle cx="120" cy="321" r="2.5" fill="red" /><circle cx="121" cy="321" r="2.5" fill="red" /><circle cx="121" cy="321" r="2.5" fill="red" /><circle cx="124" cy="321" r="2.5" fill="red" /><circle cx="125" cy="321" r="2.5" fill="red" /><circle cx="129" cy="321" r="2.5" fill="red" /><circle cx="142" cy="321" r="2.5" fill="red" /><circle cx="143" cy="321" r="2.5" fill="red" /><circle cx="154" cy="321" r="2.5" fill="red" /><circle cx="157" cy="321" r="2.5" fill="red" /><circle cx="172" cy="321" r="2.5" fill="red" /><circle cx="175" cy="321" r="2.5" fill="red" /><circle cx="179" cy="319" r="2.5" fill="red" /><circle cx="179" cy="321" r="2.5" fill="red" /><circle cx="179" cy="321" r="2.5" fill="red" /><circle cx="183" cy="319" r="2.5" fill="red" /><circle cx="183" cy="321" r="2.5" fill="red" /><circle cx="185" cy="321" r="2.5" fill="red" /><circle cx="196" cy="317" r="2.5" fill="red" /><circle cx="197" cy="313" r="2.5" fill="red" /><circle cx="197" cy="311" r="2.5" fill="red" /><circle cx="198" cy="321" r="2.5" fill="red" /><circle cx="201" cy="321" r="2.5" fill="red" /><circle cx="201" cy="317" r="2.5" fill="red" /><circle cx="201" cy="319" r="2.5" fill="red" /><circle cx="201" cy="321" r="2.5" fill="red" /><circle cx="204" cy="319" r="2.5" fill="red" /><circle cx="207" cy="317" r="2.5" fill="red" /><circle cx="208" cy="319" r="2.5" fill="red" /><circle cx="208" cy="321" r="2.5" fill="red" /><circle cx="211" cy="321" r="2.5" fill="red" /><circle cx="230" cy="321" r="2.5" fill="red" /><circle cx="230" cy="321" r="2.5" fill="red" /><circle cx="231" cy="315" r="2.5" fill="red" /><circle cx="233" cy="321" r="2.5" fill="red" /><circle cx="234" cy="321" r="2.5" fill="red" /><circle cx="234" cy="321" r="2.5" fill="red" /><circle cx="234" cy="321" r="2.5" fill="red" /><circle cx="234" cy="319" r="2.5" fill="red" /><circle cx="244" cy="321" r="2.5" fill="red" /><circle cx="245" cy="321" r="2.5" fill="red" /><circle cx="245" cy="321" r="2.5" fill="red" /><circle cx="246" cy="321" r="2.5" fill="red" /><circle cx="246" cy="321" r="2.5" fill="red" /><circle cx="246" cy="321" r="2.5" fill="red" /><circle cx="246" cy="321" r="2.5" fill="red" /><circle cx="247" cy="321" r="2.5" fill="red" /><circle cx="247" cy="321" r="2.5" fill="red" /><circle cx="247" cy="321" r="2.5" fill="red" /><circle cx="247" cy="321" r="2.5" fill="red" /><circle cx="247" cy="321" r="2.5" fill="red" /><circle cx="247" cy="321" r="2.5" fill="red" /><circle cx="252" cy="321" r="2.5" fill="red" /><circle cx="255" cy="321" r="2.5" fill="red" /><circle cx="259" cy="321" r="2.5" fill="red" /><circle cx="259" cy="321" r="2.5" fill="red" /><circle cx="270" cy="321" r="2.5" fill="red" /><circle cx="274" cy="321" r="2.5" fill="red" /><circle cx="277" cy="321" r="2.5" fill="red" /><circle cx="283" cy="321" r="2.5" fill="red" /><circle cx="283" cy="313" r="2.5" fill="red" /><circle cx="284" cy="321" r="2.5" fill="red" /><circle cx="284" cy="321" r="2.5" fill="red" /><circle cx="284" cy="321" r="2.5" fill="red" /><circle cx="294" cy="321" r="2.5" fill="red" /><circle cx="295" cy="321" r="2.5" fill="red" /><circle cx="298" cy="317" r="2.5" fill="red" /><circle cx="299" cy="321" r="2.5" fill="red" /><circle cx="299" cy="321" r="2.5" fill="red" /><circle cx="299" cy="319" r="2.5" fill="red" /><circle cx="301" cy="317" r="2.5" fill="red" /><circle cx="302" cy="321" r="2.5" fill="red" /><circle cx="303" cy="321" r="2.5" fill="red" /><circle cx="305" cy="315" r="2.5" fill="red" /><circle cx="309" cy="313" r="2.5" fill="red" /><circle cx="309" cy="321" r="2.5" fill="red" /><circle cx="310" cy="321" r="2.5" fill="red" /><circle cx="323" cy="315" r="2.5" fill="red" /><circle cx="327" cy="315" r="2.5" fill="red" /><circle cx="330" cy="315" r="2.5" fill="red" /><circle cx="334" cy="317" r="2.5" fill="red" /><circle cx="334" cy="321" r="2.5" fill="red" /><circle cx="337" cy="321" r="2.5" fill="red" /><circle cx="337" cy="321" r="2.5" fill="red" /><circle cx="345" cy="319" r="2.5" fill="red" /><circle cx="345" cy="321" r="2.5" fill="red" /><circle cx="346" cy="321" r="2.5" fill="red" /><circle cx="349" cy="315" r="2.5" fill="red" /><circle cx="352" cy="315" r="2.5" fill="red" /><circle cx="353" cy="321" r="2.5" fill="red" /><circle cx="356" cy="319" r="2.5" fill="red" /><circle cx="359" cy="315" r="2.5" fill="red" /><circle cx="359" cy="321" r="2.5" fill="red" /><circle cx="371" cy="321" r="2.5" fill="red" /><circle cx="372" cy="321" r="2.5" fill="red" /><circle cx="372" cy="321" r="2.5" fill="red" /><circle cx="372" cy="321" r="2.5" fill="red" /><circle cx="374" cy="317" r="2.5" fill="red" /><circle cx="377" cy="317" r="2.5" fill="red" /><circle cx="381" cy="317" r="2.5" fill="red" /><circle cx="385" cy="317" r="2.5" fill="red" /><circle cx="385" cy="319" r="2.5" fill="red" /><circle cx="386" cy="321" r="2.5" fill="red" /><circle cx="386" cy="321" r="2.5" fill="red" /><circle cx="396" cy="321" r="2.5" fill="red" /><circle cx="399" cy="317" r="2.5" fill="red" /><circle cx="401" cy="321" r="2.5" fill="red" /><circle cx="402" cy="321" r="2.5" fill="red" /><circle cx="403" cy="315" r="2.5" fill="red" /><circle cx="403" cy="321" r="2.5" fill="red" /><circle cx="406" cy="317" r="2.5" fill="red" /><circle cx="410" cy="321" r="2.5" fill="red" /><circle cx="410" cy="317" r="2.5" fill="red" /><circle cx="411" cy="321" r="2.5" fill="red" /><circle cx="421" cy="321" r="2.5" fill="red" /><circle cx="421" cy="317" r="2.5" fill="red" /><circle cx="421" cy="321" r="2.5" fill="red" /><circle cx="424" cy="317" r="2.5" fill="red" /><circle cx="425" cy="321" r="2.5" fill="red" /><circle cx="425" cy="319" r="2.5" fill="red" /><circle cx="425" cy="321" r="2.5" fill="red" /><circle cx="426" cy="321" r="2.5" fill="red" /><circle cx="426" cy="321" r="2.5" fill="red" /><circle cx="426" cy="321" r="2.5" fill="red" /><circle cx="426" cy="321" r="2.5" fill="red" /><circle cx="428" cy="317" r="2.5" fill="red" /><circle cx="432" cy="317" r="2.5" fill="red" /><circle cx="435" cy="313" r="2.5" fill="red" /><circle cx="446" cy="321" r="2.5" fill="red" /><circle cx="446" cy="317" r="2.5" fill="red" /><circle cx="450" cy="317" r="2.5" fill="red" /><circle cx="453" cy="317" r="2.5" fill="red" /><circle cx="454" cy="321" r="2.5" fill="red" /><circle cx="454" cy="321" r="2.5" fill="red" /><circle cx="454" cy="321" r="2.5" fill="red" /><circle cx="457" cy="317" r="2.5" fill="red" /><circle cx="458" cy="321" r="2.5" fill="red" /><circle cx="458" cy="321" r="2.5" fill="red" /><circle cx="458" cy="321" r="2.5" fill="red" /><circle cx="461" cy="315" r="2.5" fill="red" /><circle cx="461" cy="321" r="2.5" fill="red" /><circle cx="475" cy="317" r="2.5" fill="red" /><circle cx="475" cy="321" r="2.5" fill="red" /><circle cx="475" cy="321" r="2.5" fill="red" /><circle cx="476" cy="319" r="2.5" fill="red" /><circle cx="476" cy="321" r="2.5" fill="red" /><circle cx="479" cy="317" r="2.5" fill="red" /><circle cx="479" cy="321" r="2.5" fill="red" /><circle cx="482" cy="315" r="2.5" fill="red" /><circle cx="486" cy="317" r="2.5" fill="red" /><circle cx="486" cy="321" r="2.5" fill="red" /><circle cx="497" cy="321" r="2.5" fill="red" /><circle cx="499" cy="319" r="2.5" fill="red" /><circle cx="499" cy="321" r="2.5" fill="red" /><circle cx="499" cy="321" r="2.5" fill="red" /><circle cx="500" cy="317" r="2.5" fill="red" /><circle cx="501" cy="321" r="2.5" fill="red" /><circle cx="501" cy="321" r="2.5" fill="red" /><circle cx="501" cy="319" r="2.5" fill="red" /><circle cx="501" cy="321" r="2.5" fill="red" /><circle cx="504" cy="317" r="2.5" fill="red" /><circle cx="504" cy="321" r="2.5" fill="red" /><circle cx="505" cy="321" r="2.5" fill="red" /><circle cx="507" cy="321" r="2.5" fill="red" /><circle cx="508" cy="315" r="2.5" fill="red" /><circle cx="508" cy="321" r="2.5" fill="red" /><circle cx="508" cy="321" r="2.5" fill="red" /><circle cx="508" cy="321" r="2.5" fill="red" /><circle cx="509" cy="319" r="2.5" fill="red" /><circle cx="509" cy="321" r="2.5" fill="red" /><circle cx="509" cy="321" r="2.5" fill="red" /><circle cx="509" cy="319" r="2.5" fill="red" /><circle cx="509" cy="321" r="2.5" fill="red" /><circle cx="509" cy="321" r="2.5" fill="red" /><circle cx="509" cy="321" r="2.5" fill="red" /><circle cx="511" cy="321" r="2.5" fill="red" /><circle cx="511" cy="313" r="2.5" fill="red" /><circle cx="511" cy="321" r="2.5" fill="red" /><circle cx="511" cy="321" r="2.5" fill="red" /><circle cx="511" cy="321" r="2.5" fill="red" /><circle cx="512" cy="321" r="2.5" fill="red" /><circle cx="512" cy="321" r="2.5" fill="red" /><circle cx="512" cy="321" r="2.5" fill="red" /><circle cx="512" cy="321" r="2.5" fill="red" /><circle cx="512" cy="321" r="2.5" fill="red" /><circle cx="515" cy="321" r="2.5" fill="red" /><circle cx="522" cy="321" r="2.5" fill="red" /><circle cx="522" cy="321" r="2.5" fill="red" /><circle cx="522" cy="321" r="2.5" fill="red" /><circle cx="523" cy="321" r="2.5" fill="red" /><circle cx="523" cy="321" r="2.5" fill="red" /><circle cx="526" cy="317" r="2.5" fill="red" /><circle cx="527" cy="319" r="2.5" fill="red" /><circle cx="529" cy="315" r="2.5" fill="red" /><circle cx="530" cy="321" r="2.5" fill="red" /><circle cx="530" cy="321" r="2.5" fill="red" /><circle cx="533" cy="317" r="2.5" fill="red" /><circle cx="534" cy="321" r="2.5" fill="red" /><circle cx="534" cy="321" r="2.5" fill="red" /><circle cx="536" cy="321" r="2.5" fill="red" /><circle cx="537" cy="313" r="2.5" fill="red" /><circle cx="537" cy="319" r="2.5" fill="red" /><circle cx="537" cy="321" r="2.5" fill="red" /><circle cx="548" cy="321" r="2.5" fill="red" /><circle cx="551" cy="319" r="2.5" fill="red" /><circle cx="551" cy="321" r="2.5" fill="red" /><circle cx="551" cy="321" r="2.5" fill="red" /><circle cx="555" cy="317" r="2.5" fill="red" /><circle cx="555" cy="321" r="2.5" fill="red" /><circle cx="556" cy="321" r="2.5" fill="red" /><circle cx="558" cy="317" r="2.5" fill="red" /><circle cx="559" cy="321" r="2.5" fill="red" /><circle cx="559" cy="321" r="2.5" fill="red" /><circle cx="562" cy="317" r="2.5" fill="red" /><circle cx="563" cy="321" r="2.5" fill="red" /><circle cx="563" cy="321" r="2.5" fill="red" /><circle cx="563" cy="321" r="2.5" fill="red" /><circle cx="563" cy="321" r="2.5" fill="red" /><circle cx="565" cy="321" r="2.5" fill="red" /><circle cx="573" cy="321" r="2.5" fill="red" /><circle cx="574" cy="321" r="2.5" fill="red" /><circle cx="574" cy="321" r="2.5" fill="red" /><circle cx="574" cy="321" r="2.5" fill="red" /><circle cx="574" cy="321" r="2.5" fill="red" /><circle cx="576" cy="319" r="2.5" fill="red" /><circle cx="576" cy="321" r="2.5" fill="red" /><circle cx="577" cy="321" r="2.5" fill="red" /><circle cx="577" cy="321" r="2.5" fill="red" /><circle cx="577" cy="321" r="2.5" fill="red" /><circle cx="577" cy="321" r="2.5" fill="red" /><circle cx="577" cy="321" r="2.5" fill="red" /><circle cx="577" cy="321" r="2.5" fill="red" /><circle cx="578" cy="321" r="2.5" fill="red" /><circle cx="580" cy="317" r="2.5" fill="red" /><circle cx="581" cy="321" r="2.5" fill="red" /><circle cx="584" cy="315" r="2.5" fill="red" /><circle cx="584" cy="321" r="2.5" fill="red" /><circle cx="585" cy="321" r="2.5" fill="red" /><circle cx="587" cy="311" r="2.5" fill="red" /><circle cx="587" cy="321" r="2.5" fill="red" /><circle cx="601" cy="122" r="2.5" fill="red" /><circle cx="605" cy="315" r="2.5" fill="red" /><circle cx="605" cy="321" r="2.5" fill="red" /><circle cx="609" cy="317" r="2.5" fill="red" /><circle cx="613" cy="319" r="2.5" fill="red" /><circle cx="613" cy="321" r="2.5" fill="red" /><circle cx="616" cy="321" r="2.5" fill="red" /><circle cx="623" cy="321" r="2.5" fill="red" /><circle cx="624" cy="321" r="2.5" fill="red" /><circle cx="627" cy="321" r="2.5" fill="red" /><circle cx="627" cy="321" r="2.5" fill="red" /><circle cx="627" cy="319" r="2.5" fill="red" /><circle cx="628" cy="321" r="2.5" fill="red" /><circle cx="631" cy="319" r="2.5" fill="red" /><circle cx="631" cy="321" r="2.5" fill="red" /><circle cx="634" cy="317" r="2.5" fill="red" /><circle cx="635" cy="321" r="2.5" fill="red" /><circle cx="638" cy="317" r="2.5" fill="red" /><circle cx="650" cy="321" r="2.5" fill="red" /><circle cx="652" cy="315" r="2.5" fill="red" /><circle cx="656" cy="313" r="2.5" fill="red" /><circle cx="656" cy="321" r="2.5" fill="red" /><circle cx="657" cy="321" r="2.5" fill="red" /><circle cx="658" cy="321" r="2.5" fill="red" /><circle cx="659" cy="321" r="2.5" fill="red" /><circle cx="660" cy="317" r="2.5" fill="red" /><circle cx="660" cy="321" r="2.5" fill="red" /><circle cx="663" cy="319" r="2.5" fill="red" /><circle cx="664" cy="321" r="2.5" fill="red" /><circle cx="675" cy="321" r="2.5" fill="red" /><circle cx="675" cy="321" r="2.5" fill="red" /><circle cx="678" cy="319" r="2.5" fill="red" /><circle cx="678" cy="321" r="2.5" fill="red" /><circle cx="679" cy="321" r="2.5" fill="red" /><circle cx="681" cy="319" r="2.5" fill="red" /><circle cx="685" cy="319" r="2.5" fill="red" /><circle cx="685" cy="321" r="2.5" fill="red" /><circle cx="686" cy="321" r="2.5" fill="red" /><circle cx="688" cy="317" r="2.5" fill="red" /><circle cx="700" cy="321" r="2.5" fill="red" /><circle cx="700" cy="321" r="2.5" fill="red" /><circle cx="700" cy="319" r="2.5" fill="red" /><circle cx="700" cy="321" r="2.5" fill="red" /><circle cx="700" cy="321" r="2.5" fill="red" /><circle cx="703" cy="315" r="2.5" fill="red" /><circle cx="703" cy="321" r="2.5" fill="red" /><circle cx="707" cy="317" r="2.5" fill="red" /><circle cx="707" cy="321" r="2.5" fill="red" /><circle cx="707" cy="321" r="2.5" fill="red" /><circle cx="708" cy="319" r="2.5" fill="red" /><circle cx="710" cy="315" r="2.5" fill="red" /><circle cx="711" cy="321" r="2.5" fill="red" /><circle cx="727" cy="321" r="2.5" fill="red" /><circle cx="727" cy="124" r="2.5" fill="red" /><circle cx="732" cy="313" r="2.5" fill="red" /><circle cx="733" cy="319" r="2.5" fill="red" /><circle cx="733" cy="321" r="2.5" fill="red" /><circle cx="735" cy="315" r="2.5" fill="red" /><circle cx="739" cy="321" r="2.5" fill="red" /><circle cx="739" cy="315" r="2.5" fill="red" /><circle cx="739" cy="321" r="2.5" fill="red" /><circle cx="750" cy="319" r="2.5" fill="red" /><circle cx="750" cy="321" r="2.5" fill="red" /><circle cx="750" cy="321" r="2.5" fill="red" /><circle cx="754" cy="317" r="2.5" fill="red" /><circle cx="754" cy="321" r="2.5" fill="red" /><circle cx="757" cy="315" r="2.5" fill="red" /><circle cx="758" cy="321" r="2.5" fill="red" /><circle cx="761" cy="317" r="2.5" fill="red" /><circle cx="761" cy="321" r="2.5" fill="red" /><circle cx="764" cy="315" r="2.5" fill="red" /><circle cx="765" cy="321" r="2.5" fill="red" /><circle cx="765" cy="321" r="2.5" fill="red" /><circle cx="765" cy="321" r="2.5" fill="red" /><circle cx="765" cy="319" r="2.5" fill="red" /><circle cx="767" cy="321" r="2.5" fill="red" /><circle cx="768" cy="321" r="2.5" fill="red" /><circle cx="775" cy="321" r="2.5" fill="red" /><circle cx="775" cy="321" r="2.5" fill="red" /><circle cx="776" cy="319" r="2.5" fill="red" /><circle cx="776" cy="321" r="2.5" fill="red" /><circle cx="776" cy="321" r="2.5" fill="red" /><circle cx="779" cy="315" r="2.5" fill="red" /><circle cx="779" cy="321" r="2.5" fill="red" /><circle cx="780" cy="319" r="2.5" fill="red" /><circle cx="782" cy="317" r="2.5" fill="red" /><circle cx="783" cy="321" r="2.5" fill="red" /><circle cx="786" cy="317" r="2.5" fill="red" /><circle cx="790" cy="315" r="2.5" fill="red" /><circle cx="801" cy="319" r="2.5" fill="red" /><circle cx="801" cy="321" r="2.5" fill="red" /><circle cx="804" cy="317" r="2.5" fill="red" /><circle cx="804" cy="321" r="2.5" fill="red" /><circle cx="804" cy="321" r="2.5" fill="red" /><circle cx="805" cy="321" r="2.5" fill="red" /><circle cx="808" cy="309" r="2.5" fill="red" /><circle cx="811" cy="319" r="2.5" fill="red" /><circle cx="812" cy="321" r="2.5" fill="red" /><circle cx="812" cy="309" r="2.5" fill="red" /><circle cx="813" cy="309" r="2.5" fill="red" /><circle cx="815" cy="319" r="2.5" fill="red" /><circle cx="826" cy="321" r="2.5" fill="red" /><circle cx="826" cy="321" r="2.5" fill="red" /><circle cx="827" cy="321" r="2.5" fill="red" /><circle cx="830" cy="317" r="2.5" fill="red" /><circle cx="833" cy="321" r="2.5" fill="red" /><circle cx="833" cy="319" r="2.5" fill="red" /><circle cx="834" cy="321" r="2.5" fill="red" /><circle cx="837" cy="319" r="2.5" fill="red" /><circle cx="840" cy="317" r="2.5" fill="red" /><circle cx="852" cy="321" r="2.5" fill="red" /><circle cx="852" cy="321" r="2.5" fill="red" /><circle cx="855" cy="317" r="2.5" fill="red" /><circle cx="855" cy="321" r="2.5" fill="red" /><circle cx="855" cy="319" r="2.5" fill="red" /><circle cx="858" cy="319" r="2.5" fill="red" /><circle cx="862" cy="315" r="2.5" fill="red" /><circle cx="866" cy="315" r="2.5" fill="red" /><circle cx="877" cy="321" r="2.5" fill="red" /><circle cx="877" cy="321" r="2.5" fill="red" /><circle cx="878" cy="321" r="2.5" fill="red" /><circle cx="878" cy="321" r="2.5" fill="red" /><circle cx="880" cy="321" r="2.5" fill="red" /><circle cx="880" cy="319" r="2.5" fill="red" /><circle cx="880" cy="319" r="2.5" fill="red" /><circle cx="884" cy="317" r="2.5" fill="red" /><circle cx="887" cy="319" r="2.5" fill="red" /><circle cx="888" cy="319" r="2.5" fill="red" /><circle cx="889" cy="321" r="2.5" fill="red" /><circle cx="891" cy="317" r="2.5" fill="red" /><circle cx="891" cy="321" r="2.5" fill="red" /><circle cx="902" cy="319" r="2.5" fill="red" /><circle cx="905" cy="321" r="2.5" fill="red" /><circle cx="905" cy="319" r="2.5" fill="red" /><circle cx="907" cy="321" r="2.5" fill="red" /><circle cx="909" cy="319" r="2.5" fill="red" /><circle cx="913" cy="319" r="2.5" fill="red" /><circle cx="916" cy="319" r="2.5" fill="red" /><circle cx="917" cy="321" r="2.5" fill="red" /><circle cx="931" cy="321" r="2.5" fill="red" /><circle cx="931" cy="321" r="2.5" fill="red" /><circle cx="931" cy="319" r="2.5" fill="red" /><circle cx="934" cy="319" r="2.5" fill="red" /><circle cx="935" cy="321" r="2.5" fill="red" /><circle cx="938" cy="319" r="2.5" fill="red" /><circle cx="939" cy="321" r="2.5" fill="red" /><circle cx="939" cy="321" r="2.5" fill="red" /><circle cx="939" cy="321" r="2.5" fill="red" /><circle cx="939" cy="321" r="2.5" fill="red" /><circle cx="939" cy="321" r="2.5" fill="red" /><circle cx="942" cy="315" r="2.5" fill="red" /><circle cx="942" cy="321" r="2.5" fill="red" /><circle cx="942" cy="321" r="2.5" fill="red" /><circle cx="953" cy="319" r="2.5" fill="red" /><circle cx="955" cy="122" r="2.5" fill="red" /><circle cx="960" cy="319" r="2.5" fill="red" /><circle cx="963" cy="319" r="2.5" fill="red" /><circle cx="967" cy="319" r="2.5" fill="red" /><circle cx="967" cy="321" r="2.5" fill="red" /><circle cx="978" cy="321" r="2.5" fill="red" /><circle cx="979" cy="321" r="2.5" fill="red" /><circle cx="981" cy="317" r="2.5" fill="red" /><circle cx="982" cy="321" r="2.5" fill="red" /><circle cx="985" cy="319" r="2.5" fill="red" /><circle cx="989" cy="319" r="2.5" fill="red" /><circle cx="989" cy="321" r="2.5" fill="red" /><circle cx="992" cy="321" r="2.5" fill="red" /><circle cx="992" cy="315" r="2.5" fill="red" /><circle cx="992" cy="321" r="2.5" fill="red" /><circle cx="992" cy="321" r="2.5" fill="red" /><circle cx="1004" cy="319" r="2.5" fill="red" /><circle cx="1004" cy="321" r="2.5" fill="red" /><circle cx="1007" cy="321" r="2.5" fill="red" /><circle cx="1007" cy="319" r="2.5" fill="red" /><circle cx="1007" cy="321" r="2.5" fill="red" /><circle cx="1010" cy="319" r="2.5" fill="red" /><circle cx="1014" cy="319" r="2.5" fill="red" /><circle cx="1018" cy="317" r="2.5" fill="red" /><circle cx="1018" cy="321" r="2.5" fill="red" /><circle cx="1018" cy="321" r="2.5" fill="red" /><circle cx="1032" cy="319" r="2.5" fill="red" /><circle cx="1036" cy="319" r="2.5" fill="red" /><circle cx="1039" cy="319" r="2.5" fill="red" /><circle cx="1041" cy="315" r="2.5" fill="red" /><circle cx="1043" cy="319" r="2.5" fill="red" /><circle cx="1054" cy="321" r="2.5" fill="red" /><circle cx="1054" cy="321" r="2.5" fill="red" /><circle cx="1057" cy="319" r="2.5" fill="red" /><circle cx="1061" cy="319" r="2.5" fill="red" /><circle cx="1061" cy="321" r="2.5" fill="red" /><circle cx="1065" cy="317" r="2.5" fill="red" /><circle cx="1068" cy="317" r="2.5" fill="red" /><circle cx="1072" cy="321" r="2.5" fill="red" /><circle cx="1079" cy="321" r="2.5" fill="red" /><circle cx="1079" cy="321" r="2.5" fill="red" /><circle cx="1079" cy="319" r="2.5" fill="red" /><circle cx="1083" cy="321" r="2.5" fill="red" /><circle cx="1083" cy="319" r="2.5" fill="red" /><circle cx="1084" cy="319" r="2.5" fill="red" /><circle cx="1086" cy="319" r="2.5" fill="red" /><circle cx="1090" cy="319" r="2.5" fill="red" /><circle cx="1094" cy="319" r="2.5" fill="red" /><circle cx="1105" cy="321" r="2.5" fill="red" /><circle cx="1108" cy="319" r="2.5" fill="red" /><circle cx="1112" cy="319" r="2.5" fill="red" /><circle cx="1112" cy="321" r="2.5" fill="red" /><circle cx="1115" cy="319" r="2.5" fill="red" /><circle cx="1119" cy="317" r="2.5" fill="red" /><circle cx="1130" cy="321" r="2.5" fill="red" /><circle cx="1130" cy="321" r="2.5" fill="red" /><circle cx="1131" cy="321" r="2.5" fill="red" /><circle cx="1131" cy="321" r="2.5" fill="red" /><circle cx="1133" cy="319" r="2.5" fill="red" /><circle cx="1134" cy="321" r="2.5" fill="red" /><circle cx="1137" cy="319" r="2.5" fill="red" /><circle cx="1141" cy="319" r="2.5" fill="red" /><circle cx="1144" cy="319" r="2.5" fill="red" /><circle cx="1145" cy="321" r="2.5" fill="red" /><circle cx="1145" cy="321" r="2.5" fill="red" /><circle cx="1145" cy="321" r="2.5" fill="red" /><circle cx="1156" cy="321" r="2.5" fill="red" /><circle cx="1156" cy="321" r="2.5" fill="red" /><circle cx="1157" cy="321" r="2.5" fill="red" /><circle cx="1159" cy="317" r="2.5" fill="red" /><circle cx="1160" cy="321" r="2.5" fill="red" /><circle cx="1162" cy="319" r="2.5" fill="red" /><circle cx="1166" cy="319" r="2.5" fill="red" /><circle cx="1166" cy="321" r="2.5" fill="red" /><circle cx="1167" cy="321" r="2.5" fill="red" /><circle cx="1167" cy="321" r="2.5" fill="red" /><circle cx="1167" cy="317" r="2.5" fill="red" /><circle cx="1167" cy="321" r="2.5" fill="red" /><circle cx="1169" cy="315" r="2.5" fill="red" /><circle cx="1170" cy="321" r="2.5" fill="red" /><circle cx="1181" cy="321" r="2.5" fill="red" /><circle cx="1184" cy="319" r="2.5" fill="red" /><circle cx="1188" cy="317" r="2.5" fill="red" /><circle cx="1191" cy="319" r="2.5" fill="red" /><circle cx="1192" cy="321" r="2.5" fill="red" /><circle cx="1194" cy="321" r="2.5" fill="red" /><circle cx="1195" cy="319" r="2.5" fill="red" /><circle cx="1198" cy="321" r="2.5" fill="red" /><circle cx="1198" cy="321" r="2.5" fill="red" /><circle cx="1206" cy="321" r="2.5" fill="red" /><circle cx="1209" cy="321" r="2.5" fill="red" /><circle cx="1209" cy="319" r="2.5" fill="red" /><circle cx="1210" cy="321" r="2.5" fill="red" /><circle cx="1213" cy="319" r="2.5" fill="red" /><circle cx="1213" cy="321" r="2.5" fill="red" /><circle cx="1214" cy="321" r="2.5" fill="red" /><circle cx="1216" cy="319" r="2.5" fill="red" /><circle cx="1218" cy="321" r="2.5" fill="red" /><circle cx="1220" cy="319" r="2.5" fill="red" /><circle cx="1232" cy="321" r="2.5" fill="red" /><circle cx="1235" cy="317" r="2.5" fill="red" /><circle cx="1235" cy="321" r="2.5" fill="red" /><circle cx="1238" cy="319" r="2.5" fill="red" /><circle cx="1242" cy="319" r="2.5" fill="red" /><circle cx="1243" cy="321" r="2.5" fill="red" /><circle cx="1243" cy="321" r="2.5" fill="red" /><circle cx="1243" cy="321" r="2.5" fill="red" /><circle cx="1243" cy="321" r="2.5" fill="red" /><circle cx="1244" cy="122" r="2.5" fill="red" /><circle cx="1249" cy="321" r="2.5" fill="red" /><circle cx="1257" cy="321" r="2.5" fill="red" /><circle cx="1258" cy="321" r="2.5" fill="red" /><circle cx="1260" cy="317" r="2.5" fill="red" /><circle cx="1263" cy="319" r="2.5" fill="red" /><circle cx="1267" cy="319" r="2.5" fill="red" /><circle cx="1268" cy="321" r="2.5" fill="red" /><circle cx="1268" cy="321" r="2.5" fill="red" /><circle cx="1268" cy="321" r="2.5" fill="red" /><circle cx="1271" cy="315" r="2.5" fill="red" /><circle cx="1271" cy="321" r="2.5" fill="red" /><circle cx="1272" cy="321" r="2.5" fill="red" /><circle cx="1272" cy="321" r="2.5" fill="red" /><circle cx="1272" cy="321" r="2.5" fill="red" /><circle cx="1282" cy="321" r="2.5" fill="red" /><circle cx="1285" cy="317" r="2.5" fill="red" /><circle cx="1285" cy="321" r="2.5" fill="red" /><circle cx="1286" cy="321" r="2.5" fill="red" /><circle cx="1288" cy="321" r="2.5" fill="red" /><circle cx="1289" cy="319" r="2.5" fill="red" /><circle cx="1290" cy="321" r="2.5" fill="red" /><circle cx="1290" cy="321" r="2.5" fill="red" /><circle cx="1290" cy="321" r="2.5" fill="red" /><circle cx="1290" cy="319" r="2.5" fill="red" /><circle cx="1292" cy="317" r="2.5" fill="red" /><circle cx="1293" cy="321" r="2.5" fill="red" /><circle cx="1296" cy="319" r="2.5" fill="red" /><circle cx="1310" cy="317" r="2.5" fill="red" /><circle cx="1311" cy="321" r="2.5" fill="red" /><circle cx="1311" cy="321" r="2.5" fill="red" /><circle cx="1314" cy="319" r="2.5" fill="red" /><circle cx="1318" cy="317" r="2.5" fill="red" /><circle cx="1321" cy="319" r="2.5" fill="red" /><circle cx="1321" cy="321" r="2.5" fill="red" /><circle cx="1322" cy="319" r="2.5" fill="red" /><circle cx="1336" cy="319" r="2.5" fill="red" /><circle cx="1336" cy="321" r="2.5" fill="red" /><circle cx="1336" cy="321" r="2.5" fill="red" /><circle cx="1339" cy="317" r="2.5" fill="red" /><circle cx="1343" cy="319" r="2.5" fill="red" /><circle cx="1343" cy="321" r="2.5" fill="red" /><circle cx="1344" cy="321" r="2.5" fill="red" /><circle cx="1344" cy="321" r="2.5" fill="red" /><circle cx="1347" cy="319" r="2.5" fill="red" /><circle cx="1347" cy="321" r="2.5" fill="red" /><circle cx="1347" cy="321" r="2.5" fill="red" /><circle cx="1347" cy="321" r="2.5" fill="red" /><circle cx="1348" cy="321" r="2.5" fill="red" /><circle cx="1350" cy="321" r="2.5" fill="red" /><circle cx="1362" cy="321" r="2.5" fill="red" /><circle cx="1362" cy="321" r="2.5" fill="red" /><circle cx="1362" cy="321" r="2.5" fill="red" /><circle cx="1363" cy="321" r="2.5" fill="red" /><circle cx="1365" cy="319" r="2.5" fill="red" /><circle cx="1365" cy="321" r="2.5" fill="red" /><circle cx="1368" cy="317" r="2.5" fill="red" /><circle cx="1369" cy="321" r="2.5" fill="red" /><circle cx="1370" cy="321" r="2.5" fill="red" /></svg>