<svg xmlns="http://www.w3.org/2000/svg" width="1400" height="380"><line x1="60" y1="20" x2="60" y2="325" stroke="#e5e7eb" stroke-width="1" /><line x1="171" y1="20" x2="171" y2="325" stroke="#e5e7eb" stroke-width="1" /><line x1="276" y1="20" x2="276" y2="325" stroke="#e5e7eb" stroke-width="1" /><line x1="388" y1="20" x2="388" y2="325" stroke="#e5e7eb" stroke-width="1" /><line x1="496" y1="20" x2="496" y2="325" stroke="#e5e7eb" stroke-width="1" /><line x1="608" y1="20" x2="608" y2="325" stroke="#e5e7eb" stroke-width="1" /><line x1="716" y1="20" x2="716" y2="325" stroke="#e5e7eb" stroke-width="1" /><line x1="828" y1="20" x2="828" y2="325" stroke="#e5e7eb" stroke-width="1" /><line x1="940" y1="20" x2="940" y2="325" stroke="#e5e7eb" stroke-width="1" /><line x1="1048" y1="20" x2="1048" y2="325" stroke="#e5e7eb" stroke-width="1" /><line x1="1160" y1="20" x2="1160" y2="325" stroke="#e5e7eb" stroke-width="1" /><line x1="1268" y1="20" x2="1268" y2="325" stroke="#e5e7eb" stroke-width="1" /><line x1="60" y1="224" x2="1380" y2="224" stroke="#e5e7eb" stroke-width="1" /><line x1="60" y1="20" x2="1380" y2="20" stroke="#e5e7eb" stroke-width="1" /><line x1="60" y1="325" x2="1380" y2="325" stroke="black" stroke-width="1"/><line x1="60" y1="20" x2="60" y2="325" stroke="black" stroke-width="1"/><text x="720.0" y="362" font-size="12" text-anchor="middle">Time (UTC, 2008)</text><text x="18" y="172.5" font-size="12" transform="rotate(-90, 18, 172.5)" text-anchor="middle">Gap duration (minutes)</text><line x1="60" y1="325" x2="60" y2="330" stroke="black" stroke-width="1"/><text x="60" y="343" font-size="10" text-anchor="middle">Jan</text><line x1="171" y1="325" x2="171" y2="330" stroke="black" stroke-width="1"/><text x="171" y="343" font-size="10" text-anchor="middle">Feb</text><line x1="276" y1="325" x2="276" y2="330" stroke="black" stroke-width="1"/><text x="276" y="343" font-size="10" text-anchor="middle">Mar</text><line x1="388" y1="325" x2="388" y2="330" stroke="black" stroke-width="1"/><text x="388" y="343" font-size="10" text-anchor="middle">Apr</text><line x1="496" y1="325" x2="496" y2="330" stroke="black" stroke-width="1"/><text x="496" y="343" font-size="10" text-anchor="middle">May</text><line x1="608" y1="325" x2="608" y2="330" stroke="black" stroke-width="1"/><text x="608" y="343" font-size="10" text-anchor="middle">Jun</text><line x1="716" y1="325" x2="716" y2="330" stroke="black" stroke-width="1"/><text x="716" y="343" font-size="10" text-anchor="middle">Jul</text><line x1="828" y1="325" x2="828" y2="330" stroke="black" stroke-width="1"/><text x="828" y="343" font-size="10" text-anchor="middle">Aug</text><line x1="940" y1="325" x2="940" y2="330" stroke="black" stroke-width="1"/><text x="940" y="343" font-size="10" text-anchor="middle">Sep</text><line x1="1048" y1="325" x2="1048" y2="330" stroke="black" stroke-width="1"/><text x="1048" y="343" font-size="10" text-anchor="middle">Oct</text><line x1="1160" y1="325" x2="1160" y2="330" stroke="black" stroke-width="1"/><text x="1160" y="343" font-size="10" text-anchor="middle">Nov</text><line x1="1268" y1="325" x2="1268" y2="330" stroke="black" stroke-width="1"/><text x="1268" y="343" font-size="10" text-anchor="middle">Dec</text><line x1="55" y1="224" x2="60" y2="224" stroke="black" stroke-width="1"/><text x="52" y="227" font-size="10" text-anchor="end">10</text><line x1="55" y1="20" x2="60" y2="20" stroke="black" stroke-width="1"/><text x="52" y="23" font-size="10" text-anchor="end">30</text><circle cx="64" cy="173" r="2.5" fill="red" /><circle cx="67" cy="224" r="2.5" fill="red" /><circle cx="81" cy="224" r="2.5" fill="red" /><circle cx="96" cy="224" r="2.5" fill="red" /><circle cx="110" cy="224" r="2.5" fill="red" /><circle cx="110" cy="224" r="2.5" fill="red" /><circle cx="135" cy="173" r="2.5" fill="red" /><circle cx="157" cy="224" r="2.5" fill="red" /><circle cx="164" cy="224" r="2.5" fill="red" /><circle cx="165" cy="224" r="2.5" fill="red" /><circle cx="165" cy="224" r="2.5" fill="red" /><circle cx="172" cy="224" r="2.5" fill="red" /><circle cx="172" cy="224" r="2.5" fill="red" /><circle cx="183" cy="224" r="2.5" fill="red" /><circle cx="207" cy="224" r="2.5" fill="red" /><circle cx="211" cy="224" r="2.5" fill="red" /><circle cx="212" cy="224" r="2.5" fill="red" /><circle cx="215" cy="224" r="2.5" fill="red" /><circle cx="215" cy="224" r="2.5" fill="red" /><circle cx="218" cy="224" r="2.5" fill="red" /><circle cx="222" cy="224" r="2.5" fill="red" /><circle cx="222" cy="224" r="2.5" fill="red" /><circle cx="222" cy="224" r="2.5" fill="red" /><circle cx="233" cy="224" r="2.5" fill="red" /><circle cx="233" cy="224" r="2.5" fill="red" /><circle cx="233" cy="224" r="2.5" fill="red" /><circle cx="236" cy="224" r="2.5" fill="red" /><circle cx="236" cy="224" r="2.5" fill="red" /><circle cx="236" cy="224" r="2.5" fill="red" /><circle cx="236" cy="173" r="2.5" fill="red" /><circle cx="240" cy="224" r="2.5" fill="red" /><circle cx="241" cy="224" r="2.5" fill="red" /><circle cx="244" cy="224" r="2.5" fill="red" /><circle cx="248" cy="224" r="2.5" fill="red" /><circle cx="248" cy="224" r="2.5" fill="red" /><circle cx="258" cy="122" r="2.5" fill="red" /><circle cx="258" cy="122" r="2.5" fill="red" /><circle cx="261" cy="224" r="2.5" fill="red" /><circle cx="262" cy="224" r="2.5" fill="red" /><circle cx="269" cy="224" r="2.5" fill="red" /><circle cx="273" cy="224" r="2.5" fill="red" /><circle cx="291" cy="224" r="2.5" fill="red" /><circle cx="293" cy="224" r="2.5" fill="red" /><circle cx="294" cy="224" r="2.5" fill="red" /><circle cx="298" cy="224" r="2.5" fill="red" /><circle cx="298" cy="224" r="2.5" fill="red" /><circle cx="308" cy="224" r="2.5" fill="red" /><circle cx="359" cy="224" r="2.5" fill="red" /><circle cx="359" cy="224" r="2.5" fill="red" /><circle cx="370" cy="224" r="2.5" fill="red" /><circle cx="388" cy="224" r="2.5" fill="red" /><circle cx="399" cy="224" r="2.5" fill="red" /><circle cx="409" cy="224" r="2.5" fill="red" /><circle cx="416" cy="224" r="2.5" fill="red" /><circle cx="439" cy="224" r="2.5" fill="red" /><circle cx="460" cy="224" r="2.5" fill="red" /><circle cx="485" cy="224" r="2.5" fill="red" /><circle cx="489" cy="224" r="2.5" fill="red" /><circle cx="497" cy="224" r="2.5" fill="red" /><circle cx="500" cy="224" r="2.5" fill="red" /><circle cx="510" cy="224" r="2.5" fill="red" /><circle cx="510" cy="173" r="2.5" fill="red" /><circle cx="511" cy="224" r="2.5" fill="red" /><circle cx="511" cy="224" r="2.5" fill="red" /><circle cx="514" cy="224" r="2.5" fill="red" /><circle cx="525" cy="224" r="2.5" fill="red" /><circle cx="525" cy="224" r="2.5" fill="red" /><circle cx="535" cy="224" r="2.5" fill="red" /><circle cx="536" cy="224" r="2.5" fill="red" /><circle cx="543" cy="224" r="2.5" fill="red" /><circle cx="561" cy="224" r="2.5" fill="red" /><circle cx="561" cy="224" r="2.5" fill="red" /><circle cx="561" cy="224" r="2.5" fill="red" /><circle cx="564" cy="224" r="2.5" fill="red" /><circle cx="568" cy="224" r="2.5" fill="red" /><circle cx="575" cy="224" r="2.5" fill="red" /><circle cx="575" cy="224" r="2.5" fill="red" /><circle cx="586" cy="224" r="2.5" fill="red" /><circle cx="586" cy="224" r="2.5" fill="red" /><circle cx="586" cy="224" r="2.5" fill="red" /><circle cx="587" cy="224" r="2.5" fill="red" /><circle cx="587" cy="224" r="2.5" fill="red" /><circle cx="589" cy="173" r="2.5" fill="red" /><circle cx="589" cy="173" r="2.5" fill="red" /><circle cx="589" cy="224" r="2.5" fill="red" /><circle cx="589" cy="224" r="2.5" fill="red" /><circle cx="589" cy="224" r="2.5" fill="red" /><circle cx="589" cy="173" r="2.5" fill="red" /><circle cx="589" cy="224" r="2.5" fill="red" /><circle cx="589" cy="224" r="2.5" fill="red" /><circle cx="589" cy="224" r="2.5" fill="red" /><circle cx="589" cy="173" r="2.5" fill="red" /><circle cx="589" cy="224" r="2.5" fill="red" /><circle cx="589" cy="224" r="2.5" fill="red" /><circle cx="590" cy="224" r="2.5" fill="red" /><circle cx="590" cy="224" r="2.5" fill="red" /><circle cx="593" cy="224" r="2.5" fill="red" /><circle cx="593" cy="224" r="2.5" fill="red" /><circle cx="612" cy="224" r="2.5" fill="red" /><circle cx="612" cy="224" r="2.5" fill="red" /><circle cx="612" cy="224" r="2.5" fill="red" /><circle cx="615" cy="224" r="2.5" fill="red" /><circle cx="619" cy="224" r="2.5" fill="red" /><circle cx="622" cy="224" r="2.5" fill="red" /><circle cx="640" cy="224" r="2.5" fill="red" /><circle cx="641" cy="224" r="2.5" fill="red" /><circle cx="644" cy="224" r="2.5" fill="red" /><circle cx="647" cy="173" r="2.5" fill="red" /><circle cx="662" cy="224" r="2.5" fill="red" /><circle cx="665" cy="224" r="2.5" fill="red" /><circle cx="669" cy="224" r="2.5" fill="red" /><circle cx="669" cy="224" r="2.5" fill="red" /><circle cx="669" cy="224" r="2.5" fill="red" /><circle cx="676" cy="224" r="2.5" fill="red" /><circle cx="677" cy="224" r="2.5" fill="red" /><circle cx="688" cy="224" r="2.5" fill="red" /><circle cx="694" cy="224" r="2.5" fill="red" /><circle cx="694" cy="224" r="2.5" fill="red" /><circle cx="698" cy="224" r="2.5" fill="red" /><circle cx="705" cy="224" r="2.5" fill="red" /><circle cx="712" cy="224" r="2.5" fill="red" /><circle cx="713" cy="224" r="2.5" fill="red" /><circle cx="719" cy="224" r="2.5" fill="red" /><circle cx="720" cy="224" r="2.5" fill="red" /><circle cx="724" cy="224" r="2.5" fill="red" /><circle cx="727" cy="224" r="2.5" fill="red" /><circle cx="730" cy="224" r="2.5" fill="red" /><circle cx="730" cy="224" r="2.5" fill="red" /><circle cx="730" cy="173" r="2.5" fill="red" /><circle cx="730" cy="122" r="2.5" fill="red" /><circle cx="737" cy="224" r="2.5" fill="red" /><circle cx="741" cy="224" r="2.5" fill="red" /><circle cx="745" cy="224" r="2.5" fill="red" /><circle cx="745" cy="224" r="2.5" fill="red" /><circle cx="748" cy="224" r="2.5" fill="red" /><circle cx="749" cy="224" r="2.5" fill="red" /><circle cx="749" cy="224" r="2.5" fill="red" /><circle cx="749" cy="224" r="2.5" fill="red" /><circle cx="752" cy="224" r="2.5" fill="red" /><circle cx="752" cy="224" r="2.5" fill="red" /><circle cx="780" cy="224" r="2.5" fill="red" /><circle cx="788" cy="224" r="2.5" fill="red" /><circle cx="788" cy="224" r="2.5" fill="red" /><circle cx="789" cy="224" r="2.5" fill="red" /><circle cx="795" cy="224" r="2.5" fill="red" /><circle cx="813" cy="173" r="2.5" fill="red" /><circle cx="813" cy="224" r="2.5" fill="red" /><circle cx="813" cy="224" r="2.5" fill="red" /><circle cx="813" cy="224" r="2.5" fill="red" /><circle cx="813" cy="224" r="2.5" fill="red" /><circle cx="817" cy="224" r="2.5" fill="red" /><circle cx="824" cy="173" r="2.5" fill="red" /><circle cx="827" cy="224" r="2.5" fill="red" /><circle cx="828" cy="224" r="2.5" fill="red" /><circle cx="828" cy="224" r="2.5" fill="red" /><circle cx="838" cy="173" r="2.5" fill="red" /><circle cx="839" cy="224" r="2.5" fill="red" /><circle cx="839" cy="224" r="2.5" fill="red" /><circle cx="842" cy="224" r="2.5" fill="red" /><circle cx="843" cy="224" r="2.5" fill="red" /><circle cx="846" cy="224" r="2.5" fill="red" /><circle cx="846" cy="224" r="2.5" fill="red" /><circle cx="889" cy="224" r="2.5" fill="red" /><circle cx="900" cy="224" r="2.5" fill="red" /><circle cx="904" cy="224" r="2.5" fill="red" /><circle cx="914" cy="224" r="2.5" fill="red" /><circle cx="942" cy="224" r="2.5" fill="red" /><circle cx="942" cy="224" r="2.5" fill="red" /><circle cx="943" cy="224" r="2.5" fill="red" /><circle cx="947" cy="224" r="2.5" fill="red" /><circle cx="967" cy="224" r="2.5" fill="red" /><circle cx="1256" cy="224" r="2.5" fill="red" /><circle cx="1257" cy="224" r="2.5" fill="red" /><circle cx="1257" cy="224" r="2.5" fill="red" /><circle cx="1268" cy="224" r="2.5" fill="red" /><circle cx="1293" cy="224" r="2.5" fill="red" /><circle cx="1300" cy="224" r="2.5" fill="red" /><circle cx="1343" cy="224" r="2.5" fill="red" /><circle cx="1347" cy="224" r="2.5" fill="red" /><circle cx="1354" cy="224" r="2.5" fill="red" /></svg>