<svg xmlns="http://www.w3.org/2000/svg" width="1400" height="380"><line x1="60" y1="20" x2="60" y2="325" stroke="#e5e7eb" stroke-width="1" /><line x1="171" y1="20" x2="171" y2="325" stroke="#e5e7eb" stroke-width="1" /><line x1="276" y1="20" x2="276" y2="325" stroke="#e5e7eb" stroke-width="1" /><line x1="388" y1="20" x2="388" y2="325" stroke="#e5e7eb" stroke-width="1" /><line x1="496" y1="20" x2="496" y2="325" stroke="#e5e7eb" stroke-width="1" /><line x1="608" y1="20" x2="608" y2="325" stroke="#e5e7eb" stroke-width="1" /><line x1="716" y1="20" x2="716" y2="325" stroke="#e5e7eb" stroke-width="1" /><line x1="828" y1="20" x2="828" y2="325" stroke="#e5e7eb" stroke-width="1" /><line x1="940" y1="20" x2="940" y2="325" stroke="#e5e7eb" stroke-width="1" /><line x1="1048" y1="20" x2="1048" y2="325" stroke="#e5e7eb" stroke-width="1" /><line x1="1160" y1="20" x2="1160" y2="325" stroke="#e5e7eb" stroke-width="1" /><line x1="1268" y1="20" x2="1268" y2="325" stroke="#e5e7eb" stroke-width="1" /><line x1="60" y1="323" x2="1380" y2="323" stroke="#e5e7eb" stroke-width="1" /><line x1="60" y1="319" x2="1380" y2="319" stroke="#e5e7eb" stroke-width="1" /><line x1="60" y1="313" x2="1380" y2="313" stroke="#e5e7eb" stroke-width="1" /><line x1="60" y1="300" x2="1380" y2="300" stroke="#e5e7eb" stroke-width="1" /><line x1="60" y1="287" x2="1380" y2="287" stroke="#e5e7eb" stroke-width="1" /><line x1="60" y1="249" x2="1380" y2="249" stroke="#e5e7eb" stroke-width="1" /><line x1="60" y1="173" x2="1380" y2="173" stroke="#e5e7eb" stroke-width="1" /><line x1="60" y1="20" x2="1380" y2="20" stroke="#e5e7eb" stroke-width="1" /><line x1="60" y1="325" x2="1380" y2="325" stroke="black" stroke-width="1"/><line x1="60" y1="20" x2="60" y2="325" stroke="black" stroke-width="1"/><text x="720.0" y="362" font-size="12" text-anchor="middle">Time (UTC, 2004)</text><text x="18" y="172.5" font-size="12" transform="rotate(-90, 18, 172.5)" text-anchor="middle">Gap duration (minutes)</text><line x1="60" y1="325" x2="60" y2="330" stroke="black" stroke-width="1"/><text x="60" y="343" font-size="10" text-anchor="middle">Jan</text><line x1="171" y1="325" x2="171" y2="330" stroke="black" stroke-width="1"/><text x="171" y="343" font-size="10" text-anchor="middle">Feb</text><line x1="276" y1="325" x2="276" y2="330" stroke="black" stroke-width="1"/><text x="276" y="343" font-size="10" text-anchor="middle">Mar</text><line x1="388" y1="325" x2="388" y2="330" stroke="black" stroke-width="1"/><text x="388" y="343" font-size="10" text-anchor="middle">Apr</text><line x1="496" y1="325" x2="496" y2="330" stroke="black" stroke-width="1"/><text x="496" y="343" font-size="10" text-anchor="middle">May</text><line x1="608" y1="325" x2="608" y2="330" stroke="black" stroke-width="1"/><text x="608" y="343" font-size="10" text-anchor="middle">Jun</text><line x1="716" y1="325" x2="716" y2="330" stroke="black" stroke-width="1"/><text x="716" y="343" font-size="10" text-anchor="middle">Jul</text><line x1="828" y1="325" x2="828" y2="330" stroke="black" stroke-width="1"/><text x="828" y="343" font-size="10" text-anchor="middle">Aug</text><line x1="940" y1="325" x2="940" y2="330" stroke="black" stroke-width="1"/><text x="940" y="343" font-size="10" text-anchor="middle">Sep</text><line x1="1048" y1="325" x2="1048" y2="330" stroke="black" stroke-width="1"/><text x="1048" y="343" font-size="10" text-anchor="middle">Oct</text><line x1="1160" y1="325" x2="1160" y2="330" stroke="black" stroke-width="1"/><text x="1160" y="343" font-size="10" text-anchor="middle">Nov</text><line x1="1268" y1="325" x2="1268" y2="330" stroke="black" stroke-width="1"/><text x="1268" y="343" font-size="10" text-anchor="middle">Dec</text><line x1="55" y1="323" x2="60" y2="323" stroke="black" stroke-width="1"/><text x="52" y="326" font-size="10" text-anchor="end">10</text><line x1="55" y1="319" x2="60" y2="319" stroke="black" stroke-width="1"/><text x="52" y="322" font-size="10" text-anchor="end">30</text><line x1="55" y1="313" x2="60" y2="313" stroke="black" stroke-width="1"/><text x="52" y="316" font-size="10" text-anchor="end">60</text><line x1="55" y1="300" x2="60" y2="300" stroke="black" stroke-width="1"/><text x="52" y="303" font-size="10" text-anchor="end">120</text><line x1="55" y1="287" x2="60" y2="287" stroke="black" stroke-width="1"/><text x="52" y="290" font-size="10" text-anchor="end">180</text><line x1="55" y1="249" x2="60" y2="249" stroke="black" stroke-width="1"/><text x="52" y="252" font-size="10" text-anchor="end">360</text><line x1="55" y1="173" x2="60" y2="173" stroke="black" stroke-width="1"/><text x="52" y="176" font-size="10" text-anchor="end">720</text><line x1="55" y1="20" x2="60" y2="20" stroke="black" stroke-width="1"/><text x="52" y="23" font-size="10" text-anchor="end">1440</text><circle cx="64" cy="323" r="2.5" fill="red" /><circle cx="74" cy="323" r="2.5" fill="red" /><circle cx="77" cy="322" r="2.5" fill="red" /><circle cx="81" cy="322" r="2.5" fill="red" /><circle cx="84" cy="321" r="2.5" fill="red" /><circle cx="88" cy="321" r="2.5" fill="red" /><circle cx="89" cy="323" r="2.5" fill="red" /><circle cx="100" cy="323" r="2.5" fill="red" /><circle cx="102" cy="322" r="2.5" fill="red" /><circle cx="106" cy="316" r="2.5" fill="red" /><circle cx="110" cy="321" r="2.5" fill="red" /><circle cx="113" cy="319" r="2.5" fill="red" /><circle cx="128" cy="321" r="2.5" fill="red" /><circle cx="131" cy="322" r="2.5" fill="red" /><circle cx="135" cy="321" r="2.5" fill="red" /><circle cx="139" cy="321" r="2.5" fill="red" /><circle cx="153" cy="322" r="2.5" fill="red" /><circle cx="157" cy="322" r="2.5" fill="red" /><circle cx="160" cy="322" r="2.5" fill="red" /><circle cx="164" cy="322" r="2.5" fill="red" /><circle cx="176" cy="323" r="2.5" fill="red" /><circle cx="178" cy="323" r="2.5" fill="red" /><circle cx="182" cy="323" r="2.5" fill="red" /><circle cx="185" cy="322" r="2.5" fill="red" /><circle cx="186" cy="323" r="2.5" fill="red" /><circle cx="186" cy="323" r="2.5" fill="red" /><circle cx="189" cy="322" r="2.5" fill="red" /><circle cx="189" cy="323" r="2.5" fill="red" /><circle cx="193" cy="321" r="2.5" fill="red" /><circle cx="203" cy="321" r="2.5" fill="red" /><circle cx="207" cy="322" r="2.5" fill="red" /><circle cx="211" cy="321" r="2.5" fill="red" /><circle cx="212" cy="323" r="2.5" fill="red" /><circle cx="214" cy="319" r="2.5" fill="red" /><circle cx="228" cy="323" r="2.5" fill="red" /><circle cx="228" cy="323" r="2.5" fill="red" /><circle cx="229" cy="323" r="2.5" fill="red" /><circle cx="229" cy="321" r="2.5" fill="red" /><circle cx="229" cy="323" r="2.5" fill="red" /><circle cx="232" cy="322" r="2.5" fill="red" /><circle cx="233" cy="323" r="2.5" fill="red" /><circle cx="236" cy="322" r="2.5" fill="red" /><circle cx="240" cy="315" r="2.5" fill="red" /><circle cx="254" cy="321" r="2.5" fill="red" /><circle cx="258" cy="321" r="2.5" fill="red" /><circle cx="259" cy="323" r="2.5" fill="red" /><circle cx="261" cy="318" r="2.5" fill="red" /><circle cx="265" cy="320" r="2.5" fill="red" /><circle cx="276" cy="323" r="2.5" fill="red" /><circle cx="279" cy="322" r="2.5" fill="red" /><circle cx="280" cy="323" r="2.5" fill="red" /><circle cx="283" cy="321" r="2.5" fill="red" /><circle cx="286" cy="321" r="2.5" fill="red" /><circle cx="289" cy="323" r="2.5" fill="red" /><circle cx="290" cy="321" r="2.5" fill="red" /><circle cx="291" cy="323" r="2.5" fill="red" /><circle cx="303" cy="323" r="2.5" fill="red" /><circle cx="304" cy="321" r="2.5" fill="red" /><circle cx="307" cy="323" r="2.5" fill="red" /><circle cx="308" cy="321" r="2.5" fill="red" /><circle cx="312" cy="320" r="2.5" fill="red" /><circle cx="315" cy="319" r="2.5" fill="red" /><circle cx="327" cy="322" r="2.5" fill="red" /><circle cx="327" cy="323" r="2.5" fill="red" /><circle cx="330" cy="320" r="2.5" fill="red" /><circle cx="333" cy="321" r="2.5" fill="red" /><circle cx="337" cy="320" r="2.5" fill="red" /><circle cx="341" cy="320" r="2.5" fill="red" /><circle cx="355" cy="321" r="2.5" fill="red" /><circle cx="359" cy="320" r="2.5" fill="red" /><circle cx="362" cy="320" r="2.5" fill="red" /><circle cx="366" cy="320" r="2.5" fill="red" /><circle cx="380" cy="320" r="2.5" fill="red" /><circle cx="383" cy="319" r="2.5" fill="red" /><circle cx="384" cy="320" r="2.5" fill="red" /><circle cx="387" cy="319" r="2.5" fill="red" /><circle cx="391" cy="318" r="2.5" fill="red" /><circle cx="391" cy="323" r="2.5" fill="red" /><circle cx="405" cy="320" r="2.5" fill="red" /><circle cx="409" cy="319" r="2.5" fill="red" /><circle cx="413" cy="321" r="2.5" fill="red" /><circle cx="416" cy="321" r="2.5" fill="red" /><circle cx="416" cy="323" r="2.5" fill="red" /><circle cx="416" cy="323" r="2.5" fill="red" /><circle cx="416" cy="323" r="2.5" fill="red" /><circle cx="416" cy="323" r="2.5" fill="red" /><circle cx="428" cy="323" r="2.5" fill="red" /><circle cx="429" cy="323" r="2.5" fill="red" /><circle cx="429" cy="323" r="2.5" fill="red" /><circle cx="429" cy="323" r="2.5" fill="red" /><circle cx="430" cy="323" r="2.5" fill="red" /><circle cx="431" cy="320" r="2.5" fill="red" /><circle cx="431" cy="322" r="2.5" fill="red" /><circle cx="434" cy="320" r="2.5" fill="red" /><circle cx="438" cy="321" r="2.5" fill="red" /><circle cx="441" cy="320" r="2.5" fill="red" /><circle cx="442" cy="323" r="2.5" fill="red" /><circle cx="456" cy="320" r="2.5" fill="red" /><circle cx="460" cy="321" r="2.5" fill="red" /><circle cx="463" cy="321" r="2.5" fill="red" /><circle cx="463" cy="323" r="2.5" fill="red" /><circle cx="467" cy="321" r="2.5" fill="red" /><circle cx="469" cy="323" r="2.5" fill="red" /><circle cx="481" cy="321" r="2.5" fill="red" /><circle cx="481" cy="323" r="2.5" fill="red" /><circle cx="481" cy="323" r="2.5" fill="red" /><circle cx="481" cy="323" r="2.5" fill="red" /><circle cx="481" cy="323" r="2.5" fill="red" /><circle cx="485" cy="321" r="2.5" fill="red" /><circle cx="488" cy="319" r="2.5" fill="red" /><circle cx="489" cy="323" r="2.5" fill="red" /><circle cx="492" cy="321" r="2.5" fill="red" /><circle cx="504" cy="323" r="2.5" fill="red" /><circle cx="506" cy="320" r="2.5" fill="red" /><circle cx="507" cy="323" r="2.5" fill="red" /><circle cx="507" cy="323" r="2.5" fill="red" /><circle cx="507" cy="323" r="2.5" fill="red" /><circle cx="510" cy="321" r="2.5" fill="red" /><circle cx="511" cy="322" r="2.5" fill="red" /><circle cx="514" cy="321" r="2.5" fill="red" /><circle cx="514" cy="323" r="2.5" fill="red" /><circle cx="514" cy="323" r="2.5" fill="red" /><circle cx="515" cy="323" r="2.5" fill="red" /><circle cx="515" cy="323" r="2.5" fill="red" /><circle cx="517" cy="321" r="2.5" fill="red" /><circle cx="532" cy="320" r="2.5" fill="red" /><circle cx="535" cy="321" r="2.5" fill="red" /><circle cx="539" cy="321" r="2.5" fill="red" /><circle cx="542" cy="321" r="2.5" fill="red" /><circle cx="553" cy="323" r="2.5" fill="red" /><circle cx="553" cy="323" r="2.5" fill="red" /><circle cx="554" cy="323" r="2.5" fill="red" /><circle cx="554" cy="322" r="2.5" fill="red" /><circle cx="557" cy="319" r="2.5" fill="red" /><circle cx="561" cy="321" r="2.5" fill="red" /><circle cx="564" cy="321" r="2.5" fill="red" /><circle cx="568" cy="321" r="2.5" fill="red" /><circle cx="582" cy="321" r="2.5" fill="red" /><circle cx="582" cy="323" r="2.5" fill="red" /><circle cx="586" cy="320" r="2.5" fill="red" /><circle cx="586" cy="323" r="2.5" fill="red" /><circle cx="589" cy="321" r="2.5" fill="red" /><circle cx="593" cy="321" r="2.5" fill="red" /><circle cx="604" cy="323" r="2.5" fill="red" /><circle cx="605" cy="322" r="2.5" fill="red" /><circle cx="606" cy="323" r="2.5" fill="red" /><circle cx="606" cy="224" r="2.5" fill="red" /><circle cx="611" cy="321" r="2.5" fill="red" /><circle cx="615" cy="320" r="2.5" fill="red" /><circle cx="618" cy="321" r="2.5" fill="red" /><circle cx="633" cy="319" r="2.5" fill="red" /><circle cx="636" cy="321" r="2.5" fill="red" /><circle cx="640" cy="321" r="2.5" fill="red" /><circle cx="643" cy="319" r="2.5" fill="red" /><circle cx="647" cy="323" r="2.5" fill="red" /><circle cx="647" cy="323" r="2.5" fill="red" /><circle cx="655" cy="323" r="2.5" fill="red" /><circle cx="658" cy="321" r="2.5" fill="red" /><circle cx="661" cy="321" r="2.5" fill="red" /><circle cx="665" cy="319" r="2.5" fill="red" /><circle cx="666" cy="323" r="2.5" fill="red" /><circle cx="669" cy="321" r="2.5" fill="red" /><circle cx="680" cy="323" r="2.5" fill="red" /><circle cx="680" cy="323" r="2.5" fill="red" /><circle cx="683" cy="323" r="2.5" fill="red" /><circle cx="683" cy="321" r="2.5" fill="red" /><circle cx="687" cy="321" r="2.5" fill="red" /><circle cx="688" cy="323" r="2.5" fill="red" /><circle cx="690" cy="321" r="2.5" fill="red" /><circle cx="694" cy="320" r="2.5" fill="red" /><circle cx="705" cy="323" r="2.5" fill="red" /><circle cx="705" cy="323" r="2.5" fill="red" /><circle cx="708" cy="321" r="2.5" fill="red" /><circle cx="709" cy="323" r="2.5" fill="red" /><circle cx="709" cy="323" r="2.5" fill="red" /><circle cx="712" cy="320" r="2.5" fill="red" /><circle cx="712" cy="321" r="2.5" fill="red" /><circle cx="716" cy="320" r="2.5" fill="red" /><circle cx="719" cy="315" r="2.5" fill="red" /><circle cx="731" cy="323" r="2.5" fill="red" /><circle cx="731" cy="323" r="2.5" fill="red" /><circle cx="731" cy="314" r="2.5" fill="red" /><circle cx="732" cy="323" r="2.5" fill="red" /><circle cx="733" cy="323" r="2.5" fill="red" /><circle cx="733" cy="323" r="2.5" fill="red" /><circle cx="733" cy="323" r="2.5" fill="red" /><circle cx="733" cy="323" r="2.5" fill="red" /><circle cx="734" cy="323" r="2.5" fill="red" /><circle cx="734" cy="320" r="2.5" fill="red" /><circle cx="737" cy="321" r="2.5" fill="red" /><circle cx="741" cy="320" r="2.5" fill="red" /><circle cx="741" cy="323" r="2.5" fill="red" /><circle cx="742" cy="323" r="2.5" fill="red" /><circle cx="742" cy="323" r="2.5" fill="red" /><circle cx="744" cy="320" r="2.5" fill="red" /><circle cx="746" cy="323" r="2.5" fill="red" /><circle cx="748" cy="323" r="2.5" fill="red" /><circle cx="756" cy="323" r="2.5" fill="red" /><circle cx="756" cy="323" r="2.5" fill="red" /><circle cx="759" cy="320" r="2.5" fill="red" /><circle cx="759" cy="323" r="2.5" fill="red" /><circle cx="759" cy="323" r="2.5" fill="red" /><circle cx="762" cy="320" r="2.5" fill="red" /><circle cx="765" cy="322" r="2.5" fill="red" /><circle cx="766" cy="317" r="2.5" fill="red" /><circle cx="766" cy="323" r="2.5" fill="red" /><circle cx="770" cy="319" r="2.5" fill="red" /><circle cx="770" cy="323" r="2.5" fill="red" /><circle cx="770" cy="323" r="2.5" fill="red" /><circle cx="770" cy="321" r="2.5" fill="red" /><circle cx="771" cy="323" r="2.5" fill="red" /><circle cx="781" cy="323" r="2.5" fill="red" /><circle cx="784" cy="319" r="2.5" fill="red" /><circle cx="787" cy="323" r="2.5" fill="red" /><circle cx="788" cy="320" r="2.5" fill="red" /><circle cx="788" cy="320" r="2.5" fill="red" /><circle cx="791" cy="317" r="2.5" fill="red" /><circle cx="795" cy="323" r="2.5" fill="red" /><circle cx="795" cy="318" r="2.5" fill="red" /><circle cx="809" cy="320" r="2.5" fill="red" /><circle cx="809" cy="323" r="2.5" fill="red" /><circle cx="813" cy="321" r="2.5" fill="red" /><circle cx="817" cy="316" r="2.5" fill="red" /><circle cx="818" cy="323" r="2.5" fill="red" /><circle cx="820" cy="320" r="2.5" fill="red" /><circle cx="820" cy="323" r="2.5" fill="red" /><circle cx="820" cy="323" r="2.5" fill="red" /><circle cx="835" cy="320" r="2.5" fill="red" /><circle cx="835" cy="323" r="2.5" fill="red" /><circle cx="838" cy="322" r="2.5" fill="red" /><circle cx="842" cy="320" r="2.5" fill="red" /><circle cx="842" cy="323" r="2.5" fill="red" /><circle cx="843" cy="323" r="2.5" fill="red" /><circle cx="843" cy="323" r="2.5" fill="red" /><circle cx="843" cy="323" r="2.5" fill="red" /><circle cx="845" cy="321" r="2.5" fill="red" /><circle cx="846" cy="323" r="2.5" fill="red" /><circle cx="846" cy="323" r="2.5" fill="red" /><circle cx="856" cy="323" r="2.5" fill="red" /><circle cx="856" cy="322" r="2.5" fill="red" /><circle cx="860" cy="323" r="2.5" fill="red" /><circle cx="860" cy="321" r="2.5" fill="red" /><circle cx="860" cy="322" r="2.5" fill="red" /><circle cx="860" cy="323" r="2.5" fill="red" /><circle cx="863" cy="320" r="2.5" fill="red" /><circle cx="864" cy="323" r="2.5" fill="red" /><circle cx="864" cy="323" r="2.5" fill="red" /><circle cx="864" cy="323" r="2.5" fill="red" /><circle cx="864" cy="321" r="2.5" fill="red" /><circle cx="865" cy="323" r="2.5" fill="red" /><circle cx="867" cy="320" r="2.5" fill="red" /><circle cx="868" cy="323" r="2.5" fill="red" /><circle cx="868" cy="323" r="2.5" fill="red" /><circle cx="868" cy="323" r="2.5" fill="red" /><circle cx="871" cy="319" r="2.5" fill="red" /><circle cx="871" cy="323" r="2.5" fill="red" /><circle cx="871" cy="323" r="2.5" fill="red" /><circle cx="882" cy="322" r="2.5" fill="red" /><circle cx="882" cy="323" r="2.5" fill="red" /><circle cx="882" cy="323" r="2.5" fill="red" /><circle cx="883" cy="323" r="2.5" fill="red" /><circle cx="885" cy="321" r="2.5" fill="red" /><circle cx="885" cy="323" r="2.5" fill="red" /><circle cx="889" cy="320" r="2.5" fill="red" /><circle cx="889" cy="323" r="2.5" fill="red" /><circle cx="890" cy="323" r="2.5" fill="red" /><circle cx="892" cy="323" r="2.5" fill="red" /><circle cx="892" cy="320" r="2.5" fill="red" /><circle cx="896" cy="319" r="2.5" fill="red" /><circle cx="897" cy="323" r="2.5" fill="red" /><circle cx="899" cy="323" r="2.5" fill="red" /><circle cx="907" cy="323" r="2.5" fill="red" /><circle cx="907" cy="323" r="2.5" fill="red" /><circle cx="908" cy="323" r="2.5" fill="red" /><circle cx="910" cy="148" r="2.5" fill="red" /><circle cx="914" cy="320" r="2.5" fill="red" /><circle cx="916" cy="323" r="2.5" fill="red" /><circle cx="918" cy="320" r="2.5" fill="red" /><circle cx="918" cy="323" r="2.5" fill="red" /><circle cx="919" cy="323" r="2.5" fill="red" /><circle cx="919" cy="323" r="2.5" fill="red" /><circle cx="921" cy="319" r="2.5" fill="red" /><circle cx="921" cy="323" r="2.5" fill="red" /><circle cx="921" cy="323" r="2.5" fill="red" /><circle cx="921" cy="323" r="2.5" fill="red" /><circle cx="922" cy="323" r="2.5" fill="red" /><circle cx="922" cy="323" r="2.5" fill="red" /><circle cx="932" cy="323" r="2.5" fill="red" /><circle cx="932" cy="323" r="2.5" fill="red" /><circle cx="932" cy="323" r="2.5" fill="red" /><circle cx="932" cy="323" r="2.5" fill="red" /><circle cx="935" cy="323" r="2.5" fill="red" /><circle cx="936" cy="318" r="2.5" fill="red" /><circle cx="937" cy="323" r="2.5" fill="red" /><circle cx="939" cy="321" r="2.5" fill="red" /><circle cx="943" cy="317" r="2.5" fill="red" /><circle cx="943" cy="323" r="2.5" fill="red" /><circle cx="943" cy="323" r="2.5" fill="red" /><circle cx="944" cy="323" r="2.5" fill="red" /><circle cx="944" cy="323" r="2.5" fill="red" /><circle cx="946" cy="320" r="2.5" fill="red" /><circle cx="950" cy="323" r="2.5" fill="red" /><circle cx="958" cy="323" r="2.5" fill="red" /><circle cx="958" cy="323" r="2.5" fill="red" /><circle cx="958" cy="323" r="2.5" fill="red" /><circle cx="959" cy="323" r="2.5" fill="red" /><circle cx="960" cy="323" r="2.5" fill="red" /><circle cx="960" cy="224" r="2.5" fill="red" /><circle cx="961" cy="323" r="2.5" fill="red" /><circle cx="961" cy="323" r="2.5" fill="red" /><circle cx="961" cy="323" r="2.5" fill="red" /><circle cx="962" cy="323" r="2.5" fill="red" /><circle cx="964" cy="321" r="2.5" fill="red" /><circle cx="968" cy="323" r="2.5" fill="red" /><circle cx="968" cy="319" r="2.5" fill="red" /><circle cx="968" cy="323" r="2.5" fill="red" /><circle cx="969" cy="323" r="2.5" fill="red" /><circle cx="972" cy="319" r="2.5" fill="red" /><circle cx="982" cy="323" r="2.5" fill="red" /><circle cx="984" cy="323" r="2.5" fill="red" /><circle cx="984" cy="323" r="2.5" fill="red" /><circle cx="986" cy="321" r="2.5" fill="red" /><circle cx="986" cy="323" r="2.5" fill="red" /><circle cx="987" cy="323" r="2.5" fill="red" /><circle cx="987" cy="323" r="2.5" fill="red" /><circle cx="990" cy="318" r="2.5" fill="red" /><circle cx="990" cy="323" r="2.5" fill="red" /><circle cx="990" cy="323" r="2.5" fill="red" /><circle cx="993" cy="319" r="2.5" fill="red" /><circle cx="994" cy="323" r="2.5" fill="red" /><circle cx="994" cy="323" r="2.5" fill="red" /><circle cx="994" cy="323" r="2.5" fill="red" /><circle cx="994" cy="323" r="2.5" fill="red" /><circle cx="997" cy="320" r="2.5" fill="red" /><circle cx="997" cy="323" r="2.5" fill="red" /><circle cx="998" cy="323" r="2.5" fill="red" /><circle cx="998" cy="323" r="2.5" fill="red" /><circle cx="998" cy="323" r="2.5" fill="red" /><circle cx="1000" cy="323" r="2.5" fill="red" /><circle cx="1000" cy="323" r="2.5" fill="red" /><circle cx="1008" cy="323" r="2.5" fill="red" /><circle cx="1008" cy="323" r="2.5" fill="red" /><circle cx="1009" cy="323" r="2.5" fill="red" /><circle cx="1009" cy="322" r="2.5" fill="red" /><circle cx="1009" cy="323" r="2.5" fill="red" /><circle cx="1010" cy="323" r="2.5" fill="red" /><circle cx="1011" cy="320" r="2.5" fill="red" /><circle cx="1011" cy="323" r="2.5" fill="red" /><circle cx="1012" cy="322" r="2.5" fill="red" /><circle cx="1013" cy="323" r="2.5" fill="red" /><circle cx="1013" cy="323" r="2.5" fill="red" /><circle cx="1015" cy="320" r="2.5" fill="red" /><circle cx="1019" cy="321" r="2.5" fill="red" /><circle cx="1019" cy="323" r="2.5" fill="red" /><circle cx="1019" cy="323" r="2.5" fill="red" /><circle cx="1019" cy="323" r="2.5" fill="red" /><circle cx="1020" cy="323" r="2.5" fill="red" /><circle cx="1022" cy="321" r="2.5" fill="red" /><circle cx="1022" cy="323" r="2.5" fill="red" /><circle cx="1023" cy="323" r="2.5" fill="red" /><circle cx="1033" cy="323" r="2.5" fill="red" /><circle cx="1033" cy="323" r="2.5" fill="red" /><circle cx="1034" cy="323" r="2.5" fill="red" /><circle cx="1034" cy="323" r="2.5" fill="red" /><circle cx="1034" cy="323" r="2.5" fill="red" /><circle cx="1037" cy="319" r="2.5" fill="red" /><circle cx="1037" cy="323" r="2.5" fill="red" /><circle cx="1037" cy="323" r="2.5" fill="red" /><circle cx="1037" cy="323" r="2.5" fill="red" /><circle cx="1038" cy="323" r="2.5" fill="red" /><circle cx="1039" cy="323" r="2.5" fill="red" /><circle cx="1040" cy="323" r="2.5" fill="red" /><circle cx="1040" cy="320" r="2.5" fill="red" /><circle cx="1040" cy="322" r="2.5" fill="red" /><circle cx="1041" cy="323" r="2.5" fill="red" /><circle cx="1041" cy="323" r="2.5" fill="red" /><circle cx="1041" cy="323" r="2.5" fill="red" /><circle cx="1044" cy="319" r="2.5" fill="red" /><circle cx="1045" cy="322" r="2.5" fill="red" /><circle cx="1045" cy="322" r="2.5" fill="red" /><circle cx="1047" cy="321" r="2.5" fill="red" /><circle cx="1048" cy="323" r="2.5" fill="red" /><circle cx="1048" cy="321" r="2.5" fill="red" /><circle cx="1048" cy="323" r="2.5" fill="red" /><circle cx="1059" cy="323" r="2.5" fill="red" /><circle cx="1059" cy="323" r="2.5" fill="red" /><circle cx="1062" cy="323" r="2.5" fill="red" /><circle cx="1062" cy="319" r="2.5" fill="red" /><circle cx="1063" cy="323" r="2.5" fill="red" /><circle cx="1063" cy="323" r="2.5" fill="red" /><circle cx="1063" cy="323" r="2.5" fill="red" /><circle cx="1063" cy="323" r="2.5" fill="red" /><circle cx="1065" cy="321" r="2.5" fill="red" /><circle cx="1066" cy="323" r="2.5" fill="red" /><circle cx="1066" cy="323" r="2.5" fill="red" /><circle cx="1067" cy="323" r="2.5" fill="red" /><circle cx="1069" cy="320" r="2.5" fill="red" /><circle cx="1070" cy="323" r="2.5" fill="red" /><circle cx="1070" cy="323" r="2.5" fill="red" /><circle cx="1070" cy="323" r="2.5" fill="red" /><circle cx="1070" cy="323" r="2.5" fill="red" /><circle cx="1070" cy="323" r="2.5" fill="red" /><circle cx="1070" cy="323" r="2.5" fill="red" /><circle cx="1073" cy="319" r="2.5" fill="red" /><circle cx="1073" cy="323" r="2.5" fill="red" /><circle cx="1073" cy="322" r="2.5" fill="red" /><circle cx="1073" cy="323" r="2.5" fill="red" /><circle cx="1076" cy="323" r="2.5" fill="red" /><circle cx="1084" cy="322" r="2.5" fill="red" /><circle cx="1084" cy="323" r="2.5" fill="red" /><circle cx="1085" cy="323" r="2.5" fill="red" /><circle cx="1085" cy="323" r="2.5" fill="red" /><circle cx="1087" cy="323" r="2.5" fill="red" /><circle cx="1087" cy="320" r="2.5" fill="red" /><circle cx="1087" cy="323" r="2.5" fill="red" /><circle cx="1087" cy="323" r="2.5" fill="red" /><circle cx="1090" cy="323" r="2.5" fill="red" /><circle cx="1090" cy="323" r="2.5" fill="red" /><circle cx="1091" cy="319" r="2.5" fill="red" /><circle cx="1091" cy="323" r="2.5" fill="red" /><circle cx="1092" cy="323" r="2.5" fill="red" /><circle cx="1092" cy="323" r="2.5" fill="red" /><circle cx="1094" cy="320" r="2.5" fill="red" /><circle cx="1095" cy="323" r="2.5" fill="red" /><circle cx="1098" cy="320" r="2.5" fill="red" /><circle cx="1099" cy="323" r="2.5" fill="red" /><circle cx="1099" cy="323" r="2.5" fill="red" /><circle cx="1099" cy="323" r="2.5" fill="red" /><circle cx="1109" cy="323" r="2.5" fill="red" /><circle cx="1109" cy="323" r="2.5" fill="red" /><circle cx="1109" cy="323" r="2.5" fill="red" /><circle cx="1109" cy="323" r="2.5" fill="red" /><circle cx="1110" cy="323" r="2.5" fill="red" /><circle cx="1110" cy="323" r="2.5" fill="red" /><circle cx="1110" cy="323" r="2.5" fill="red" /><circle cx="1110" cy="321" r="2.5" fill="red" /><circle cx="1110" cy="323" r="2.5" fill="red" /><circle cx="1112" cy="323" r="2.5" fill="red" /><circle cx="1112" cy="319" r="2.5" fill="red" /><circle cx="1114" cy="322" r="2.5" fill="red" /><circle cx="1116" cy="321" r="2.5" fill="red" /><circle cx="1116" cy="323" r="2.5" fill="red" /><circle cx="1120" cy="321" r="2.5" fill="red" /><circle cx="1120" cy="323" r="2.5" fill="red" /><circle cx="1120" cy="323" r="2.5" fill="red" /><circle cx="1121" cy="323" r="2.5" fill="red" /><circle cx="1121" cy="323" r="2.5" fill="red" /><circle cx="1123" cy="321" r="2.5" fill="red" /><circle cx="1123" cy="323" r="2.5" fill="red" /><circle cx="1123" cy="323" r="2.5" fill="red" /><circle cx="1123" cy="323" r="2.5" fill="red" /><circle cx="1124" cy="323" r="2.5" fill="red" /><circle cx="1124" cy="323" r="2.5" fill="red" /><circle cx="1138" cy="320" r="2.5" fill="red" /><circle cx="1141" cy="319" r="2.5" fill="red" /><circle cx="1145" cy="323" r="2.5" fill="red" /><circle cx="1145" cy="322" r="2.5" fill="red" /><circle cx="1148" cy="322" r="2.5" fill="red" /><circle cx="1148" cy="323" r="2.5" fill="red" /><circle cx="1149" cy="323" r="2.5" fill="red" /><circle cx="1149" cy="323" r="2.5" fill="red" /><circle cx="1150" cy="323" r="2.5" fill="red" /><circle cx="1163" cy="320" r="2.5" fill="red" /><circle cx="1163" cy="323" r="2.5" fill="red" /><circle cx="1163" cy="323" r="2.5" fill="red" /><circle cx="1164" cy="323" r="2.5" fill="red" /><circle cx="1164" cy="323" r="2.5" fill="red" /><circle cx="1164" cy="322" r="2.5" fill="red" /><circle cx="1166" cy="321" r="2.5" fill="red" /><circle cx="1170" cy="321" r="2.5" fill="red" /><circle cx="1171" cy="323" r="2.5" fill="red" /><circle cx="1174" cy="321" r="2.5" fill="red" /><circle cx="1175" cy="322" r="2.5" fill="red" /><circle cx="1175" cy="323" r="2.5" fill="red" /><circle cx="1188" cy="321" r="2.5" fill="red" /><circle cx="1189" cy="323" r="2.5" fill="red" /><circle cx="1192" cy="317" r="2.5" fill="red" /><circle cx="1192" cy="323" r="2.5" fill="red" /><circle cx="1193" cy="323" r="2.5" fill="red" /><circle cx="1193" cy="323" r="2.5" fill="red" /><circle cx="1193" cy="323" r="2.5" fill="red" /><circle cx="1195" cy="319" r="2.5" fill="red" /><circle cx="1196" cy="323" r="2.5" fill="red" /><circle cx="1199" cy="320" r="2.5" fill="red" /><circle cx="1211" cy="323" r="2.5" fill="red" /><circle cx="1213" cy="321" r="2.5" fill="red" /><circle cx="1214" cy="323" r="2.5" fill="red" /><circle cx="1214" cy="323" r="2.5" fill="red" /><circle cx="1214" cy="323" r="2.5" fill="red" /><circle cx="1217" cy="321" r="2.5" fill="red" /><circle cx="1217" cy="323" r="2.5" fill="red" /><circle cx="1218" cy="323" r="2.5" fill="red" /><circle cx="1218" cy="323" r="2.5" fill="red" /><circle cx="1218" cy="323" r="2.5" fill="red" /><circle cx="1221" cy="321" r="2.5" fill="red" /><circle cx="1225" cy="321" r="2.5" fill="red" /><circle cx="1236" cy="323" r="2.5" fill="red" /><circle cx="1236" cy="323" r="2.5" fill="red" /><circle cx="1239" cy="321" r="2.5" fill="red" /><circle cx="1246" cy="319" r="2.5" fill="red" /><circle cx="1247" cy="321" r="2.5" fill="red" /><circle cx="1248" cy="246" r="2.5" fill="red" /><circle cx="1249" cy="303" r="2.5" fill="red" /><circle cx="1253" cy="323" r="2.5" fill="red" /><circle cx="1253" cy="323" r="2.5" fill="red" /><circle cx="1253" cy="322" r="2.5" fill="red" /><circle cx="1253" cy="323" r="2.5" fill="red" /><circle cx="1264" cy="323" r="2.5" fill="red" /><circle cx="1265" cy="323" r="2.5" fill="red" /><circle cx="1268" cy="323" r="2.5" fill="red" /><circle cx="1268" cy="323" r="2.5" fill="red" /><circle cx="1268" cy="323" r="2.5" fill="red" /><circle cx="1271" cy="323" r="2.5" fill="red" /><circle cx="1272" cy="323" r="2.5" fill="red" /><circle cx="1272" cy="323" r="2.5" fill="red" /><circle cx="1275" cy="323" r="2.5" fill="red" /><circle cx="1287" cy="323" r="2.5" fill="red" /><circle cx="1288" cy="307" r="2.5" fill="red" /><circle cx="1289" cy="323" r="2.5" fill="red" /><circle cx="1289" cy="316" r="2.5" fill="red" /><circle cx="1290" cy="323" r="2.5" fill="red" /><circle cx="1292" cy="320" r="2.5" fill="red" /><circle cx="1293" cy="323" r="2.5" fill="red" /><circle cx="1296" cy="323" r="2.5" fill="red" /><circle cx="1311" cy="323" r="2.5" fill="red" /><circle cx="1322" cy="321" r="2.5" fill="red" /><circle cx="1322" cy="323" r="2.5" fill="red" /><circle cx="1323" cy="323" r="2.5" fill="red" /><circle cx="1337" cy="323" r="2.5" fill="red" /><circle cx="1337" cy="323" r="2.5" fill="red" /><circle cx="1340" cy="323" r="2.5" fill="red" /><circle cx="1340" cy="323" r="2.5" fill="red" /><circle cx="1341" cy="323" r="2.5" fill="red" /><circle cx="1341" cy="323" r="2.5" fill="red" /><circle cx="1343" cy="323" r="2.5" fill="red" /><circle cx="1343" cy="323" r="2.5" fill="red" /><circle cx="1343" cy="323" r="2.5" fill="red" /><circle cx="1344" cy="323" r="2.5" fill="red" /><circle cx="1344" cy="323" r="2.5" fill="red" /><circle cx="1347" cy="323" r="2.5" fill="red" /><circle cx="1351" cy="323" r="2.5" fill="red" /><circle cx="1351" cy="323" r="2.5" fill="red" /><circle cx="1351" cy="323" r="2.5" fill="red" /><circle cx="1353" cy="323" r="2.5" fill="red" /><circle cx="1353" cy="322" r="2.5" fill="red" /><circle cx="1354" cy="321" r="2.5" fill="red" /><circle cx="1354" cy="323" r="2.5" fill="red" /><circle cx="1354" cy="321" r="2.5" fill="red" /><circle cx="1361" cy="310" r="2.5" fill="red" /><circle cx="1361" cy="319" r="2.5" fill="red" /><circle cx="1361" cy="323" r="2.5" fill="red" /><circle cx="1362" cy="323" r="2.5" fill="red" /><circle cx="1362" cy="322" r="2.5" fill="red" /><circle cx="1362" cy="321" r="2.5" fill="red" /><circle cx="1365" cy="323" r="2.5" fill="red" /><circle cx="1365" cy="323" r="2.5" fill="red" /><circle cx="1366" cy="323" r="2.5" fill="red" /><circle cx="1366" cy="319" r="2.5" fill="red" /><circle cx="1366" cy="323" r="2.5" fill="red" /><circle cx="1367" cy="322" r="2.5" fill="red" /><circle cx="1368" cy="323" r="2.5" fill="red" /><circle cx="1368" cy="322" r="2.5" fill="red" /><circle cx="1376" cy="323" r="2.5" fill="red" /><circle cx="1376" cy="323" r="2.5" fill="red" /><circle cx="1376" cy="321" r="2.5" fill="red" /><circle cx="1377" cy="323" r="2.5" fill="red" /><circle cx="1379" cy="323" r="2.5" fill="red" /></svg>