<svg xmlns="http://www.w3.org/2000/svg" width="1400" height="380"><line x1="60" y1="20" x2="60" y2="325" stroke="#e5e7eb" stroke-width="1" /><line x1="172" y1="20" x2="172" y2="325" stroke="#e5e7eb" stroke-width="1" /><line x1="273" y1="20" x2="273" y2="325" stroke="#e5e7eb" stroke-width="1" /><line x1="385" y1="20" x2="385" y2="325" stroke="#e5e7eb" stroke-width="1" /><line x1="493" y1="20" x2="493" y2="325" stroke="#e5e7eb" stroke-width="1" /><line x1="606" y1="20" x2="606" y2="325" stroke="#e5e7eb" stroke-width="1" /><line x1="714" y1="20" x2="714" y2="325" stroke="#e5e7eb" stroke-width="1" /><line x1="826" y1="20" x2="826" y2="325" stroke="#e5e7eb" stroke-width="1" /><line x1="938" y1="20" x2="938" y2="325" stroke="#e5e7eb" stroke-width="1" /><line x1="1047" y1="20" x2="1047" y2="325" stroke="#e5e7eb" stroke-width="1" /><line x1="1159" y1="20" x2="1159" y2="325" stroke="#e5e7eb" stroke-width="1" /><line x1="1267" y1="20" x2="1267" y2="325" stroke="#e5e7eb" stroke-width="1" /><line x1="60" y1="309" x2="1380" y2="309" stroke="#e5e7eb" stroke-width="1" /><line x1="60" y1="275" x2="1380" y2="275" stroke="#e5e7eb" stroke-width="1" /><line x1="60" y1="224" x2="1380" y2="224" stroke="#e5e7eb" stroke-width="1" /><line x1="60" y1="122" x2="1380" y2="122" stroke="#e5e7eb" stroke-width="1" /><line x1="60" y1="20" x2="1380" y2="20" stroke="#e5e7eb" stroke-width="1" /><line x1="60" y1="325" x2="1380" y2="325" stroke="black" stroke-width="1"/><line x1="60" y1="20" x2="60" y2="325" stroke="black" stroke-width="1"/><text x="720.0" y="362" font-size="12" text-anchor="middle">Time (UTC, 2023)</text><text x="18" y="172.5" font-size="12" transform="rotate(-90, 18, 172.5)" text-anchor="middle">Gap duration (minutes)</text><line x1="60" y1="325" x2="60" y2="330" stroke="black" stroke-width="1"/><text x="60" y="343" font-size="10" text-anchor="middle">Jan</text><line x1="172" y1="325" x2="172" y2="330" stroke="black" stroke-width="1"/><text x="172" y="343" font-size="10" text-anchor="middle">Feb</text><line x1="273" y1="325" x2="273" y2="330" stroke="black" stroke-width="1"/><text x="273" y="343" font-size="10" text-anchor="middle">Mar</text><line x1="385" y1="325" x2="385" y2="330" stroke="black" stroke-width="1"/><text x="385" y="343" font-size="10" text-anchor="middle">Apr</text><line x1="493" y1="325" x2="493" y2="330" stroke="black" stroke-width="1"/><text x="493" y="343" font-size="10" text-anchor="middle">May</text><line x1="606" y1="325" x2="606" y2="330" stroke="black" stroke-width="1"/><text x="606" y="343" font-size="10" text-anchor="middle">Jun</text><line x1="714" y1="325" x2="714" y2="330" stroke="black" stroke-width="1"/><text x="714" y="343" font-size="10" text-anchor="middle">Jul</text><line x1="826" y1="325" x2="826" y2="330" stroke="black" stroke-width="1"/><text x="826" y="343" font-size="10" text-anchor="middle">Aug</text><line x1="938" y1="325" x2="938" y2="330" stroke="black" stroke-width="1"/><text x="938" y="343" font-size="10" text-anchor="middle">Sep</text><line x1="1047" y1="325" x2="1047" y2="330" stroke="black" stroke-width="1"/><text x="1047" y="343" font-size="10" text-anchor="middle">Oct</text><line x1="1159" y1="325" x2="1159" y2="330" stroke="black" stroke-width="1"/><text x="1159" y="343" font-size="10" text-anchor="middle">Nov</text><line x1="1267" y1="325" x2="1267" y2="330" stroke="black" stroke-width="1"/><text x="1267" y="343" font-size="10" text-anchor="middle">Dec</text><line x1="55" y1="309" x2="60" y2="309" stroke="black" stroke-width="1"/><text x="52" y="312" font-size="10" text-anchor="end">10</text><line x1="55" y1="275" x2="60" y2="275" stroke="black" stroke-width="1"/><text x="52" y="278" font-size="10" text-anchor="end">30</text><line x1="55" y1="224" x2="60" y2="224" stroke="black" stroke-width="1"/><text x="52" y="227" font-size="10" text-anchor="end">60</text><line x1="55" y1="122" x2="60" y2="122" stroke="black" stroke-width="1"/><text x="52" y="125" font-size="10" text-anchor="end">120</text><line x1="55" y1="20" x2="60" y2="20" stroke="black" stroke-width="1"/><text x="52" y="23" font-size="10" text-anchor="end">180</text><circle cx="142" cy="309" r="2.5" fill="red" /><circle cx="155" cy="224" r="2.5" fill="red" /><circle cx="179" cy="309" r="2.5" fill="red" /><circle cx="179" cy="309" r="2.5" fill="red" /><circle cx="240" cy="224" r="2.5" fill="red" /><circle cx="242" cy="224" r="2.5" fill="red" /><circle cx="242" cy="224" r="2.5" fill="red" /><circle cx="243" cy="224" r="2.5" fill="red" /><circle cx="243" cy="224" r="2.5" fill="red" /><circle cx="243" cy="224" r="2.5" fill="red" /><circle cx="243" cy="224" r="2.5" fill="red" /><circle cx="244" cy="309" r="2.5" fill="red" /><circle cx="244" cy="224" r="2.5" fill="red" /><circle cx="246" cy="224" r="2.5" fill="red" /><circle cx="246" cy="224" r="2.5" fill="red" /><circle cx="246" cy="224" r="2.5" fill="red" /><circle cx="247" cy="224" r="2.5" fill="red" /><circle cx="247" cy="224" r="2.5" fill="red" /><circle cx="247" cy="224" r="2.5" fill="red" /><circle cx="249" cy="224" r="2.5" fill="red" /><circle cx="250" cy="224" r="2.5" fill="red" /><circle cx="250" cy="122" r="2.5" fill="red" /><circle cx="250" cy="224" r="2.5" fill="red" /><circle cx="251" cy="224" r="2.5" fill="red" /><circle cx="251" cy="224" r="2.5" fill="red" /><circle cx="253" cy="224" r="2.5" fill="red" /><circle cx="253" cy="224" r="2.5" fill="red" /><circle cx="254" cy="224" r="2.5" fill="red" /><circle cx="254" cy="224" r="2.5" fill="red" /><circle cx="254" cy="224" r="2.5" fill="red" /><circle cx="255" cy="224" r="2.5" fill="red" /><circle cx="256" cy="224" r="2.5" fill="red" /><circle cx="257" cy="224" r="2.5" fill="red" /><circle cx="257" cy="224" r="2.5" fill="red" /><circle cx="258" cy="224" r="2.5" fill="red" /><circle cx="265" cy="224" r="2.5" fill="red" /><circle cx="267" cy="224" r="2.5" fill="red" /><circle cx="268" cy="224" r="2.5" fill="red" /><circle cx="268" cy="224" r="2.5" fill="red" /><circle cx="268" cy="224" r="2.5" fill="red" /><circle cx="269" cy="224" r="2.5" fill="red" /><circle cx="269" cy="224" r="2.5" fill="red" /><circle cx="269" cy="224" r="2.5" fill="red" /><circle cx="271" cy="224" r="2.5" fill="red" /><circle cx="271" cy="224" r="2.5" fill="red" /><circle cx="272" cy="224" r="2.5" fill="red" /><circle cx="272" cy="224" r="2.5" fill="red" /><circle cx="272" cy="224" r="2.5" fill="red" /><circle cx="272" cy="224" r="2.5" fill="red" /><circle cx="273" cy="224" r="2.5" fill="red" /><circle cx="274" cy="224" r="2.5" fill="red" /><circle cx="275" cy="224" r="2.5" fill="red" /><circle cx="275" cy="224" r="2.5" fill="red" /><circle cx="276" cy="224" r="2.5" fill="red" /><circle cx="276" cy="224" r="2.5" fill="red" /><circle cx="276" cy="224" r="2.5" fill="red" /><circle cx="278" cy="122" r="2.5" fill="red" /><circle cx="279" cy="224" r="2.5" fill="red" /><circle cx="279" cy="224" r="2.5" fill="red" /><circle cx="279" cy="122" r="2.5" fill="red" /><circle cx="280" cy="224" r="2.5" fill="red" /><circle cx="282" cy="224" r="2.5" fill="red" /><circle cx="282" cy="224" r="2.5" fill="red" /><circle cx="283" cy="224" r="2.5" fill="red" /><circle cx="283" cy="224" r="2.5" fill="red" /><circle cx="292" cy="224" r="2.5" fill="red" /><circle cx="293" cy="122" r="2.5" fill="red" /><circle cx="293" cy="224" r="2.5" fill="red" /><circle cx="294" cy="224" r="2.5" fill="red" /><circle cx="294" cy="224" r="2.5" fill="red" /><circle cx="294" cy="224" r="2.5" fill="red" /><circle cx="296" cy="122" r="2.5" fill="red" /><circle cx="297" cy="122" r="2.5" fill="red" /><circle cx="297" cy="122" r="2.5" fill="red" /><circle cx="298" cy="224" r="2.5" fill="red" /><circle cx="300" cy="224" r="2.5" fill="red" /><circle cx="300" cy="224" r="2.5" fill="red" /><circle cx="300" cy="122" r="2.5" fill="red" /><circle cx="301" cy="224" r="2.5" fill="red" /><circle cx="301" cy="224" r="2.5" fill="red" /><circle cx="302" cy="224" r="2.5" fill="red" /><circle cx="303" cy="224" r="2.5" fill="red" /><circle cx="304" cy="224" r="2.5" fill="red" /><circle cx="304" cy="215" r="2.5" fill="red" /><circle cx="304" cy="224" r="2.5" fill="red" /><circle cx="305" cy="122" r="2.5" fill="red" /><circle cx="305" cy="224" r="2.5" fill="red" /><circle cx="307" cy="224" r="2.5" fill="red" /><circle cx="308" cy="224" r="2.5" fill="red" /><circle cx="308" cy="224" r="2.5" fill="red" /><circle cx="308" cy="224" r="2.5" fill="red" /><circle cx="316" cy="122" r="2.5" fill="red" /><circle cx="318" cy="224" r="2.5" fill="red" /><circle cx="318" cy="122" r="2.5" fill="red" /><circle cx="319" cy="122" r="2.5" fill="red" /><circle cx="319" cy="122" r="2.5" fill="red" /><circle cx="321" cy="224" r="2.5" fill="red" /><circle cx="322" cy="122" r="2.5" fill="red" /><circle cx="322" cy="122" r="2.5" fill="red" /><circle cx="323" cy="224" r="2.5" fill="red" /><circle cx="323" cy="224" r="2.5" fill="red" /><circle cx="326" cy="224" r="2.5" fill="red" /><circle cx="326" cy="224" r="2.5" fill="red" /><circle cx="326" cy="224" r="2.5" fill="red" /><circle cx="327" cy="224" r="2.5" fill="red" /><circle cx="327" cy="300" r="2.5" fill="red" /><circle cx="327" cy="309" r="2.5" fill="red" /><circle cx="327" cy="224" r="2.5" fill="red" /><circle cx="329" cy="224" r="2.5" fill="red" /><circle cx="329" cy="224" r="2.5" fill="red" /><circle cx="330" cy="122" r="2.5" fill="red" /><circle cx="330" cy="224" r="2.5" fill="red" /><circle cx="331" cy="224" r="2.5" fill="red" /><circle cx="332" cy="224" r="2.5" fill="red" /><circle cx="333" cy="224" r="2.5" fill="red" /><circle cx="333" cy="224" r="2.5" fill="red" /><circle cx="333" cy="224" r="2.5" fill="red" /><circle cx="334" cy="224" r="2.5" fill="red" /><circle cx="341" cy="224" r="2.5" fill="red" /><circle cx="343" cy="224" r="2.5" fill="red" /><circle cx="344" cy="224" r="2.5" fill="red" /><circle cx="344" cy="224" r="2.5" fill="red" /><circle cx="344" cy="224" r="2.5" fill="red" /><circle cx="344" cy="224" r="2.5" fill="red" /><circle cx="345" cy="224" r="2.5" fill="red" /><circle cx="345" cy="224" r="2.5" fill="red" /><circle cx="347" cy="224" r="2.5" fill="red" /><circle cx="347" cy="224" r="2.5" fill="red" /><circle cx="347" cy="224" r="2.5" fill="red" /><circle cx="348" cy="224" r="2.5" fill="red" /><circle cx="348" cy="224" r="2.5" fill="red" /><circle cx="348" cy="224" r="2.5" fill="red" /><circle cx="349" cy="224" r="2.5" fill="red" /><circle cx="350" cy="224" r="2.5" fill="red" /><circle cx="351" cy="224" r="2.5" fill="red" /><circle cx="351" cy="224" r="2.5" fill="red" /><circle cx="351" cy="224" r="2.5" fill="red" /><circle cx="352" cy="224" r="2.5" fill="red" /><circle cx="352" cy="224" r="2.5" fill="red" /><circle cx="354" cy="224" r="2.5" fill="red" /><circle cx="354" cy="224" r="2.5" fill="red" /><circle cx="355" cy="224" r="2.5" fill="red" /><circle cx="355" cy="224" r="2.5" fill="red" /><circle cx="355" cy="20" r="2.5" fill="red" /><circle cx="358" cy="224" r="2.5" fill="red" /><circle cx="358" cy="122" r="2.5" fill="red" /><circle cx="358" cy="224" r="2.5" fill="red" /><circle cx="359" cy="224" r="2.5" fill="red" /><circle cx="367" cy="224" r="2.5" fill="red" /><circle cx="369" cy="122" r="2.5" fill="red" /><circle cx="369" cy="224" r="2.5" fill="red" /><circle cx="370" cy="224" r="2.5" fill="red" /><circle cx="370" cy="122" r="2.5" fill="red" /><circle cx="370" cy="224" r="2.5" fill="red" /><circle cx="372" cy="224" r="2.5" fill="red" /><circle cx="372" cy="224" r="2.5" fill="red" /><circle cx="373" cy="224" r="2.5" fill="red" /><circle cx="373" cy="224" r="2.5" fill="red" /><circle cx="373" cy="224" r="2.5" fill="red" /><circle cx="374" cy="224" r="2.5" fill="red" /><circle cx="374" cy="224" r="2.5" fill="red" /><circle cx="376" cy="224" r="2.5" fill="red" /><circle cx="376" cy="224" r="2.5" fill="red" /><circle cx="376" cy="224" r="2.5" fill="red" /><circle cx="377" cy="224" r="2.5" fill="red" /><circle cx="377" cy="224" r="2.5" fill="red" /><circle cx="377" cy="224" r="2.5" fill="red" /><circle cx="378" cy="224" r="2.5" fill="red" /><circle cx="379" cy="224" r="2.5" fill="red" /><circle cx="380" cy="224" r="2.5" fill="red" /><circle cx="380" cy="224" r="2.5" fill="red" /><circle cx="380" cy="224" r="2.5" fill="red" /><circle cx="381" cy="224" r="2.5" fill="red" /><circle cx="381" cy="224" r="2.5" fill="red" /><circle cx="381" cy="309" r="2.5" fill="red" /><circle cx="381" cy="224" r="2.5" fill="red" /><circle cx="383" cy="224" r="2.5" fill="red" /><circle cx="384" cy="224" r="2.5" fill="red" /><circle cx="384" cy="224" r="2.5" fill="red" /><circle cx="384" cy="224" r="2.5" fill="red" /><circle cx="392" cy="224" r="2.5" fill="red" /><circle cx="395" cy="122" r="2.5" fill="red" /><circle cx="396" cy="122" r="2.5" fill="red" /><circle cx="398" cy="224" r="2.5" fill="red" /><circle cx="398" cy="122" r="2.5" fill="red" /><circle cx="399" cy="224" r="2.5" fill="red" /><circle cx="399" cy="224" r="2.5" fill="red" /><circle cx="399" cy="224" r="2.5" fill="red" /><circle cx="399" cy="224" r="2.5" fill="red" /><circle cx="402" cy="224" r="2.5" fill="red" /><circle cx="402" cy="224" r="2.5" fill="red" /><circle cx="402" cy="224" r="2.5" fill="red" /><circle cx="403" cy="224" r="2.5" fill="red" /><circle cx="406" cy="309" r="2.5" fill="red" /><circle cx="417" cy="224" r="2.5" fill="red" /><circle cx="419" cy="224" r="2.5" fill="red" /><circle cx="420" cy="122" r="2.5" fill="red" /><circle cx="420" cy="122" r="2.5" fill="red" /><circle cx="421" cy="224" r="2.5" fill="red" /><circle cx="421" cy="224" r="2.5" fill="red" /><circle cx="423" cy="224" r="2.5" fill="red" /><circle cx="423" cy="224" r="2.5" fill="red" /><circle cx="424" cy="122" r="2.5" fill="red" /><circle cx="424" cy="224" r="2.5" fill="red" /><circle cx="424" cy="224" r="2.5" fill="red" /><circle cx="425" cy="224" r="2.5" fill="red" /><circle cx="427" cy="122" r="2.5" fill="red" /><circle cx="427" cy="224" r="2.5" fill="red" /><circle cx="428" cy="224" r="2.5" fill="red" /><circle cx="428" cy="224" r="2.5" fill="red" /><circle cx="428" cy="224" r="2.5" fill="red" /><circle cx="430" cy="224" r="2.5" fill="red" /><circle cx="430" cy="224" r="2.5" fill="red" /><circle cx="431" cy="224" r="2.5" fill="red" /><circle cx="431" cy="224" r="2.5" fill="red" /><circle cx="431" cy="224" r="2.5" fill="red" /><circle cx="432" cy="224" r="2.5" fill="red" /><circle cx="432" cy="224" r="2.5" fill="red" /><circle cx="434" cy="122" r="2.5" fill="red" /><circle cx="435" cy="224" r="2.5" fill="red" /><circle cx="443" cy="224" r="2.5" fill="red" /><circle cx="445" cy="224" r="2.5" fill="red" /><circle cx="445" cy="224" r="2.5" fill="red" /><circle cx="445" cy="224" r="2.5" fill="red" /><circle cx="445" cy="224" r="2.5" fill="red" /><circle cx="446" cy="224" r="2.5" fill="red" /><circle cx="446" cy="224" r="2.5" fill="red" /><circle cx="446" cy="224" r="2.5" fill="red" /><circle cx="448" cy="224" r="2.5" fill="red" /><circle cx="449" cy="224" r="2.5" fill="red" /><circle cx="449" cy="224" r="2.5" fill="red" /><circle cx="449" cy="224" r="2.5" fill="red" /><circle cx="449" cy="224" r="2.5" fill="red" /><circle cx="450" cy="224" r="2.5" fill="red" /><circle cx="450" cy="224" r="2.5" fill="red" /><circle cx="452" cy="122" r="2.5" fill="red" /><circle cx="452" cy="122" r="2.5" fill="red" /><circle cx="453" cy="224" r="2.5" fill="red" /><circle cx="453" cy="122" r="2.5" fill="red" /><circle cx="455" cy="224" r="2.5" fill="red" /><circle cx="456" cy="122" r="2.5" fill="red" /><circle cx="456" cy="224" r="2.5" fill="red" /><circle cx="457" cy="224" r="2.5" fill="red" /><circle cx="457" cy="122" r="2.5" fill="red" /><circle cx="459" cy="122" r="2.5" fill="red" /><circle cx="460" cy="224" r="2.5" fill="red" /><circle cx="460" cy="224" r="2.5" fill="red" /><circle cx="460" cy="224" r="2.5" fill="red" /><circle cx="468" cy="224" r="2.5" fill="red" /><circle cx="470" cy="224" r="2.5" fill="red" /><circle cx="470" cy="224" r="2.5" fill="red" /><circle cx="470" cy="224" r="2.5" fill="red" /><circle cx="471" cy="224" r="2.5" fill="red" /><circle cx="471" cy="224" r="2.5" fill="red" /><circle cx="471" cy="224" r="2.5" fill="red" /><circle cx="472" cy="224" r="2.5" fill="red" /><circle cx="473" cy="224" r="2.5" fill="red" /><circle cx="474" cy="224" r="2.5" fill="red" /><circle cx="474" cy="224" r="2.5" fill="red" /><circle cx="474" cy="224" r="2.5" fill="red" /><circle cx="475" cy="224" r="2.5" fill="red" /><circle cx="475" cy="224" r="2.5" fill="red" /><circle cx="475" cy="224" r="2.5" fill="red" /><circle cx="477" cy="224" r="2.5" fill="red" /><circle cx="478" cy="224" r="2.5" fill="red" /><circle cx="478" cy="224" r="2.5" fill="red" /><circle cx="478" cy="224" r="2.5" fill="red" /><circle cx="478" cy="224" r="2.5" fill="red" /><circle cx="479" cy="224" r="2.5" fill="red" /><circle cx="479" cy="224" r="2.5" fill="red" /><circle cx="481" cy="224" r="2.5" fill="red" /><circle cx="481" cy="224" r="2.5" fill="red" /><circle cx="481" cy="224" r="2.5" fill="red" /><circle cx="482" cy="224" r="2.5" fill="red" /><circle cx="482" cy="224" r="2.5" fill="red" /><circle cx="482" cy="122" r="2.5" fill="red" /><circle cx="484" cy="224" r="2.5" fill="red" /><circle cx="485" cy="224" r="2.5" fill="red" /><circle cx="485" cy="224" r="2.5" fill="red" /><circle cx="485" cy="224" r="2.5" fill="red" /><circle cx="485" cy="224" r="2.5" fill="red" /><circle cx="493" cy="224" r="2.5" fill="red" /><circle cx="496" cy="122" r="2.5" fill="red" /><circle cx="496" cy="122" r="2.5" fill="red" /><circle cx="497" cy="309" r="2.5" fill="red" /><circle cx="497" cy="224" r="2.5" fill="red" /><circle cx="499" cy="224" r="2.5" fill="red" /><circle cx="499" cy="224" r="2.5" fill="red" /><circle cx="499" cy="224" r="2.5" fill="red" /><circle cx="500" cy="224" r="2.5" fill="red" /><circle cx="500" cy="224" r="2.5" fill="red" /><circle cx="500" cy="224" r="2.5" fill="red" /><circle cx="501" cy="224" r="2.5" fill="red" /><circle cx="503" cy="224" r="2.5" fill="red" /><circle cx="503" cy="224" r="2.5" fill="red" /><circle cx="504" cy="224" r="2.5" fill="red" /><circle cx="504" cy="224" r="2.5" fill="red" /><circle cx="504" cy="224" r="2.5" fill="red" /><circle cx="506" cy="224" r="2.5" fill="red" /><circle cx="507" cy="224" r="2.5" fill="red" /><circle cx="507" cy="224" r="2.5" fill="red" /><circle cx="507" cy="224" r="2.5" fill="red" /><circle cx="507" cy="224" r="2.5" fill="red" /><circle cx="508" cy="224" r="2.5" fill="red" /><circle cx="510" cy="224" r="2.5" fill="red" /><circle cx="510" cy="224" r="2.5" fill="red" /><circle cx="511" cy="224" r="2.5" fill="red" /><circle cx="511" cy="224" r="2.5" fill="red" /><circle cx="519" cy="224" r="2.5" fill="red" /><circle cx="521" cy="224" r="2.5" fill="red" /><circle cx="521" cy="224" r="2.5" fill="red" /><circle cx="521" cy="224" r="2.5" fill="red" /><circle cx="521" cy="224" r="2.5" fill="red" /><circle cx="522" cy="224" r="2.5" fill="red" /><circle cx="522" cy="224" r="2.5" fill="red" /><circle cx="522" cy="224" r="2.5" fill="red" /><circle cx="524" cy="224" r="2.5" fill="red" /><circle cx="525" cy="224" r="2.5" fill="red" /><circle cx="525" cy="224" r="2.5" fill="red" /><circle cx="525" cy="224" r="2.5" fill="red" /><circle cx="525" cy="224" r="2.5" fill="red" /><circle cx="526" cy="224" r="2.5" fill="red" /><circle cx="526" cy="224" r="2.5" fill="red" /><circle cx="528" cy="224" r="2.5" fill="red" /><circle cx="528" cy="224" r="2.5" fill="red" /><circle cx="529" cy="224" r="2.5" fill="red" /><circle cx="529" cy="224" r="2.5" fill="red" /><circle cx="529" cy="122" r="2.5" fill="red" /><circle cx="531" cy="224" r="2.5" fill="red" /><circle cx="532" cy="224" r="2.5" fill="red" /><circle cx="532" cy="122" r="2.5" fill="red" /><circle cx="533" cy="122" r="2.5" fill="red" /><circle cx="533" cy="224" r="2.5" fill="red" /><circle cx="535" cy="224" r="2.5" fill="red" /><circle cx="535" cy="122" r="2.5" fill="red" /><circle cx="536" cy="122" r="2.5" fill="red" /><circle cx="544" cy="224" r="2.5" fill="red" /><circle cx="546" cy="224" r="2.5" fill="red" /><circle cx="546" cy="224" r="2.5" fill="red" /><circle cx="547" cy="122" r="2.5" fill="red" /><circle cx="547" cy="122" r="2.5" fill="red" /><circle cx="549" cy="224" r="2.5" fill="red" /><circle cx="550" cy="224" r="2.5" fill="red" /><circle cx="550" cy="224" r="2.5" fill="red" /><circle cx="550" cy="122" r="2.5" fill="red" /><circle cx="551" cy="224" r="2.5" fill="red" /><circle cx="551" cy="309" r="2.5" fill="red" /><circle cx="551" cy="224" r="2.5" fill="red" /><circle cx="553" cy="224" r="2.5" fill="red" /><circle cx="553" cy="224" r="2.5" fill="red" /><circle cx="554" cy="224" r="2.5" fill="red" /><circle cx="554" cy="224" r="2.5" fill="red" /><circle cx="554" cy="224" r="2.5" fill="red" /><circle cx="555" cy="224" r="2.5" fill="red" /><circle cx="555" cy="309" r="2.5" fill="red" /><circle cx="555" cy="224" r="2.5" fill="red" /><circle cx="557" cy="224" r="2.5" fill="red" /><circle cx="557" cy="224" r="2.5" fill="red" /><circle cx="557" cy="122" r="2.5" fill="red" /><circle cx="558" cy="224" r="2.5" fill="red" /><circle cx="558" cy="224" r="2.5" fill="red" /><circle cx="558" cy="224" r="2.5" fill="red" /><circle cx="560" cy="224" r="2.5" fill="red" /><circle cx="561" cy="224" r="2.5" fill="red" /><circle cx="561" cy="224" r="2.5" fill="red" /><circle cx="561" cy="224" r="2.5" fill="red" /><circle cx="562" cy="224" r="2.5" fill="red" /><circle cx="569" cy="224" r="2.5" fill="red" /><circle cx="571" cy="224" r="2.5" fill="red" /><circle cx="571" cy="224" r="2.5" fill="red" /><circle cx="572" cy="224" r="2.5" fill="red" /><circle cx="572" cy="224" r="2.5" fill="red" /><circle cx="572" cy="224" r="2.5" fill="red" /><circle cx="573" cy="224" r="2.5" fill="red" /><circle cx="573" cy="224" r="2.5" fill="red" /><circle cx="575" cy="224" r="2.5" fill="red" /><circle cx="575" cy="224" r="2.5" fill="red" /><circle cx="575" cy="224" r="2.5" fill="red" /><circle cx="576" cy="224" r="2.5" fill="red" /><circle cx="576" cy="224" r="2.5" fill="red" /><circle cx="577" cy="122" r="2.5" fill="red" /><circle cx="578" cy="224" r="2.5" fill="red" /><circle cx="579" cy="224" r="2.5" fill="red" /><circle cx="579" cy="224" r="2.5" fill="red" /><circle cx="579" cy="224" r="2.5" fill="red" /><circle cx="580" cy="224" r="2.5" fill="red" /><circle cx="580" cy="224" r="2.5" fill="red" /><circle cx="580" cy="224" r="2.5" fill="red" /><circle cx="582" cy="224" r="2.5" fill="red" /><circle cx="582" cy="224" r="2.5" fill="red" /><circle cx="583" cy="224" r="2.5" fill="red" /><circle cx="583" cy="122" r="2.5" fill="red" /><circle cx="584" cy="122" r="2.5" fill="red" /><circle cx="586" cy="122" r="2.5" fill="red" /><circle cx="587" cy="224" r="2.5" fill="red" /><circle cx="595" cy="224" r="2.5" fill="red" /><circle cx="597" cy="122" r="2.5" fill="red" /><circle cx="597" cy="224" r="2.5" fill="red" /><circle cx="597" cy="224" r="2.5" fill="red" /><circle cx="598" cy="224" r="2.5" fill="red" /><circle cx="598" cy="224" r="2.5" fill="red" /><circle cx="598" cy="224" r="2.5" fill="red" /><circle cx="600" cy="224" r="2.5" fill="red" /><circle cx="600" cy="224" r="2.5" fill="red" /><circle cx="601" cy="224" r="2.5" fill="red" /><circle cx="601" cy="122" r="2.5" fill="red" /><circle cx="602" cy="224" r="2.5" fill="red" /><circle cx="602" cy="224" r="2.5" fill="red" /><circle cx="604" cy="224" r="2.5" fill="red" /><circle cx="604" cy="224" r="2.5" fill="red" /><circle cx="604" cy="224" r="2.5" fill="red" /><circle cx="605" cy="224" r="2.5" fill="red" /><circle cx="605" cy="224" r="2.5" fill="red" /><circle cx="605" cy="224" r="2.5" fill="red" /><circle cx="605" cy="309" r="2.5" fill="red" /><circle cx="605" cy="224" r="2.5" fill="red" /><circle cx="607" cy="224" r="2.5" fill="red" /><circle cx="608" cy="224" r="2.5" fill="red" /><circle cx="608" cy="224" r="2.5" fill="red" /><circle cx="609" cy="224" r="2.5" fill="red" /><circle cx="609" cy="224" r="2.5" fill="red" /><circle cx="609" cy="224" r="2.5" fill="red" /><circle cx="611" cy="224" r="2.5" fill="red" /><circle cx="612" cy="224" r="2.5" fill="red" /><circle cx="612" cy="224" r="2.5" fill="red" /><circle cx="620" cy="224" r="2.5" fill="red" /><circle cx="622" cy="224" r="2.5" fill="red" /><circle cx="623" cy="224" r="2.5" fill="red" /><circle cx="623" cy="224" r="2.5" fill="red" /><circle cx="623" cy="224" r="2.5" fill="red" /><circle cx="624" cy="224" r="2.5" fill="red" /><circle cx="625" cy="224" r="2.5" fill="red" /><circle cx="626" cy="122" r="2.5" fill="red" /><circle cx="626" cy="224" r="2.5" fill="red" /><circle cx="627" cy="224" r="2.5" fill="red" /><circle cx="627" cy="224" r="2.5" fill="red" /><circle cx="627" cy="224" r="2.5" fill="red" /><circle cx="629" cy="224" r="2.5" fill="red" /><circle cx="629" cy="122" r="2.5" fill="red" /><circle cx="630" cy="224" r="2.5" fill="red" /><circle cx="630" cy="224" r="2.5" fill="red" /><circle cx="630" cy="224" r="2.5" fill="red" /><circle cx="631" cy="224" r="2.5" fill="red" /><circle cx="633" cy="224" r="2.5" fill="red" /><circle cx="633" cy="122" r="2.5" fill="red" /><circle cx="633" cy="224" r="2.5" fill="red" /><circle cx="634" cy="224" r="2.5" fill="red" /><circle cx="634" cy="224" r="2.5" fill="red" /><circle cx="634" cy="224" r="2.5" fill="red" /><circle cx="636" cy="224" r="2.5" fill="red" /><circle cx="637" cy="224" r="2.5" fill="red" /><circle cx="637" cy="224" r="2.5" fill="red" /><circle cx="637" cy="122" r="2.5" fill="red" /><circle cx="645" cy="224" r="2.5" fill="red" /><circle cx="647" cy="224" r="2.5" fill="red" /><circle cx="647" cy="224" r="2.5" fill="red" /><circle cx="648" cy="224" r="2.5" fill="red" /><circle cx="648" cy="224" r="2.5" fill="red" /><circle cx="648" cy="224" r="2.5" fill="red" /><circle cx="649" cy="224" r="2.5" fill="red" /><circle cx="649" cy="224" r="2.5" fill="red" /><circle cx="651" cy="224" r="2.5" fill="red" /><circle cx="651" cy="224" r="2.5" fill="red" /><circle cx="652" cy="224" r="2.5" fill="red" /><circle cx="652" cy="224" r="2.5" fill="red" /><circle cx="652" cy="224" r="2.5" fill="red" /><circle cx="653" cy="224" r="2.5" fill="red" /><circle cx="655" cy="224" r="2.5" fill="red" /><circle cx="655" cy="224" r="2.5" fill="red" /><circle cx="656" cy="224" r="2.5" fill="red" /><circle cx="656" cy="224" r="2.5" fill="red" /><circle cx="656" cy="224" r="2.5" fill="red" /><circle cx="658" cy="224" r="2.5" fill="red" /><circle cx="659" cy="224" r="2.5" fill="red" /><circle cx="659" cy="122" r="2.5" fill="red" /><circle cx="660" cy="224" r="2.5" fill="red" /><circle cx="660" cy="224" r="2.5" fill="red" /><circle cx="661" cy="224" r="2.5" fill="red" /><circle cx="662" cy="224" r="2.5" fill="red" /><circle cx="662" cy="224" r="2.5" fill="red" /><circle cx="663" cy="122" r="2.5" fill="red" /><circle cx="672" cy="224" r="2.5" fill="red" /><circle cx="673" cy="224" r="2.5" fill="red" /><circle cx="673" cy="224" r="2.5" fill="red" /><circle cx="673" cy="224" r="2.5" fill="red" /><circle cx="674" cy="224" r="2.5" fill="red" /><circle cx="674" cy="224" r="2.5" fill="red" /><circle cx="674" cy="309" r="2.5" fill="red" /><circle cx="674" cy="309" r="2.5" fill="red" /><circle cx="674" cy="224" r="2.5" fill="red" /><circle cx="676" cy="122" r="2.5" fill="red" /><circle cx="677" cy="224" r="2.5" fill="red" /><circle cx="677" cy="224" r="2.5" fill="red" /><circle cx="677" cy="122" r="2.5" fill="red" /><circle cx="678" cy="309" r="2.5" fill="red" /><circle cx="678" cy="224" r="2.5" fill="red" /><circle cx="679" cy="224" r="2.5" fill="red" /><circle cx="680" cy="224" r="2.5" fill="red" /><circle cx="680" cy="224" r="2.5" fill="red" /><circle cx="680" cy="224" r="2.5" fill="red" /><circle cx="681" cy="224" r="2.5" fill="red" /><circle cx="681" cy="224" r="2.5" fill="red" /><circle cx="681" cy="224" r="2.5" fill="red" /><circle cx="682" cy="224" r="2.5" fill="red" /><circle cx="683" cy="122" r="2.5" fill="red" /><circle cx="684" cy="224" r="2.5" fill="red" /><circle cx="684" cy="224" r="2.5" fill="red" /><circle cx="684" cy="224" r="2.5" fill="red" /><circle cx="685" cy="224" r="2.5" fill="red" /><circle cx="685" cy="224" r="2.5" fill="red" /><circle cx="687" cy="224" r="2.5" fill="red" /><circle cx="687" cy="224" r="2.5" fill="red" /><circle cx="688" cy="224" r="2.5" fill="red" /><circle cx="688" cy="224" r="2.5" fill="red" /><circle cx="696" cy="224" r="2.5" fill="red" /><circle cx="698" cy="224" r="2.5" fill="red" /><circle cx="698" cy="224" r="2.5" fill="red" /><circle cx="698" cy="224" r="2.5" fill="red" /><circle cx="699" cy="122" r="2.5" fill="red" /><circle cx="699" cy="122" r="2.5" fill="red" /><circle cx="701" cy="122" r="2.5" fill="red" /><circle cx="702" cy="224" r="2.5" fill="red" /><circle cx="702" cy="224" r="2.5" fill="red" /><circle cx="702" cy="224" r="2.5" fill="red" /><circle cx="703" cy="224" r="2.5" fill="red" /><circle cx="703" cy="224" r="2.5" fill="red" /><circle cx="705" cy="224" r="2.5" fill="red" /><circle cx="705" cy="224" r="2.5" fill="red" /><circle cx="705" cy="224" r="2.5" fill="red" /><circle cx="706" cy="224" r="2.5" fill="red" /><circle cx="706" cy="224" r="2.5" fill="red" /><circle cx="706" cy="224" r="2.5" fill="red" /><circle cx="707" cy="224" r="2.5" fill="red" /><circle cx="707" cy="224" r="2.5" fill="red" /><circle cx="709" cy="224" r="2.5" fill="red" /><circle cx="709" cy="224" r="2.5" fill="red" /><circle cx="710" cy="224" r="2.5" fill="red" /><circle cx="710" cy="122" r="2.5" fill="red" /><circle cx="710" cy="224" r="2.5" fill="red" /><circle cx="712" cy="224" r="2.5" fill="red" /><circle cx="712" cy="224" r="2.5" fill="red" /><circle cx="713" cy="224" r="2.5" fill="red" /><circle cx="713" cy="224" r="2.5" fill="red" /><circle cx="713" cy="224" r="2.5" fill="red" /><circle cx="721" cy="224" r="2.5" fill="red" /><circle cx="723" cy="224" r="2.5" fill="red" /><circle cx="724" cy="122" r="2.5" fill="red" /><circle cx="724" cy="224" r="2.5" fill="red" /><circle cx="725" cy="122" r="2.5" fill="red" /><circle cx="727" cy="224" r="2.5" fill="red" /><circle cx="727" cy="224" r="2.5" fill="red" /><circle cx="727" cy="122" r="2.5" fill="red" /><circle cx="728" cy="122" r="2.5" fill="red" /><circle cx="729" cy="224" r="2.5" fill="red" /><circle cx="730" cy="224" r="2.5" fill="red" /><circle cx="731" cy="224" r="2.5" fill="red" /><circle cx="731" cy="122" r="2.5" fill="red" /><circle cx="731" cy="224" r="2.5" fill="red" /><circle cx="732" cy="224" r="2.5" fill="red" /><circle cx="732" cy="224" r="2.5" fill="red" /><circle cx="734" cy="224" r="2.5" fill="red" /><circle cx="734" cy="224" r="2.5" fill="red" /><circle cx="735" cy="224" r="2.5" fill="red" /><circle cx="735" cy="224" r="2.5" fill="red" /><circle cx="735" cy="224" r="2.5" fill="red" /><circle cx="736" cy="224" r="2.5" fill="red" /><circle cx="737" cy="224" r="2.5" fill="red" /><circle cx="738" cy="224" r="2.5" fill="red" /><circle cx="738" cy="224" r="2.5" fill="red" /><circle cx="746" cy="224" r="2.5" fill="red" /><circle cx="748" cy="224" r="2.5" fill="red" /><circle cx="749" cy="224" r="2.5" fill="red" /><circle cx="749" cy="224" r="2.5" fill="red" /><circle cx="749" cy="224" r="2.5" fill="red" /><circle cx="750" cy="224" r="2.5" fill="red" /><circle cx="750" cy="224" r="2.5" fill="red" /><circle cx="750" cy="224" r="2.5" fill="red" /><circle cx="752" cy="122" r="2.5" fill="red" /><circle cx="753" cy="122" r="2.5" fill="red" /><circle cx="753" cy="224" r="2.5" fill="red" /><circle cx="753" cy="224" r="2.5" fill="red" /><circle cx="754" cy="224" r="2.5" fill="red" /><circle cx="755" cy="224" r="2.5" fill="red" /><circle cx="756" cy="224" r="2.5" fill="red" /><circle cx="756" cy="224" r="2.5" fill="red" /><circle cx="757" cy="122" r="2.5" fill="red" /><circle cx="757" cy="224" r="2.5" fill="red" /><circle cx="759" cy="224" r="2.5" fill="red" /><circle cx="759" cy="224" r="2.5" fill="red" /><circle cx="760" cy="122" r="2.5" fill="red" /><circle cx="760" cy="224" r="2.5" fill="red" /><circle cx="761" cy="224" r="2.5" fill="red" /><circle cx="761" cy="224" r="2.5" fill="red" /><circle cx="763" cy="224" r="2.5" fill="red" /><circle cx="763" cy="224" r="2.5" fill="red" /><circle cx="763" cy="224" r="2.5" fill="red" /><circle cx="764" cy="224" r="2.5" fill="red" /><circle cx="764" cy="224" r="2.5" fill="red" /><circle cx="772" cy="224" r="2.5" fill="red" /><circle cx="774" cy="122" r="2.5" fill="red" /><circle cx="774" cy="224" r="2.5" fill="red" /><circle cx="775" cy="122" r="2.5" fill="red" /><circle cx="775" cy="224" r="2.5" fill="red" /><circle cx="776" cy="224" r="2.5" fill="red" /><circle cx="777" cy="224" r="2.5" fill="red" /><circle cx="778" cy="224" r="2.5" fill="red" /><circle cx="778" cy="224" r="2.5" fill="red" /><circle cx="778" cy="224" r="2.5" fill="red" /><circle cx="779" cy="122" r="2.5" fill="red" /><circle cx="779" cy="224" r="2.5" fill="red" /><circle cx="781" cy="224" r="2.5" fill="red" /><circle cx="781" cy="224" r="2.5" fill="red" /><circle cx="781" cy="224" r="2.5" fill="red" /><circle cx="782" cy="224" r="2.5" fill="red" /><circle cx="782" cy="224" r="2.5" fill="red" /><circle cx="782" cy="224" r="2.5" fill="red" /><circle cx="783" cy="224" r="2.5" fill="red" /><circle cx="784" cy="224" r="2.5" fill="red" /><circle cx="785" cy="224" r="2.5" fill="red" /><circle cx="785" cy="224" r="2.5" fill="red" /><circle cx="786" cy="224" r="2.5" fill="red" /><circle cx="786" cy="224" r="2.5" fill="red" /><circle cx="786" cy="224" r="2.5" fill="red" /><circle cx="786" cy="224" r="2.5" fill="red" /><circle cx="788" cy="122" r="2.5" fill="red" /><circle cx="789" cy="122" r="2.5" fill="red" /><circle cx="789" cy="224" r="2.5" fill="red" /><circle cx="797" cy="224" r="2.5" fill="red" /><circle cx="799" cy="224" r="2.5" fill="red" /><circle cx="799" cy="224" r="2.5" fill="red" /><circle cx="800" cy="224" r="2.5" fill="red" /><circle cx="800" cy="224" r="2.5" fill="red" /><circle cx="800" cy="224" r="2.5" fill="red" /><circle cx="801" cy="224" r="2.5" fill="red" /><circle cx="801" cy="224" r="2.5" fill="red" /><circle cx="803" cy="224" r="2.5" fill="red" /><circle cx="803" cy="224" r="2.5" fill="red" /><circle cx="803" cy="224" r="2.5" fill="red" /><circle cx="803" cy="224" r="2.5" fill="red" /><circle cx="804" cy="224" r="2.5" fill="red" /><circle cx="804" cy="122" r="2.5" fill="red" /><circle cx="806" cy="224" r="2.5" fill="red" /><circle cx="807" cy="224" r="2.5" fill="red" /><circle cx="807" cy="224" r="2.5" fill="red" /><circle cx="808" cy="224" r="2.5" fill="red" /><circle cx="808" cy="224" r="2.5" fill="red" /><circle cx="808" cy="224" r="2.5" fill="red" /><circle cx="810" cy="224" r="2.5" fill="red" /><circle cx="810" cy="224" r="2.5" fill="red" /><circle cx="811" cy="224" r="2.5" fill="red" /><circle cx="811" cy="224" r="2.5" fill="red" /><circle cx="811" cy="224" r="2.5" fill="red" /><circle cx="812" cy="224" r="2.5" fill="red" /><circle cx="814" cy="224" r="2.5" fill="red" /><circle cx="814" cy="224" r="2.5" fill="red" /><circle cx="814" cy="224" r="2.5" fill="red" /><circle cx="815" cy="224" r="2.5" fill="red" /><circle cx="988" cy="309" r="2.5" fill="red" /><circle cx="1027" cy="232" r="2.5" fill="red" /><circle cx="1241" cy="309" r="2.5" fill="red" /><circle cx="1354" cy="309" r="2.5" fill="red" /><circle cx="1354" cy="275" r="2.5" fill="red" /><circle cx="1354" cy="309" r="2.5" fill="red" /></svg>