<svg xmlns="http://www.w3.org/2000/svg" width="1400" height="380"><line x1="60" y1="20" x2="60" y2="325" stroke="#e5e7eb" stroke-width="1" /><line x1="172" y1="20" x2="172" y2="325" stroke="#e5e7eb" stroke-width="1" /><line x1="273" y1="20" x2="273" y2="325" stroke="#e5e7eb" stroke-width="1" /><line x1="385" y1="20" x2="385" y2="325" stroke="#e5e7eb" stroke-width="1" /><line x1="493" y1="20" x2="493" y2="325" stroke="#e5e7eb" stroke-width="1" /><line x1="606" y1="20" x2="606" y2="325" stroke="#e5e7eb" stroke-width="1" /><line x1="714" y1="20" x2="714" y2="325" stroke="#e5e7eb" stroke-width="1" /><line x1="826" y1="20" x2="826" y2="325" stroke="#e5e7eb" stroke-width="1" /><line x1="938" y1="20" x2="938" y2="325" stroke="#e5e7eb" stroke-width="1" /><line x1="1047" y1="20" x2="1047" y2="325" stroke="#e5e7eb" stroke-width="1" /><line x1="1159" y1="20" x2="1159" y2="325" stroke="#e5e7eb" stroke-width="1" /><line x1="1267" y1="20" x2="1267" y2="325" stroke="#e5e7eb" stroke-width="1" /><line x1="60" y1="317" x2="1380" y2="317" stroke="#e5e7eb" stroke-width="1" /><line x1="60" y1="300" x2="1380" y2="300" stroke="#e5e7eb" stroke-width="1" /><line x1="60" y1="275" x2="1380" y2="275" stroke="#e5e7eb" stroke-width="1" /><line x1="60" y1="224" x2="1380" y2="224" stroke="#e5e7eb" stroke-width="1" /><line x1="60" y1="173" x2="1380" y2="173" stroke="#e5e7eb" stroke-width="1" /><line x1="60" y1="20" x2="1380" y2="20" stroke="#e5e7eb" stroke-width="1" /><line x1="60" y1="325" x2="1380" y2="325" stroke="black" stroke-width="1"/><line x1="60" y1="20" x2="60" y2="325" stroke="black" stroke-width="1"/><text x="720.0" y="362" font-size="12" text-anchor="middle">Time (UTC, 2019)</text><text x="18" y="172.5" font-size="12" transform="rotate(-90, 18, 172.5)" text-anchor="middle">Gap duration (minutes)</text><line x1="60" y1="325" x2="60" y2="330" stroke="black" stroke-width="1"/><text x="60" y="343" font-size="10" text-anchor="middle">Jan</text><line x1="172" y1="325" x2="172" y2="330" stroke="black" stroke-width="1"/><text x="172" y="343" font-size="10" text-anchor="middle">Feb</text><line x1="273" y1="325" x2="273" y2="330" stroke="black" stroke-width="1"/><text x="273" y="343" font-size="10" text-anchor="middle">Mar</text><line x1="385" y1="325" x2="385" y2="330" stroke="black" stroke-width="1"/><text x="385" y="343" font-size="10" text-anchor="middle">Apr</text><line x1="493" y1="325" x2="493" y2="330" stroke="black" stroke-width="1"/><text x="493" y="343" font-size="10" text-anchor="middle">May</text><line x1="606" y1="325" x2="606" y2="330" stroke="black" stroke-width="1"/><text x="606" y="343" font-size="10" text-anchor="middle">Jun</text><line x1="714" y1="325" x2="714" y2="330" stroke="black" stroke-width="1"/><text x="714" y="343" font-size="10" text-anchor="middle">Jul</text><line x1="826" y1="325" x2="826" y2="330" stroke="black" stroke-width="1"/><text x="826" y="343" font-size="10" text-anchor="middle">Aug</text><line x1="938" y1="325" x2="938" y2="330" stroke="black" stroke-width="1"/><text x="938" y="343" font-size="10" text-anchor="middle">Sep</text><line x1="1047" y1="325" x2="1047" y2="330" stroke="black" stroke-width="1"/><text x="1047" y="343" font-size="10" text-anchor="middle">Oct</text><line x1="1159" y1="325" x2="1159" y2="330" stroke="black" stroke-width="1"/><text x="1159" y="343" font-size="10" text-anchor="middle">Nov</text><line x1="1267" y1="325" x2="1267" y2="330" stroke="black" stroke-width="1"/><text x="1267" y="343" font-size="10" text-anchor="middle">Dec</text><line x1="55" y1="317" x2="60" y2="317" stroke="black" stroke-width="1"/><text x="52" y="320" font-size="10" text-anchor="end">10</text><line x1="55" y1="300" x2="60" y2="300" stroke="black" stroke-width="1"/><text x="52" y="303" font-size="10" text-anchor="end">30</text><line x1="55" y1="275" x2="60" y2="275" stroke="black" stroke-width="1"/><text x="52" y="278" font-size="10" text-anchor="end">60</text><line x1="55" y1="224" x2="60" y2="224" stroke="black" stroke-width="1"/><text x="52" y="227" font-size="10" text-anchor="end">120</text><line x1="55" y1="173" x2="60" y2="173" stroke="black" stroke-width="1"/><text x="52" y="176" font-size="10" text-anchor="end">180</text><line x1="55" y1="20" x2="60" y2="20" stroke="black" stroke-width="1"/><text x="52" y="23" font-size="10" text-anchor="end">360</text><circle cx="385" cy="275" r="2.5" fill="red" /><circle cx="588" cy="20" r="2.5" fill="red" /><circle cx="1354" cy="275" r="2.5" fill="red" /></svg>