<svg xmlns="http://www.w3.org/2000/svg" width="1400" height="380"><line x1="60" y1="20" x2="60" y2="325" stroke="#e5e7eb" stroke-width="1" /><line x1="172" y1="20" x2="172" y2="325" stroke="#e5e7eb" stroke-width="1" /><line x1="273" y1="20" x2="273" y2="325" stroke="#e5e7eb" stroke-width="1" /><line x1="385" y1="20" x2="385" y2="325" stroke="#e5e7eb" stroke-width="1" /><line x1="493" y1="20" x2="493" y2="325" stroke="#e5e7eb" stroke-width="1" /><line x1="606" y1="20" x2="606" y2="325" stroke="#e5e7eb" stroke-width="1" /><line x1="714" y1="20" x2="714" y2="325" stroke="#e5e7eb" stroke-width="1" /><line x1="826" y1="20" x2="826" y2="325" stroke="#e5e7eb" stroke-width="1" /><line x1="938" y1="20" x2="938" y2="325" stroke="#e5e7eb" stroke-width="1" /><line x1="1047" y1="20" x2="1047" y2="325" stroke="#e5e7eb" stroke-width="1" /><line x1="1159" y1="20" x2="1159" y2="325" stroke="#e5e7eb" stroke-width="1" /><line x1="1267" y1="20" x2="1267" y2="325" stroke="#e5e7eb" stroke-width="1" /><line x1="60" y1="321" x2="1380" y2="321" stroke="#e5e7eb" stroke-width="1" /><line x1="60" y1="313" x2="1380" y2="313" stroke="#e5e7eb" stroke-width="1" /><line x1="60" y1="300" x2="1380" y2="300" stroke="#e5e7eb" stroke-width="1" /><line x1="60" y1="275" x2="1380" y2="275" stroke="#e5e7eb" stroke-width="1" /><line x1="60" y1="249" x2="1380" y2="249" stroke="#e5e7eb" stroke-width="1" /><line x1="60" y1="173" x2="1380" y2="173" stroke="#e5e7eb" stroke-width="1" /><line x1="60" y1="20" x2="1380" y2="20" stroke="#e5e7eb" stroke-width="1" /><line x1="60" y1="325" x2="1380" y2="325" stroke="black" stroke-width="1"/><line x1="60" y1="20" x2="60" y2="325" stroke="black" stroke-width="1"/><text x="720.0" y="362" font-size="12" text-anchor="middle">Time (UTC, 2003)</text><text x="18" y="172.5" font-size="12" transform="rotate(-90, 18, 172.5)" text-anchor="middle">Gap duration (minutes)</text><line x1="60" y1="325" x2="60" y2="330" stroke="black" stroke-width="1"/><text x="60" y="343" font-size="10" text-anchor="middle">Jan</text><line x1="172" y1="325" x2="172" y2="330" stroke="black" stroke-width="1"/><text x="172" y="343" font-size="10" text-anchor="middle">Feb</text><line x1="273" y1="325" x2="273" y2="330" stroke="black" stroke-width="1"/><text x="273" y="343" font-size="10" text-anchor="middle">Mar</text><line x1="385" y1="325" x2="385" y2="330" stroke="black" stroke-width="1"/><text x="385" y="343" font-size="10" text-anchor="middle">Apr</text><line x1="493" y1="325" x2="493" y2="330" stroke="black" stroke-width="1"/><text x="493" y="343" font-size="10" text-anchor="middle">May</text><line x1="606" y1="325" x2="606" y2="330" stroke="black" stroke-width="1"/><text x="606" y="343" font-size="10" text-anchor="middle">Jun</text><line x1="714" y1="325" x2="714" y2="330" stroke="black" stroke-width="1"/><text x="714" y="343" font-size="10" text-anchor="middle">Jul</text><line x1="826" y1="325" x2="826" y2="330" stroke="black" stroke-width="1"/><text x="826" y="343" font-size="10" text-anchor="middle">Aug</text><line x1="938" y1="325" x2="938" y2="330" stroke="black" stroke-width="1"/><text x="938" y="343" font-size="10" text-anchor="middle">Sep</text><line x1="1047" y1="325" x2="1047" y2="330" stroke="black" stroke-width="1"/><text x="1047" y="343" font-size="10" text-anchor="middle">Oct</text><line x1="1159" y1="325" x2="1159" y2="330" stroke="black" stroke-width="1"/><text x="1159" y="343" font-size="10" text-anchor="middle">Nov</text><line x1="1267" y1="325" x2="1267" y2="330" stroke="black" stroke-width="1"/><text x="1267" y="343" font-size="10" text-anchor="middle">Dec</text><line x1="55" y1="321" x2="60" y2="321" stroke="black" stroke-width="1"/><text x="52" y="324" font-size="10" text-anchor="end">10</text><line x1="55" y1="313" x2="60" y2="313" stroke="black" stroke-width="1"/><text x="52" y="316" font-size="10" text-anchor="end">30</text><line x1="55" y1="300" x2="60" y2="300" stroke="black" stroke-width="1"/><text x="52" y="303" font-size="10" text-anchor="end">60</text><line x1="55" y1="275" x2="60" y2="275" stroke="black" stroke-width="1"/><text x="52" y="278" font-size="10" text-anchor="end">120</text><line x1="55" y1="249" x2="60" y2="249" stroke="black" stroke-width="1"/><text x="52" y="252" font-size="10" text-anchor="end">180</text><line x1="55" y1="173" x2="60" y2="173" stroke="black" stroke-width="1"/><text x="52" y="176" font-size="10" text-anchor="end">360</text><line x1="55" y1="20" x2="60" y2="20" stroke="black" stroke-width="1"/><text x="52" y="23" font-size="10" text-anchor="end">720</text><circle cx="64" cy="321" r="2.5" fill="red" /><circle cx="64" cy="321" r="2.5" fill="red" /><circle cx="64" cy="321" r="2.5" fill="red" /><circle cx="66" cy="321" r="2.5" fill="red" /><circle cx="66" cy="321" r="2.5" fill="red" /><circle cx="66" cy="317" r="2.5" fill="red" /><circle cx="66" cy="321" r="2.5" fill="red" /><circle cx="67" cy="319" r="2.5" fill="red" /><circle cx="67" cy="321" r="2.5" fill="red" /><circle cx="67" cy="321" r="2.5" fill="red" /><circle cx="67" cy="321" r="2.5" fill="red" /><circle cx="67" cy="321" r="2.5" fill="red" /><circle cx="67" cy="321" r="2.5" fill="red" /><circle cx="77" cy="321" r="2.5" fill="red" /><circle cx="77" cy="321" r="2.5" fill="red" /><circle cx="77" cy="321" r="2.5" fill="red" /><circle cx="78" cy="321" r="2.5" fill="red" /><circle cx="78" cy="319" r="2.5" fill="red" /><circle cx="81" cy="319" r="2.5" fill="red" /><circle cx="82" cy="321" r="2.5" fill="red" /><circle cx="82" cy="319" r="2.5" fill="red" /><circle cx="85" cy="319" r="2.5" fill="red" /><circle cx="85" cy="321" r="2.5" fill="red" /><circle cx="85" cy="319" r="2.5" fill="red" /><circle cx="85" cy="321" r="2.5" fill="red" /><circle cx="85" cy="321" r="2.5" fill="red" /><circle cx="86" cy="321" r="2.5" fill="red" /><circle cx="88" cy="319" r="2.5" fill="red" /><circle cx="88" cy="317" r="2.5" fill="red" /><circle cx="89" cy="321" r="2.5" fill="red" /><circle cx="89" cy="321" r="2.5" fill="red" /><circle cx="92" cy="317" r="2.5" fill="red" /><circle cx="92" cy="321" r="2.5" fill="red" /><circle cx="92" cy="321" r="2.5" fill="red" /><circle cx="92" cy="321" r="2.5" fill="red" /><circle cx="92" cy="321" r="2.5" fill="red" /><circle cx="93" cy="321" r="2.5" fill="red" /><circle cx="103" cy="317" r="2.5" fill="red" /><circle cx="103" cy="321" r="2.5" fill="red" /><circle cx="103" cy="321" r="2.5" fill="red" /><circle cx="103" cy="321" r="2.5" fill="red" /><circle cx="103" cy="319" r="2.5" fill="red" /><circle cx="103" cy="321" r="2.5" fill="red" /><circle cx="104" cy="321" r="2.5" fill="red" /><circle cx="104" cy="321" r="2.5" fill="red" /><circle cx="104" cy="321" r="2.5" fill="red" /><circle cx="106" cy="319" r="2.5" fill="red" /><circle cx="106" cy="321" r="2.5" fill="red" /><circle cx="107" cy="321" r="2.5" fill="red" /><circle cx="107" cy="317" r="2.5" fill="red" /><circle cx="110" cy="317" r="2.5" fill="red" /><circle cx="110" cy="321" r="2.5" fill="red" /><circle cx="111" cy="321" r="2.5" fill="red" /><circle cx="111" cy="321" r="2.5" fill="red" /><circle cx="111" cy="321" r="2.5" fill="red" /><circle cx="113" cy="315" r="2.5" fill="red" /><circle cx="114" cy="321" r="2.5" fill="red" /><circle cx="114" cy="319" r="2.5" fill="red" /><circle cx="114" cy="321" r="2.5" fill="red" /><circle cx="114" cy="321" r="2.5" fill="red" /><circle cx="115" cy="321" r="2.5" fill="red" /><circle cx="115" cy="321" r="2.5" fill="red" /><circle cx="117" cy="313" r="2.5" fill="red" /><circle cx="117" cy="321" r="2.5" fill="red" /><circle cx="118" cy="321" r="2.5" fill="red" /><circle cx="120" cy="321" r="2.5" fill="red" /><circle cx="129" cy="321" r="2.5" fill="red" /><circle cx="129" cy="321" r="2.5" fill="red" /><circle cx="129" cy="321" r="2.5" fill="red" /><circle cx="129" cy="321" r="2.5" fill="red" /><circle cx="131" cy="321" r="2.5" fill="red" /><circle cx="131" cy="321" r="2.5" fill="red" /><circle cx="132" cy="317" r="2.5" fill="red" /><circle cx="135" cy="319" r="2.5" fill="red" /><circle cx="135" cy="315" r="2.5" fill="red" /><circle cx="135" cy="321" r="2.5" fill="red" /><circle cx="135" cy="321" r="2.5" fill="red" /><circle cx="139" cy="321" r="2.5" fill="red" /><circle cx="139" cy="315" r="2.5" fill="red" /><circle cx="140" cy="321" r="2.5" fill="red" /><circle cx="140" cy="321" r="2.5" fill="red" /><circle cx="140" cy="321" r="2.5" fill="red" /><circle cx="140" cy="321" r="2.5" fill="red" /><circle cx="140" cy="321" r="2.5" fill="red" /><circle cx="141" cy="321" r="2.5" fill="red" /><circle cx="142" cy="321" r="2.5" fill="red" /><circle cx="142" cy="319" r="2.5" fill="red" /><circle cx="143" cy="321" r="2.5" fill="red" /><circle cx="143" cy="321" r="2.5" fill="red" /><circle cx="143" cy="321" r="2.5" fill="red" /><circle cx="143" cy="321" r="2.5" fill="red" /><circle cx="153" cy="321" r="2.5" fill="red" /><circle cx="154" cy="321" r="2.5" fill="red" /><circle cx="154" cy="319" r="2.5" fill="red" /><circle cx="154" cy="321" r="2.5" fill="red" /><circle cx="155" cy="321" r="2.5" fill="red" /><circle cx="157" cy="319" r="2.5" fill="red" /><circle cx="157" cy="321" r="2.5" fill="red" /><circle cx="157" cy="317" r="2.5" fill="red" /><circle cx="158" cy="321" r="2.5" fill="red" /><circle cx="158" cy="321" r="2.5" fill="red" /><circle cx="158" cy="321" r="2.5" fill="red" /><circle cx="158" cy="321" r="2.5" fill="red" /><circle cx="158" cy="321" r="2.5" fill="red" /><circle cx="160" cy="321" r="2.5" fill="red" /><circle cx="160" cy="317" r="2.5" fill="red" /><circle cx="163" cy="321" r="2.5" fill="red" /><circle cx="165" cy="321" r="2.5" fill="red" /><circle cx="168" cy="319" r="2.5" fill="red" /><circle cx="169" cy="321" r="2.5" fill="red" /><circle cx="169" cy="321" r="2.5" fill="red" /><circle cx="179" cy="321" r="2.5" fill="red" /><circle cx="179" cy="321" r="2.5" fill="red" /><circle cx="183" cy="321" r="2.5" fill="red" /><circle cx="183" cy="321" r="2.5" fill="red" /><circle cx="184" cy="321" r="2.5" fill="red" /><circle cx="186" cy="319" r="2.5" fill="red" /><circle cx="187" cy="321" r="2.5" fill="red" /><circle cx="189" cy="321" r="2.5" fill="red" /><circle cx="190" cy="321" r="2.5" fill="red" /><circle cx="190" cy="321" r="2.5" fill="red" /><circle cx="190" cy="321" r="2.5" fill="red" /><circle cx="190" cy="317" r="2.5" fill="red" /><circle cx="191" cy="321" r="2.5" fill="red" /><circle cx="193" cy="317" r="2.5" fill="red" /><circle cx="193" cy="321" r="2.5" fill="red" /><circle cx="194" cy="321" r="2.5" fill="red" /><circle cx="194" cy="319" r="2.5" fill="red" /><circle cx="194" cy="321" r="2.5" fill="red" /><circle cx="194" cy="321" r="2.5" fill="red" /><circle cx="194" cy="321" r="2.5" fill="red" /><circle cx="194" cy="319" r="2.5" fill="red" /><circle cx="194" cy="321" r="2.5" fill="red" /><circle cx="204" cy="319" r="2.5" fill="red" /><circle cx="204" cy="317" r="2.5" fill="red" /><circle cx="205" cy="321" r="2.5" fill="red" /><circle cx="205" cy="321" r="2.5" fill="red" /><circle cx="205" cy="321" r="2.5" fill="red" /><circle cx="205" cy="321" r="2.5" fill="red" /><circle cx="205" cy="319" r="2.5" fill="red" /><circle cx="206" cy="321" r="2.5" fill="red" /><circle cx="207" cy="319" r="2.5" fill="red" /><circle cx="208" cy="321" r="2.5" fill="red" /><circle cx="208" cy="321" r="2.5" fill="red" /><circle cx="211" cy="319" r="2.5" fill="red" /><circle cx="211" cy="321" r="2.5" fill="red" /><circle cx="212" cy="321" r="2.5" fill="red" /><circle cx="212" cy="321" r="2.5" fill="red" /><circle cx="212" cy="321" r="2.5" fill="red" /><circle cx="212" cy="319" r="2.5" fill="red" /><circle cx="212" cy="321" r="2.5" fill="red" /><circle cx="212" cy="319" r="2.5" fill="red" /><circle cx="213" cy="319" r="2.5" fill="red" /><circle cx="214" cy="321" r="2.5" fill="red" /><circle cx="215" cy="321" r="2.5" fill="red" /><circle cx="215" cy="321" r="2.5" fill="red" /><circle cx="215" cy="321" r="2.5" fill="red" /><circle cx="215" cy="321" r="2.5" fill="red" /><circle cx="216" cy="321" r="2.5" fill="red" /><circle cx="216" cy="321" r="2.5" fill="red" /><circle cx="218" cy="321" r="2.5" fill="red" /><circle cx="219" cy="321" r="2.5" fill="red" /><circle cx="219" cy="321" r="2.5" fill="red" /><circle cx="230" cy="321" r="2.5" fill="red" /><circle cx="232" cy="122" r="2.5" fill="red" /><circle cx="234" cy="321" r="2.5" fill="red" /><circle cx="236" cy="321" r="2.5" fill="red" /><circle cx="237" cy="321" r="2.5" fill="red" /><circle cx="238" cy="321" r="2.5" fill="red" /><circle cx="239" cy="321" r="2.5" fill="red" /><circle cx="240" cy="319" r="2.5" fill="red" /><circle cx="240" cy="321" r="2.5" fill="red" /><circle cx="241" cy="321" r="2.5" fill="red" /><circle cx="244" cy="321" r="2.5" fill="red" /><circle cx="244" cy="317" r="2.5" fill="red" /><circle cx="244" cy="321" r="2.5" fill="red" /><circle cx="245" cy="321" r="2.5" fill="red" /><circle cx="245" cy="321" r="2.5" fill="red" /><circle cx="245" cy="321" r="2.5" fill="red" /><circle cx="255" cy="321" r="2.5" fill="red" /><circle cx="256" cy="321" r="2.5" fill="red" /><circle cx="258" cy="319" r="2.5" fill="red" /><circle cx="258" cy="321" r="2.5" fill="red" /><circle cx="262" cy="321" r="2.5" fill="red" /><circle cx="262" cy="321" r="2.5" fill="red" /><circle cx="262" cy="321" r="2.5" fill="red" /><circle cx="262" cy="321" r="2.5" fill="red" /><circle cx="263" cy="321" r="2.5" fill="red" /><circle cx="263" cy="321" r="2.5" fill="red" /><circle cx="263" cy="321" r="2.5" fill="red" /><circle cx="263" cy="321" r="2.5" fill="red" /><circle cx="265" cy="321" r="2.5" fill="red" /><circle cx="266" cy="321" r="2.5" fill="red" /><circle cx="266" cy="319" r="2.5" fill="red" /><circle cx="266" cy="319" r="2.5" fill="red" /><circle cx="269" cy="321" r="2.5" fill="red" /><circle cx="269" cy="321" r="2.5" fill="red" /><circle cx="269" cy="321" r="2.5" fill="red" /><circle cx="269" cy="321" r="2.5" fill="red" /><circle cx="269" cy="321" r="2.5" fill="red" /><circle cx="270" cy="321" r="2.5" fill="red" /><circle cx="270" cy="321" r="2.5" fill="red" /><circle cx="270" cy="319" r="2.5" fill="red" /><circle cx="270" cy="321" r="2.5" fill="red" /><circle cx="270" cy="321" r="2.5" fill="red" /><circle cx="270" cy="319" r="2.5" fill="red" /><circle cx="272" cy="321" r="2.5" fill="red" /><circle cx="281" cy="321" r="2.5" fill="red" /><circle cx="284" cy="321" r="2.5" fill="red" /><circle cx="285" cy="321" r="2.5" fill="red" /><circle cx="287" cy="317" r="2.5" fill="red" /><circle cx="288" cy="321" r="2.5" fill="red" /><circle cx="288" cy="321" r="2.5" fill="red" /><circle cx="291" cy="321" r="2.5" fill="red" /><circle cx="292" cy="321" r="2.5" fill="red" /><circle cx="294" cy="321" r="2.5" fill="red" /><circle cx="294" cy="321" r="2.5" fill="red" /><circle cx="294" cy="321" r="2.5" fill="red" /><circle cx="294" cy="321" r="2.5" fill="red" /><circle cx="295" cy="319" r="2.5" fill="red" /><circle cx="295" cy="321" r="2.5" fill="red" /><circle cx="295" cy="321" r="2.5" fill="red" /><circle cx="305" cy="319" r="2.5" fill="red" /><circle cx="305" cy="319" r="2.5" fill="red" /><circle cx="306" cy="319" r="2.5" fill="red" /><circle cx="306" cy="321" r="2.5" fill="red" /><circle cx="306" cy="319" r="2.5" fill="red" /><circle cx="306" cy="321" r="2.5" fill="red" /><circle cx="306" cy="321" r="2.5" fill="red" /><circle cx="306" cy="315" r="2.5" fill="red" /><circle cx="306" cy="321" r="2.5" fill="red" /><circle cx="306" cy="321" r="2.5" fill="red" /><circle cx="309" cy="321" r="2.5" fill="red" /><circle cx="309" cy="321" r="2.5" fill="red" /><circle cx="310" cy="319" r="2.5" fill="red" /><circle cx="310" cy="321" r="2.5" fill="red" /><circle cx="310" cy="321" r="2.5" fill="red" /><circle cx="311" cy="321" r="2.5" fill="red" /><circle cx="312" cy="294" r="2.5" fill="red" /><circle cx="313" cy="319" r="2.5" fill="red" /><circle cx="313" cy="321" r="2.5" fill="red" /><circle cx="313" cy="321" r="2.5" fill="red" /><circle cx="314" cy="321" r="2.5" fill="red" /><circle cx="316" cy="321" r="2.5" fill="red" /><circle cx="316" cy="321" r="2.5" fill="red" /><circle cx="320" cy="319" r="2.5" fill="red" /><circle cx="321" cy="321" r="2.5" fill="red" /><circle cx="321" cy="319" r="2.5" fill="red" /><circle cx="331" cy="317" r="2.5" fill="red" /><circle cx="331" cy="321" r="2.5" fill="red" /><circle cx="331" cy="321" r="2.5" fill="red" /><circle cx="331" cy="319" r="2.5" fill="red" /><circle cx="332" cy="321" r="2.5" fill="red" /><circle cx="334" cy="319" r="2.5" fill="red" /><circle cx="335" cy="321" r="2.5" fill="red" /><circle cx="335" cy="321" r="2.5" fill="red" /><circle cx="338" cy="317" r="2.5" fill="red" /><circle cx="338" cy="319" r="2.5" fill="red" /><circle cx="339" cy="321" r="2.5" fill="red" /><circle cx="339" cy="321" r="2.5" fill="red" /><circle cx="339" cy="321" r="2.5" fill="red" /><circle cx="341" cy="319" r="2.5" fill="red" /><circle cx="342" cy="321" r="2.5" fill="red" /><circle cx="345" cy="321" r="2.5" fill="red" /><circle cx="345" cy="317" r="2.5" fill="red" /><circle cx="345" cy="321" r="2.5" fill="red" /><circle cx="345" cy="321" r="2.5" fill="red" /><circle cx="346" cy="321" r="2.5" fill="red" /><circle cx="346" cy="321" r="2.5" fill="red" /><circle cx="356" cy="321" r="2.5" fill="red" /><circle cx="359" cy="321" r="2.5" fill="red" /><circle cx="360" cy="321" r="2.5" fill="red" /><circle cx="363" cy="321" r="2.5" fill="red" /><circle cx="363" cy="321" r="2.5" fill="red" /><circle cx="364" cy="321" r="2.5" fill="red" /><circle cx="364" cy="321" r="2.5" fill="red" /><circle cx="364" cy="321" r="2.5" fill="red" /><circle cx="367" cy="319" r="2.5" fill="red" /><circle cx="367" cy="321" r="2.5" fill="red" /><circle cx="367" cy="317" r="2.5" fill="red" /><circle cx="370" cy="317" r="2.5" fill="red" /><circle cx="371" cy="321" r="2.5" fill="red" /><circle cx="374" cy="321" r="2.5" fill="red" /><circle cx="382" cy="319" r="2.5" fill="red" /><circle cx="385" cy="321" r="2.5" fill="red" /><circle cx="385" cy="321" r="2.5" fill="red" /><circle cx="392" cy="319" r="2.5" fill="red" /><circle cx="396" cy="321" r="2.5" fill="red" /><circle cx="396" cy="319" r="2.5" fill="red" /><circle cx="410" cy="321" r="2.5" fill="red" /><circle cx="412" cy="321" r="2.5" fill="red" /><circle cx="413" cy="321" r="2.5" fill="red" /><circle cx="414" cy="321" r="2.5" fill="red" /><circle cx="414" cy="319" r="2.5" fill="red" /><circle cx="414" cy="321" r="2.5" fill="red" /><circle cx="417" cy="319" r="2.5" fill="red" /><circle cx="417" cy="321" r="2.5" fill="red" /><circle cx="417" cy="321" r="2.5" fill="red" /><circle cx="418" cy="321" r="2.5" fill="red" /><circle cx="421" cy="317" r="2.5" fill="red" /><circle cx="421" cy="321" r="2.5" fill="red" /><circle cx="421" cy="321" r="2.5" fill="red" /><circle cx="421" cy="321" r="2.5" fill="red" /><circle cx="421" cy="321" r="2.5" fill="red" /><circle cx="421" cy="321" r="2.5" fill="red" /><circle cx="422" cy="321" r="2.5" fill="red" /><circle cx="422" cy="321" r="2.5" fill="red" /><circle cx="424" cy="321" r="2.5" fill="red" /><circle cx="432" cy="319" r="2.5" fill="red" /><circle cx="432" cy="321" r="2.5" fill="red" /><circle cx="432" cy="321" r="2.5" fill="red" /><circle cx="432" cy="321" r="2.5" fill="red" /><circle cx="435" cy="317" r="2.5" fill="red" /><circle cx="436" cy="321" r="2.5" fill="red" /><circle cx="439" cy="319" r="2.5" fill="red" /><circle cx="440" cy="321" r="2.5" fill="red" /><circle cx="440" cy="319" r="2.5" fill="red" /><circle cx="440" cy="321" r="2.5" fill="red" /><circle cx="440" cy="319" r="2.5" fill="red" /><circle cx="440" cy="319" r="2.5" fill="red" /><circle cx="442" cy="321" r="2.5" fill="red" /><circle cx="442" cy="321" r="2.5" fill="red" /><circle cx="443" cy="315" r="2.5" fill="red" /><circle cx="444" cy="321" r="2.5" fill="red" /><circle cx="446" cy="321" r="2.5" fill="red" /><circle cx="446" cy="319" r="2.5" fill="red" /><circle cx="446" cy="319" r="2.5" fill="red" /><circle cx="446" cy="321" r="2.5" fill="red" /><circle cx="458" cy="321" r="2.5" fill="red" /><circle cx="458" cy="321" r="2.5" fill="red" /><circle cx="458" cy="321" r="2.5" fill="red" /><circle cx="458" cy="321" r="2.5" fill="red" /><circle cx="458" cy="319" r="2.5" fill="red" /><circle cx="458" cy="319" r="2.5" fill="red" /><circle cx="458" cy="321" r="2.5" fill="red" /><circle cx="458" cy="321" r="2.5" fill="red" /><circle cx="459" cy="317" r="2.5" fill="red" /><circle cx="459" cy="321" r="2.5" fill="red" /><circle cx="459" cy="321" r="2.5" fill="red" /><circle cx="461" cy="321" r="2.5" fill="red" /><circle cx="461" cy="321" r="2.5" fill="red" /><circle cx="461" cy="321" r="2.5" fill="red" /><circle cx="461" cy="321" r="2.5" fill="red" /><circle cx="461" cy="321" r="2.5" fill="red" /><circle cx="462" cy="321" r="2.5" fill="red" /><circle cx="464" cy="321" r="2.5" fill="red" /><circle cx="464" cy="319" r="2.5" fill="red" /><circle cx="466" cy="321" r="2.5" fill="red" /><circle cx="468" cy="319" r="2.5" fill="red" /><circle cx="468" cy="321" r="2.5" fill="red" /><circle cx="469" cy="321" r="2.5" fill="red" /><circle cx="469" cy="321" r="2.5" fill="red" /><circle cx="471" cy="317" r="2.5" fill="red" /><circle cx="472" cy="319" r="2.5" fill="red" /><circle cx="472" cy="321" r="2.5" fill="red" /><circle cx="472" cy="321" r="2.5" fill="red" /><circle cx="472" cy="321" r="2.5" fill="red" /><circle cx="472" cy="321" r="2.5" fill="red" /><circle cx="482" cy="321" r="2.5" fill="red" /><circle cx="482" cy="321" r="2.5" fill="red" /><circle cx="482" cy="321" r="2.5" fill="red" /><circle cx="482" cy="321" r="2.5" fill="red" /><circle cx="482" cy="321" r="2.5" fill="red" /><circle cx="482" cy="321" r="2.5" fill="red" /><circle cx="483" cy="321" r="2.5" fill="red" /><circle cx="483" cy="321" r="2.5" fill="red" /><circle cx="483" cy="321" r="2.5" fill="red" /><circle cx="483" cy="321" r="2.5" fill="red" /><circle cx="483" cy="321" r="2.5" fill="red" /><circle cx="486" cy="321" r="2.5" fill="red" /><circle cx="486" cy="321" r="2.5" fill="red" /><circle cx="486" cy="317" r="2.5" fill="red" /><circle cx="486" cy="321" r="2.5" fill="red" /><circle cx="486" cy="321" r="2.5" fill="red" /><circle cx="487" cy="321" r="2.5" fill="red" /><circle cx="487" cy="321" r="2.5" fill="red" /><circle cx="490" cy="313" r="2.5" fill="red" /><circle cx="493" cy="321" r="2.5" fill="red" /><circle cx="493" cy="321" r="2.5" fill="red" /><circle cx="493" cy="304" r="2.5" fill="red" /><circle cx="493" cy="321" r="2.5" fill="red" /><circle cx="493" cy="321" r="2.5" fill="red" /><circle cx="494" cy="319" r="2.5" fill="red" /><circle cx="494" cy="321" r="2.5" fill="red" /><circle cx="494" cy="319" r="2.5" fill="red" /><circle cx="494" cy="319" r="2.5" fill="red" /><circle cx="494" cy="321" r="2.5" fill="red" /><circle cx="497" cy="313" r="2.5" fill="red" /><circle cx="497" cy="321" r="2.5" fill="red" /><circle cx="497" cy="321" r="2.5" fill="red" /><circle cx="498" cy="321" r="2.5" fill="red" /><circle cx="508" cy="313" r="2.5" fill="red" /><circle cx="508" cy="321" r="2.5" fill="red" /><circle cx="508" cy="321" r="2.5" fill="red" /><circle cx="508" cy="321" r="2.5" fill="red" /><circle cx="508" cy="321" r="2.5" fill="red" /><circle cx="509" cy="319" r="2.5" fill="red" /><circle cx="509" cy="319" r="2.5" fill="red" /><circle cx="509" cy="321" r="2.5" fill="red" /><circle cx="509" cy="319" r="2.5" fill="red" /><circle cx="509" cy="319" r="2.5" fill="red" /><circle cx="509" cy="321" r="2.5" fill="red" /><circle cx="509" cy="321" r="2.5" fill="red" /><circle cx="510" cy="321" r="2.5" fill="red" /><circle cx="510" cy="321" r="2.5" fill="red" /><circle cx="511" cy="317" r="2.5" fill="red" /><circle cx="511" cy="321" r="2.5" fill="red" /><circle cx="512" cy="321" r="2.5" fill="red" /><circle cx="513" cy="321" r="2.5" fill="red" /><circle cx="515" cy="321" r="2.5" fill="red" /><circle cx="515" cy="321" r="2.5" fill="red" /><circle cx="516" cy="321" r="2.5" fill="red" /><circle cx="516" cy="321" r="2.5" fill="red" /><circle cx="518" cy="319" r="2.5" fill="red" /><circle cx="522" cy="319" r="2.5" fill="red" /><circle cx="522" cy="321" r="2.5" fill="red" /><circle cx="522" cy="321" r="2.5" fill="red" /><circle cx="522" cy="321" r="2.5" fill="red" /><circle cx="523" cy="321" r="2.5" fill="red" /><circle cx="523" cy="321" r="2.5" fill="red" /><circle cx="534" cy="321" r="2.5" fill="red" /><circle cx="534" cy="321" r="2.5" fill="red" /><circle cx="537" cy="319" r="2.5" fill="red" /><circle cx="540" cy="317" r="2.5" fill="red" /><circle cx="540" cy="319" r="2.5" fill="red" /><circle cx="541" cy="321" r="2.5" fill="red" /><circle cx="544" cy="317" r="2.5" fill="red" /><circle cx="544" cy="321" r="2.5" fill="red" /><circle cx="544" cy="321" r="2.5" fill="red" /><circle cx="547" cy="321" r="2.5" fill="red" /><circle cx="547" cy="321" r="2.5" fill="red" /><circle cx="547" cy="317" r="2.5" fill="red" /><circle cx="548" cy="321" r="2.5" fill="red" /><circle cx="548" cy="321" r="2.5" fill="red" /><circle cx="548" cy="321" r="2.5" fill="red" /><circle cx="549" cy="321" r="2.5" fill="red" /><circle cx="549" cy="321" r="2.5" fill="red" /><circle cx="549" cy="321" r="2.5" fill="red" /><circle cx="558" cy="321" r="2.5" fill="red" /><circle cx="559" cy="321" r="2.5" fill="red" /><circle cx="559" cy="319" r="2.5" fill="red" /><circle cx="559" cy="321" r="2.5" fill="red" /><circle cx="562" cy="317" r="2.5" fill="red" /><circle cx="562" cy="321" r="2.5" fill="red" /><circle cx="563" cy="321" r="2.5" fill="red" /><circle cx="563" cy="321" r="2.5" fill="red" /><circle cx="566" cy="319" r="2.5" fill="red" /><circle cx="566" cy="317" r="2.5" fill="red" /><circle cx="566" cy="321" r="2.5" fill="red" /><circle cx="566" cy="321" r="2.5" fill="red" /><circle cx="567" cy="321" r="2.5" fill="red" /><circle cx="567" cy="321" r="2.5" fill="red" /><circle cx="567" cy="321" r="2.5" fill="red" /><circle cx="567" cy="321" r="2.5" fill="red" /><circle cx="569" cy="315" r="2.5" fill="red" /><circle cx="570" cy="321" r="2.5" fill="red" /><circle cx="570" cy="321" r="2.5" fill="red" /><circle cx="570" cy="321" r="2.5" fill="red" /><circle cx="571" cy="294" r="2.5" fill="red" /><circle cx="571" cy="319" r="2.5" fill="red" /><circle cx="571" cy="319" r="2.5" fill="red" /><circle cx="573" cy="321" r="2.5" fill="red" /><circle cx="573" cy="319" r="2.5" fill="red" /><circle cx="573" cy="321" r="2.5" fill="red" /><circle cx="573" cy="317" r="2.5" fill="red" /><circle cx="573" cy="321" r="2.5" fill="red" /><circle cx="574" cy="319" r="2.5" fill="red" /><circle cx="574" cy="321" r="2.5" fill="red" /><circle cx="584" cy="321" r="2.5" fill="red" /><circle cx="584" cy="321" r="2.5" fill="red" /><circle cx="584" cy="321" r="2.5" fill="red" /><circle cx="584" cy="319" r="2.5" fill="red" /><circle cx="585" cy="321" r="2.5" fill="red" /><circle cx="585" cy="321" r="2.5" fill="red" /><circle cx="586" cy="321" r="2.5" fill="red" /><circle cx="586" cy="321" r="2.5" fill="red" /><circle cx="586" cy="321" r="2.5" fill="red" /><circle cx="586" cy="321" r="2.5" fill="red" /><circle cx="586" cy="321" r="2.5" fill="red" /><circle cx="586" cy="321" r="2.5" fill="red" /><circle cx="586" cy="97" r="2.5" fill="red" /><circle cx="588" cy="321" r="2.5" fill="red" /><circle cx="588" cy="319" r="2.5" fill="red" /><circle cx="588" cy="321" r="2.5" fill="red" /><circle cx="588" cy="321" r="2.5" fill="red" /><circle cx="588" cy="321" r="2.5" fill="red" /><circle cx="591" cy="317" r="2.5" fill="red" /><circle cx="591" cy="321" r="2.5" fill="red" /><circle cx="591" cy="321" r="2.5" fill="red" /><circle cx="594" cy="321" r="2.5" fill="red" /><circle cx="595" cy="321" r="2.5" fill="red" /><circle cx="598" cy="319" r="2.5" fill="red" /><circle cx="609" cy="321" r="2.5" fill="red" /><circle cx="610" cy="321" r="2.5" fill="red" /><circle cx="610" cy="321" r="2.5" fill="red" /><circle cx="613" cy="317" r="2.5" fill="red" /><circle cx="613" cy="321" r="2.5" fill="red" /><circle cx="615" cy="321" r="2.5" fill="red" /><circle cx="616" cy="319" r="2.5" fill="red" /><circle cx="617" cy="321" r="2.5" fill="red" /><circle cx="617" cy="321" r="2.5" fill="red" /><circle cx="619" cy="321" r="2.5" fill="red" /><circle cx="620" cy="317" r="2.5" fill="red" /><circle cx="623" cy="321" r="2.5" fill="red" /><circle cx="623" cy="319" r="2.5" fill="red" /><circle cx="624" cy="321" r="2.5" fill="red" /><circle cx="624" cy="321" r="2.5" fill="red" /><circle cx="634" cy="319" r="2.5" fill="red" /><circle cx="634" cy="321" r="2.5" fill="red" /><circle cx="635" cy="321" r="2.5" fill="red" /><circle cx="638" cy="319" r="2.5" fill="red" /><circle cx="638" cy="321" r="2.5" fill="red" /><circle cx="638" cy="321" r="2.5" fill="red" /><circle cx="639" cy="321" r="2.5" fill="red" /><circle cx="639" cy="321" r="2.5" fill="red" /><circle cx="641" cy="321" r="2.5" fill="red" /><circle cx="641" cy="321" r="2.5" fill="red" /><circle cx="645" cy="317" r="2.5" fill="red" /><circle cx="645" cy="321" r="2.5" fill="red" /><circle cx="645" cy="321" r="2.5" fill="red" /><circle cx="646" cy="321" r="2.5" fill="red" /><circle cx="649" cy="319" r="2.5" fill="red" /><circle cx="649" cy="321" r="2.5" fill="red" /><circle cx="649" cy="319" r="2.5" fill="red" /><circle cx="649" cy="319" r="2.5" fill="red" /><circle cx="649" cy="321" r="2.5" fill="red" /><circle cx="650" cy="321" r="2.5" fill="red" /><circle cx="650" cy="321" r="2.5" fill="red" /><circle cx="650" cy="317" r="2.5" fill="red" /><circle cx="650" cy="319" r="2.5" fill="red" /><circle cx="650" cy="321" r="2.5" fill="red" /><circle cx="660" cy="321" r="2.5" fill="red" /><circle cx="660" cy="321" r="2.5" fill="red" /><circle cx="660" cy="321" r="2.5" fill="red" /><circle cx="660" cy="317" r="2.5" fill="red" /><circle cx="660" cy="321" r="2.5" fill="red" /><circle cx="660" cy="319" r="2.5" fill="red" /><circle cx="661" cy="321" r="2.5" fill="red" /><circle cx="661" cy="321" r="2.5" fill="red" /><circle cx="662" cy="321" r="2.5" fill="red" /><circle cx="663" cy="321" r="2.5" fill="red" /><circle cx="663" cy="321" r="2.5" fill="red" /><circle cx="663" cy="321" r="2.5" fill="red" /><circle cx="663" cy="319" r="2.5" fill="red" /><circle cx="664" cy="321" r="2.5" fill="red" /><circle cx="664" cy="321" r="2.5" fill="red" /><circle cx="667" cy="319" r="2.5" fill="red" /><circle cx="667" cy="321" r="2.5" fill="red" /><circle cx="667" cy="321" r="2.5" fill="red" /><circle cx="667" cy="321" r="2.5" fill="red" /><circle cx="668" cy="317" r="2.5" fill="red" /><circle cx="668" cy="321" r="2.5" fill="red" /><circle cx="668" cy="321" r="2.5" fill="red" /><circle cx="670" cy="321" r="2.5" fill="red" /><circle cx="670" cy="321" r="2.5" fill="red" /><circle cx="670" cy="317" r="2.5" fill="red" /><circle cx="671" cy="321" r="2.5" fill="red" /><circle cx="671" cy="321" r="2.5" fill="red" /><circle cx="674" cy="321" r="2.5" fill="red" /><circle cx="674" cy="319" r="2.5" fill="red" /><circle cx="674" cy="319" r="2.5" fill="red" /><circle cx="675" cy="321" r="2.5" fill="red" /><circle cx="685" cy="317" r="2.5" fill="red" /><circle cx="685" cy="321" r="2.5" fill="red" /><circle cx="688" cy="319" r="2.5" fill="red" /><circle cx="689" cy="321" r="2.5" fill="red" /><circle cx="692" cy="321" r="2.5" fill="red" /><circle cx="692" cy="321" r="2.5" fill="red" /><circle cx="693" cy="321" r="2.5" fill="red" /><circle cx="693" cy="321" r="2.5" fill="red" /><circle cx="696" cy="317" r="2.5" fill="red" /><circle cx="696" cy="321" r="2.5" fill="red" /><circle cx="696" cy="321" r="2.5" fill="red" /><circle cx="697" cy="321" r="2.5" fill="red" /><circle cx="697" cy="317" r="2.5" fill="red" /><circle cx="697" cy="321" r="2.5" fill="red" /><circle cx="699" cy="319" r="2.5" fill="red" /><circle cx="700" cy="321" r="2.5" fill="red" /><circle cx="700" cy="321" r="2.5" fill="red" /><circle cx="700" cy="321" r="2.5" fill="red" /><circle cx="710" cy="321" r="2.5" fill="red" /><circle cx="710" cy="321" r="2.5" fill="red" /><circle cx="710" cy="319" r="2.5" fill="red" /><circle cx="711" cy="321" r="2.5" fill="red" /><circle cx="711" cy="321" r="2.5" fill="red" /><circle cx="711" cy="321" r="2.5" fill="red" /><circle cx="711" cy="321" r="2.5" fill="red" /><circle cx="714" cy="321" r="2.5" fill="red" /><circle cx="714" cy="321" r="2.5" fill="red" /><circle cx="715" cy="321" r="2.5" fill="red" /><circle cx="717" cy="317" r="2.5" fill="red" /><circle cx="718" cy="321" r="2.5" fill="red" /><circle cx="718" cy="321" r="2.5" fill="red" /><circle cx="718" cy="321" r="2.5" fill="red" /><circle cx="721" cy="315" r="2.5" fill="red" /><circle cx="721" cy="321" r="2.5" fill="red" /><circle cx="721" cy="321" r="2.5" fill="red" /><circle cx="722" cy="321" r="2.5" fill="red" /><circle cx="722" cy="319" r="2.5" fill="red" /><circle cx="722" cy="321" r="2.5" fill="red" /><circle cx="722" cy="321" r="2.5" fill="red" /><circle cx="722" cy="315" r="2.5" fill="red" /><circle cx="723" cy="313" r="2.5" fill="red" /><circle cx="725" cy="321" r="2.5" fill="red" /><circle cx="725" cy="317" r="2.5" fill="red" /><circle cx="725" cy="313" r="2.5" fill="red" /><circle cx="725" cy="321" r="2.5" fill="red" /><circle cx="725" cy="321" r="2.5" fill="red" /><circle cx="725" cy="319" r="2.5" fill="red" /><circle cx="725" cy="321" r="2.5" fill="red" /><circle cx="725" cy="321" r="2.5" fill="red" /><circle cx="726" cy="321" r="2.5" fill="red" /><circle cx="727" cy="321" r="2.5" fill="red" /><circle cx="735" cy="319" r="2.5" fill="red" /><circle cx="736" cy="321" r="2.5" fill="red" /><circle cx="736" cy="319" r="2.5" fill="red" /><circle cx="736" cy="321" r="2.5" fill="red" /><circle cx="738" cy="321" r="2.5" fill="red" /><circle cx="739" cy="319" r="2.5" fill="red" /><circle cx="743" cy="319" r="2.5" fill="red" /><circle cx="746" cy="317" r="2.5" fill="red" /><circle cx="750" cy="321" r="2.5" fill="red" /><circle cx="750" cy="319" r="2.5" fill="red" /><circle cx="761" cy="321" r="2.5" fill="red" /><circle cx="764" cy="321" r="2.5" fill="red" /><circle cx="764" cy="317" r="2.5" fill="red" /><circle cx="765" cy="321" r="2.5" fill="red" /><circle cx="765" cy="315" r="2.5" fill="red" /><circle cx="766" cy="319" r="2.5" fill="red" /><circle cx="768" cy="315" r="2.5" fill="red" /><circle cx="772" cy="317" r="2.5" fill="red" /><circle cx="775" cy="319" r="2.5" fill="red" /><circle cx="775" cy="321" r="2.5" fill="red" /><circle cx="775" cy="321" r="2.5" fill="red" /><circle cx="786" cy="321" r="2.5" fill="red" /><circle cx="786" cy="319" r="2.5" fill="red" /><circle cx="790" cy="319" r="2.5" fill="red" /><circle cx="793" cy="319" r="2.5" fill="red" /><circle cx="794" cy="321" r="2.5" fill="red" /><circle cx="797" cy="317" r="2.5" fill="red" /><circle cx="801" cy="321" r="2.5" fill="red" /><circle cx="801" cy="321" r="2.5" fill="red" /><circle cx="801" cy="321" r="2.5" fill="red" /><circle cx="801" cy="321" r="2.5" fill="red" /><circle cx="811" cy="321" r="2.5" fill="red" /><circle cx="812" cy="321" r="2.5" fill="red" /><circle cx="815" cy="319" r="2.5" fill="red" /><circle cx="815" cy="321" r="2.5" fill="red" /><circle cx="815" cy="321" r="2.5" fill="red" /><circle cx="815" cy="321" r="2.5" fill="red" /><circle cx="815" cy="321" r="2.5" fill="red" /><circle cx="819" cy="319" r="2.5" fill="red" /><circle cx="822" cy="321" r="2.5" fill="red" /><circle cx="822" cy="319" r="2.5" fill="red" /><circle cx="823" cy="321" r="2.5" fill="red" /><circle cx="823" cy="321" r="2.5" fill="red" /><circle cx="826" cy="317" r="2.5" fill="red" /><circle cx="837" cy="321" r="2.5" fill="red" /><circle cx="837" cy="321" r="2.5" fill="red" /><circle cx="840" cy="319" r="2.5" fill="red" /><circle cx="840" cy="321" r="2.5" fill="red" /><circle cx="844" cy="317" r="2.5" fill="red" /><circle cx="848" cy="319" r="2.5" fill="red" /><circle cx="851" cy="319" r="2.5" fill="red" /><circle cx="851" cy="321" r="2.5" fill="red" /><circle cx="862" cy="317" r="2.5" fill="red" /><circle cx="862" cy="319" r="2.5" fill="red" /><circle cx="862" cy="321" r="2.5" fill="red" /><circle cx="862" cy="319" r="2.5" fill="red" /><circle cx="866" cy="317" r="2.5" fill="red" /><circle cx="887" cy="317" r="2.5" fill="red" /><circle cx="887" cy="321" r="2.5" fill="red" /><circle cx="888" cy="321" r="2.5" fill="red" /><circle cx="891" cy="317" r="2.5" fill="red" /><circle cx="891" cy="317" r="2.5" fill="red" /><circle cx="895" cy="317" r="2.5" fill="red" /><circle cx="898" cy="319" r="2.5" fill="red" /><circle cx="902" cy="315" r="2.5" fill="red" /><circle cx="913" cy="319" r="2.5" fill="red" /><circle cx="913" cy="319" r="2.5" fill="red" /><circle cx="913" cy="321" r="2.5" fill="red" /><circle cx="916" cy="319" r="2.5" fill="red" /><circle cx="920" cy="319" r="2.5" fill="red" /><circle cx="924" cy="319" r="2.5" fill="red" /><circle cx="927" cy="313" r="2.5" fill="red" /><circle cx="928" cy="319" r="2.5" fill="red" /><circle cx="938" cy="321" r="2.5" fill="red" /><circle cx="939" cy="321" r="2.5" fill="red" /><circle cx="941" cy="122" r="2.5" fill="red" /><circle cx="945" cy="321" r="2.5" fill="red" /><circle cx="949" cy="321" r="2.5" fill="red" /><circle cx="952" cy="319" r="2.5" fill="red" /><circle cx="967" cy="321" r="2.5" fill="red" /><circle cx="971" cy="306" r="2.5" fill="red" /><circle cx="973" cy="313" r="2.5" fill="red" /><circle cx="974" cy="321" r="2.5" fill="red" /><circle cx="974" cy="321" r="2.5" fill="red" /><circle cx="978" cy="319" r="2.5" fill="red" /><circle cx="989" cy="321" r="2.5" fill="red" /><circle cx="992" cy="319" r="2.5" fill="red" /><circle cx="996" cy="319" r="2.5" fill="red" /><circle cx="996" cy="321" r="2.5" fill="red" /><circle cx="999" cy="317" r="2.5" fill="red" /><circle cx="1000" cy="321" r="2.5" fill="red" /><circle cx="1003" cy="319" r="2.5" fill="red" /><circle cx="1018" cy="321" r="2.5" fill="red" /><circle cx="1018" cy="321" r="2.5" fill="red" /><circle cx="1021" cy="315" r="2.5" fill="red" /><circle cx="1025" cy="315" r="2.5" fill="red" /><circle cx="1028" cy="319" r="2.5" fill="red" /><circle cx="1039" cy="319" r="2.5" fill="red" /><circle cx="1043" cy="319" r="2.5" fill="red" /><circle cx="1046" cy="317" r="2.5" fill="red" /><circle cx="1050" cy="319" r="2.5" fill="red" /><circle cx="1054" cy="313" r="2.5" fill="red" /><circle cx="1065" cy="321" r="2.5" fill="red" /><circle cx="1072" cy="319" r="2.5" fill="red" /><circle cx="1073" cy="321" r="2.5" fill="red" /><circle cx="1075" cy="321" r="2.5" fill="red" /><circle cx="1079" cy="321" r="2.5" fill="red" /><circle cx="1090" cy="321" r="2.5" fill="red" /><circle cx="1090" cy="321" r="2.5" fill="red" /><circle cx="1090" cy="321" r="2.5" fill="red" /><circle cx="1090" cy="321" r="2.5" fill="red" /><circle cx="1093" cy="321" r="2.5" fill="red" /><circle cx="1093" cy="321" r="2.5" fill="red" /><circle cx="1093" cy="321" r="2.5" fill="red" /><circle cx="1094" cy="319" r="2.5" fill="red" /><circle cx="1094" cy="321" r="2.5" fill="red" /><circle cx="1094" cy="321" r="2.5" fill="red" /><circle cx="1097" cy="321" r="2.5" fill="red" /><circle cx="1101" cy="321" r="2.5" fill="red" /><circle cx="1101" cy="321" r="2.5" fill="red" /><circle cx="1104" cy="319" r="2.5" fill="red" /><circle cx="1119" cy="319" r="2.5" fill="red" /><circle cx="1122" cy="321" r="2.5" fill="red" /><circle cx="1124" cy="315" r="2.5" fill="red" /><circle cx="1126" cy="319" r="2.5" fill="red" /><circle cx="1130" cy="319" r="2.5" fill="red" /><circle cx="1144" cy="321" r="2.5" fill="red" /><circle cx="1148" cy="317" r="2.5" fill="red" /><circle cx="1151" cy="319" r="2.5" fill="red" /><circle cx="1155" cy="313" r="2.5" fill="red" /><circle cx="1166" cy="321" r="2.5" fill="red" /><circle cx="1166" cy="321" r="2.5" fill="red" /><circle cx="1169" cy="313" r="2.5" fill="red" /><circle cx="1177" cy="304" r="2.5" fill="red" /><circle cx="1180" cy="315" r="2.5" fill="red" /><circle cx="1195" cy="319" r="2.5" fill="red" /><circle cx="1198" cy="317" r="2.5" fill="red" /><circle cx="1198" cy="321" r="2.5" fill="red" /><circle cx="1202" cy="321" r="2.5" fill="red" /><circle cx="1202" cy="319" r="2.5" fill="red" /><circle cx="1206" cy="319" r="2.5" fill="red" /><circle cx="1220" cy="315" r="2.5" fill="red" /><circle cx="1224" cy="315" r="2.5" fill="red" /><circle cx="1227" cy="315" r="2.5" fill="red" /><circle cx="1230" cy="319" r="2.5" fill="red" /><circle cx="1231" cy="317" r="2.5" fill="red" /><circle cx="1233" cy="319" r="2.5" fill="red" /><circle cx="1242" cy="317" r="2.5" fill="red" /><circle cx="1242" cy="321" r="2.5" fill="red" /><circle cx="1242" cy="321" r="2.5" fill="red" /><circle cx="1243" cy="321" r="2.5" fill="red" /><circle cx="1243" cy="321" r="2.5" fill="red" /><circle cx="1243" cy="321" r="2.5" fill="red" /><circle cx="1243" cy="321" r="2.5" fill="red" /><circle cx="1245" cy="317" r="2.5" fill="red" /><circle cx="1249" cy="317" r="2.5" fill="red" /><circle cx="1253" cy="319" r="2.5" fill="red" /><circle cx="1253" cy="313" r="2.5" fill="red" /><circle cx="1253" cy="321" r="2.5" fill="red" /><circle cx="1254" cy="321" r="2.5" fill="red" /><circle cx="1255" cy="122" r="2.5" fill="red" /><circle cx="1271" cy="319" r="2.5" fill="red" /><circle cx="1271" cy="321" r="2.5" fill="red" /><circle cx="1273" cy="321" r="2.5" fill="red" /><circle cx="1274" cy="317" r="2.5" fill="red" /><circle cx="1278" cy="321" r="2.5" fill="red" /><circle cx="1278" cy="315" r="2.5" fill="red" /><circle cx="1282" cy="317" r="2.5" fill="red" /><circle cx="1296" cy="321" r="2.5" fill="red" /><circle cx="1299" cy="321" r="2.5" fill="red" /><circle cx="1300" cy="321" r="2.5" fill="red" /><circle cx="1300" cy="321" r="2.5" fill="red" /><circle cx="1303" cy="319" r="2.5" fill="red" /><circle cx="1307" cy="317" r="2.5" fill="red" /><circle cx="1307" cy="309" r="2.5" fill="red" /><circle cx="1308" cy="321" r="2.5" fill="red" /><circle cx="1321" cy="321" r="2.5" fill="red" /><circle cx="1329" cy="319" r="2.5" fill="red" /><circle cx="1332" cy="321" r="2.5" fill="red" /><circle cx="1344" cy="321" r="2.5" fill="red" /><circle cx="1344" cy="319" r="2.5" fill="red" /><circle cx="1344" cy="321" r="2.5" fill="red" /><circle cx="1347" cy="319" r="2.5" fill="red" /><circle cx="1347" cy="321" r="2.5" fill="red" /><circle cx="1347" cy="321" r="2.5" fill="red" /><circle cx="1347" cy="319" r="2.5" fill="red" /><circle cx="1348" cy="319" r="2.5" fill="red" /><circle cx="1348" cy="319" r="2.5" fill="red" /><circle cx="1350" cy="321" r="2.5" fill="red" /><circle cx="1350" cy="321" r="2.5" fill="red" /><circle cx="1351" cy="321" r="2.5" fill="red" /><circle cx="1351" cy="321" r="2.5" fill="red" /><circle cx="1351" cy="321" r="2.5" fill="red" /><circle cx="1352" cy="321" r="2.5" fill="red" /><circle cx="1353" cy="321" r="2.5" fill="red" /><circle cx="1354" cy="319" r="2.5" fill="red" /><circle cx="1360" cy="319" r="2.5" fill="red" /><circle cx="1360" cy="321" r="2.5" fill="red" /><circle cx="1360" cy="321" r="2.5" fill="red" /><circle cx="1361" cy="321" r="2.5" fill="red" /><circle cx="1361" cy="321" r="2.5" fill="red" /><circle cx="1361" cy="321" r="2.5" fill="red" /><circle cx="1368" cy="319" r="2.5" fill="red" /><circle cx="1368" cy="321" r="2.5" fill="red" /><circle cx="1369" cy="319" r="2.5" fill="red" /><circle cx="1370" cy="264" r="2.5" fill="red" /><circle cx="1370" cy="313" r="2.5" fill="red" /><circle cx="1372" cy="319" r="2.5" fill="red" /><circle cx="1372" cy="313" r="2.5" fill="red" /><circle cx="1376" cy="319" r="2.5" fill="red" /><circle cx="1376" cy="321" r="2.5" fill="red" /><circle cx="1376" cy="321" r="2.5" fill="red" /></svg>