<svg xmlns="http://www.w3.org/2000/svg" width="1400" height="380"><line x1="60" y1="20" x2="60" y2="325" stroke="#e5e7eb" stroke-width="1" /><line x1="172" y1="20" x2="172" y2="325" stroke="#e5e7eb" stroke-width="1" /><line x1="273" y1="20" x2="273" y2="325" stroke="#e5e7eb" stroke-width="1" /><line x1="385" y1="20" x2="385" y2="325" stroke="#e5e7eb" stroke-width="1" /><line x1="493" y1="20" x2="493" y2="325" stroke="#e5e7eb" stroke-width="1" /><line x1="606" y1="20" x2="606" y2="325" stroke="#e5e7eb" stroke-width="1" /><line x1="714" y1="20" x2="714" y2="325" stroke="#e5e7eb" stroke-width="1" /><line x1="826" y1="20" x2="826" y2="325" stroke="#e5e7eb" stroke-width="1" /><line x1="938" y1="20" x2="938" y2="325" stroke="#e5e7eb" stroke-width="1" /><line x1="1047" y1="20" x2="1047" y2="325" stroke="#e5e7eb" stroke-width="1" /><line x1="1159" y1="20" x2="1159" y2="325" stroke="#e5e7eb" stroke-width="1" /><line x1="1267" y1="20" x2="1267" y2="325" stroke="#e5e7eb" stroke-width="1" /><line x1="60" y1="317" x2="1380" y2="317" stroke="#e5e7eb" stroke-width="1" /><line x1="60" y1="300" x2="1380" y2="300" stroke="#e5e7eb" stroke-width="1" /><line x1="60" y1="275" x2="1380" y2="275" stroke="#e5e7eb" stroke-width="1" /><line x1="60" y1="224" x2="1380" y2="224" stroke="#e5e7eb" stroke-width="1" /><line x1="60" y1="173" x2="1380" y2="173" stroke="#e5e7eb" stroke-width="1" /><line x1="60" y1="20" x2="1380" y2="20" stroke="#e5e7eb" stroke-width="1" /><line x1="60" y1="325" x2="1380" y2="325" stroke="black" stroke-width="1"/><line x1="60" y1="20" x2="60" y2="325" stroke="black" stroke-width="1"/><text x="720.0" y="362" font-size="12" text-anchor="middle">Time (UTC, 2007)</text><text x="18" y="172.5" font-size="12" transform="rotate(-90, 18, 172.5)" text-anchor="middle">Gap duration (minutes)</text><line x1="60" y1="325" x2="60" y2="330" stroke="black" stroke-width="1"/><text x="60" y="343" font-size="10" text-anchor="middle">Jan</text><line x1="172" y1="325" x2="172" y2="330" stroke="black" stroke-width="1"/><text x="172" y="343" font-size="10" text-anchor="middle">Feb</text><line x1="273" y1="325" x2="273" y2="330" stroke="black" stroke-width="1"/><text x="273" y="343" font-size="10" text-anchor="middle">Mar</text><line x1="385" y1="325" x2="385" y2="330" stroke="black" stroke-width="1"/><text x="385" y="343" font-size="10" text-anchor="middle">Apr</text><line x1="493" y1="325" x2="493" y2="330" stroke="black" stroke-width="1"/><text x="493" y="343" font-size="10" text-anchor="middle">May</text><line x1="606" y1="325" x2="606" y2="330" stroke="black" stroke-width="1"/><text x="606" y="343" font-size="10" text-anchor="middle">Jun</text><line x1="714" y1="325" x2="714" y2="330" stroke="black" stroke-width="1"/><text x="714" y="343" font-size="10" text-anchor="middle">Jul</text><line x1="826" y1="325" x2="826" y2="330" stroke="black" stroke-width="1"/><text x="826" y="343" font-size="10" text-anchor="middle">Aug</text><line x1="938" y1="325" x2="938" y2="330" stroke="black" stroke-width="1"/><text x="938" y="343" font-size="10" text-anchor="middle">Sep</text><line x1="1047" y1="325" x2="1047" y2="330" stroke="black" stroke-width="1"/><text x="1047" y="343" font-size="10" text-anchor="middle">Oct</text><line x1="1159" y1="325" x2="1159" y2="330" stroke="black" stroke-width="1"/><text x="1159" y="343" font-size="10" text-anchor="middle">Nov</text><line x1="1267" y1="325" x2="1267" y2="330" stroke="black" stroke-width="1"/><text x="1267" y="343" font-size="10" text-anchor="middle">Dec</text><line x1="55" y1="317" x2="60" y2="317" stroke="black" stroke-width="1"/><text x="52" y="320" font-size="10" text-anchor="end">10</text><line x1="55" y1="300" x2="60" y2="300" stroke="black" stroke-width="1"/><text x="52" y="303" font-size="10" text-anchor="end">30</text><line x1="55" y1="275" x2="60" y2="275" stroke="black" stroke-width="1"/><text x="52" y="278" font-size="10" text-anchor="end">60</text><line x1="55" y1="224" x2="60" y2="224" stroke="black" stroke-width="1"/><text x="52" y="227" font-size="10" text-anchor="end">120</text><line x1="55" y1="173" x2="60" y2="173" stroke="black" stroke-width="1"/><text x="52" y="176" font-size="10" text-anchor="end">180</text><line x1="55" y1="20" x2="60" y2="20" stroke="black" stroke-width="1"/><text x="52" y="23" font-size="10" text-anchor="end">360</text><circle cx="64" cy="317" r="2.5" fill="red" /><circle cx="64" cy="317" r="2.5" fill="red" /><circle cx="66" cy="317" r="2.5" fill="red" /><circle cx="66" cy="317" r="2.5" fill="red" /><circle cx="67" cy="317" r="2.5" fill="red" /><circle cx="67" cy="317" r="2.5" fill="red" /><circle cx="68" cy="317" r="2.5" fill="red" /><circle cx="68" cy="317" r="2.5" fill="red" /><circle cx="70" cy="317" r="2.5" fill="red" /><circle cx="71" cy="317" r="2.5" fill="red" /><circle cx="85" cy="309" r="2.5" fill="red" /><circle cx="85" cy="317" r="2.5" fill="red" /><circle cx="85" cy="317" r="2.5" fill="red" /><circle cx="86" cy="317" r="2.5" fill="red" /><circle cx="86" cy="317" r="2.5" fill="red" /><circle cx="86" cy="317" r="2.5" fill="red" /><circle cx="88" cy="317" r="2.5" fill="red" /><circle cx="88" cy="317" r="2.5" fill="red" /><circle cx="96" cy="317" r="2.5" fill="red" /><circle cx="96" cy="317" r="2.5" fill="red" /><circle cx="96" cy="317" r="2.5" fill="red" /><circle cx="97" cy="313" r="2.5" fill="red" /><circle cx="97" cy="317" r="2.5" fill="red" /><circle cx="110" cy="317" r="2.5" fill="red" /><circle cx="111" cy="317" r="2.5" fill="red" /><circle cx="111" cy="317" r="2.5" fill="red" /><circle cx="113" cy="313" r="2.5" fill="red" /><circle cx="114" cy="317" r="2.5" fill="red" /><circle cx="114" cy="317" r="2.5" fill="red" /><circle cx="114" cy="317" r="2.5" fill="red" /><circle cx="118" cy="317" r="2.5" fill="red" /><circle cx="118" cy="317" r="2.5" fill="red" /><circle cx="118" cy="309" r="2.5" fill="red" /><circle cx="120" cy="317" r="2.5" fill="red" /><circle cx="124" cy="317" r="2.5" fill="red" /><circle cx="125" cy="317" r="2.5" fill="red" /><circle cx="125" cy="317" r="2.5" fill="red" /><circle cx="135" cy="317" r="2.5" fill="red" /><circle cx="135" cy="313" r="2.5" fill="red" /><circle cx="136" cy="317" r="2.5" fill="red" /><circle cx="136" cy="317" r="2.5" fill="red" /><circle cx="136" cy="317" r="2.5" fill="red" /><circle cx="139" cy="317" r="2.5" fill="red" /><circle cx="139" cy="317" r="2.5" fill="red" /><circle cx="140" cy="317" r="2.5" fill="red" /><circle cx="140" cy="317" r="2.5" fill="red" /><circle cx="147" cy="317" r="2.5" fill="red" /><circle cx="150" cy="317" r="2.5" fill="red" /><circle cx="150" cy="317" r="2.5" fill="red" /><circle cx="151" cy="313" r="2.5" fill="red" /><circle cx="161" cy="317" r="2.5" fill="red" /><circle cx="161" cy="317" r="2.5" fill="red" /><circle cx="162" cy="317" r="2.5" fill="red" /><circle cx="164" cy="317" r="2.5" fill="red" /><circle cx="167" cy="317" r="2.5" fill="red" /><circle cx="167" cy="317" r="2.5" fill="red" /><circle cx="168" cy="317" r="2.5" fill="red" /><circle cx="169" cy="317" r="2.5" fill="red" /><circle cx="172" cy="317" r="2.5" fill="red" /><circle cx="175" cy="317" r="2.5" fill="red" /><circle cx="175" cy="317" r="2.5" fill="red" /><circle cx="175" cy="317" r="2.5" fill="red" /><circle cx="176" cy="317" r="2.5" fill="red" /><circle cx="176" cy="317" r="2.5" fill="red" /><circle cx="176" cy="313" r="2.5" fill="red" /><circle cx="176" cy="317" r="2.5" fill="red" /><circle cx="176" cy="313" r="2.5" fill="red" /><circle cx="176" cy="317" r="2.5" fill="red" /><circle cx="178" cy="317" r="2.5" fill="red" /><circle cx="178" cy="317" r="2.5" fill="red" /><circle cx="189" cy="317" r="2.5" fill="red" /><circle cx="189" cy="317" r="2.5" fill="red" /><circle cx="189" cy="317" r="2.5" fill="red" /><circle cx="189" cy="317" r="2.5" fill="red" /><circle cx="190" cy="317" r="2.5" fill="red" /><circle cx="190" cy="317" r="2.5" fill="red" /><circle cx="190" cy="317" r="2.5" fill="red" /><circle cx="190" cy="317" r="2.5" fill="red" /><circle cx="190" cy="317" r="2.5" fill="red" /><circle cx="190" cy="317" r="2.5" fill="red" /><circle cx="193" cy="317" r="2.5" fill="red" /><circle cx="193" cy="317" r="2.5" fill="red" /><circle cx="193" cy="317" r="2.5" fill="red" /><circle cx="193" cy="317" r="2.5" fill="red" /><circle cx="194" cy="317" r="2.5" fill="red" /><circle cx="196" cy="317" r="2.5" fill="red" /><circle cx="200" cy="317" r="2.5" fill="red" /><circle cx="201" cy="317" r="2.5" fill="red" /><circle cx="201" cy="309" r="2.5" fill="red" /><circle cx="201" cy="317" r="2.5" fill="red" /><circle cx="201" cy="317" r="2.5" fill="red" /><circle cx="201" cy="317" r="2.5" fill="red" /><circle cx="201" cy="317" r="2.5" fill="red" /><circle cx="203" cy="317" r="2.5" fill="red" /><circle cx="212" cy="317" r="2.5" fill="red" /><circle cx="212" cy="317" r="2.5" fill="red" /><circle cx="214" cy="317" r="2.5" fill="red" /><circle cx="214" cy="317" r="2.5" fill="red" /><circle cx="215" cy="317" r="2.5" fill="red" /><circle cx="215" cy="317" r="2.5" fill="red" /><circle cx="215" cy="317" r="2.5" fill="red" /><circle cx="216" cy="317" r="2.5" fill="red" /><circle cx="216" cy="317" r="2.5" fill="red" /><circle cx="216" cy="317" r="2.5" fill="red" /><circle cx="218" cy="317" r="2.5" fill="red" /><circle cx="218" cy="313" r="2.5" fill="red" /><circle cx="218" cy="317" r="2.5" fill="red" /><circle cx="218" cy="317" r="2.5" fill="red" /><circle cx="218" cy="317" r="2.5" fill="red" /><circle cx="219" cy="317" r="2.5" fill="red" /><circle cx="219" cy="317" r="2.5" fill="red" /><circle cx="219" cy="317" r="2.5" fill="red" /><circle cx="226" cy="317" r="2.5" fill="red" /><circle cx="226" cy="317" r="2.5" fill="red" /><circle cx="229" cy="317" r="2.5" fill="red" /><circle cx="229" cy="317" r="2.5" fill="red" /><circle cx="236" cy="317" r="2.5" fill="red" /><circle cx="237" cy="317" r="2.5" fill="red" /><circle cx="238" cy="317" r="2.5" fill="red" /><circle cx="239" cy="317" r="2.5" fill="red" /><circle cx="239" cy="317" r="2.5" fill="red" /><circle cx="240" cy="317" r="2.5" fill="red" /><circle cx="240" cy="317" r="2.5" fill="red" /><circle cx="240" cy="317" r="2.5" fill="red" /><circle cx="243" cy="317" r="2.5" fill="red" /><circle cx="244" cy="317" r="2.5" fill="red" /><circle cx="244" cy="317" r="2.5" fill="red" /><circle cx="244" cy="317" r="2.5" fill="red" /><circle cx="246" cy="317" r="2.5" fill="red" /><circle cx="247" cy="317" r="2.5" fill="red" /><circle cx="247" cy="317" r="2.5" fill="red" /><circle cx="247" cy="317" r="2.5" fill="red" /><circle cx="251" cy="317" r="2.5" fill="red" /><circle cx="251" cy="317" r="2.5" fill="red" /><circle cx="252" cy="317" r="2.5" fill="red" /><circle cx="252" cy="317" r="2.5" fill="red" /><circle cx="253" cy="317" r="2.5" fill="red" /><circle cx="254" cy="317" r="2.5" fill="red" /><circle cx="254" cy="313" r="2.5" fill="red" /><circle cx="265" cy="317" r="2.5" fill="red" /><circle cx="266" cy="317" r="2.5" fill="red" /><circle cx="266" cy="317" r="2.5" fill="red" /><circle cx="269" cy="317" r="2.5" fill="red" /><circle cx="277" cy="317" r="2.5" fill="red" /><circle cx="277" cy="317" r="2.5" fill="red" /><circle cx="294" cy="317" r="2.5" fill="red" /><circle cx="295" cy="317" r="2.5" fill="red" /><circle cx="301" cy="317" r="2.5" fill="red" /><circle cx="312" cy="317" r="2.5" fill="red" /><circle cx="313" cy="313" r="2.5" fill="red" /><circle cx="313" cy="317" r="2.5" fill="red" /><circle cx="313" cy="313" r="2.5" fill="red" /><circle cx="313" cy="317" r="2.5" fill="red" /><circle cx="317" cy="313" r="2.5" fill="red" /><circle cx="323" cy="317" r="2.5" fill="red" /><circle cx="323" cy="317" r="2.5" fill="red" /><circle cx="324" cy="317" r="2.5" fill="red" /><circle cx="327" cy="317" r="2.5" fill="red" /><circle cx="327" cy="317" r="2.5" fill="red" /><circle cx="327" cy="317" r="2.5" fill="red" /><circle cx="345" cy="317" r="2.5" fill="red" /><circle cx="346" cy="309" r="2.5" fill="red" /><circle cx="346" cy="317" r="2.5" fill="red" /><circle cx="346" cy="317" r="2.5" fill="red" /><circle cx="346" cy="317" r="2.5" fill="red" /><circle cx="346" cy="317" r="2.5" fill="red" /><circle cx="349" cy="317" r="2.5" fill="red" /><circle cx="350" cy="317" r="2.5" fill="red" /><circle cx="350" cy="317" r="2.5" fill="red" /><circle cx="352" cy="317" r="2.5" fill="red" /><circle cx="352" cy="317" r="2.5" fill="red" /><circle cx="352" cy="317" r="2.5" fill="red" /><circle cx="353" cy="317" r="2.5" fill="red" /><circle cx="366" cy="317" r="2.5" fill="red" /><circle cx="367" cy="317" r="2.5" fill="red" /><circle cx="367" cy="317" r="2.5" fill="red" /><circle cx="368" cy="309" r="2.5" fill="red" /><circle cx="368" cy="317" r="2.5" fill="red" /><circle cx="370" cy="317" r="2.5" fill="red" /><circle cx="374" cy="317" r="2.5" fill="red" /><circle cx="375" cy="317" r="2.5" fill="red" /><circle cx="377" cy="317" r="2.5" fill="red" /><circle cx="378" cy="309" r="2.5" fill="red" /><circle cx="388" cy="317" r="2.5" fill="red" /><circle cx="389" cy="317" r="2.5" fill="red" /><circle cx="389" cy="317" r="2.5" fill="red" /><circle cx="390" cy="317" r="2.5" fill="red" /><circle cx="392" cy="317" r="2.5" fill="red" /><circle cx="392" cy="317" r="2.5" fill="red" /><circle cx="392" cy="317" r="2.5" fill="red" /><circle cx="392" cy="317" r="2.5" fill="red" /><circle cx="393" cy="317" r="2.5" fill="red" /><circle cx="393" cy="313" r="2.5" fill="red" /><circle cx="393" cy="313" r="2.5" fill="red" /><circle cx="393" cy="317" r="2.5" fill="red" /><circle cx="395" cy="317" r="2.5" fill="red" /><circle cx="396" cy="313" r="2.5" fill="red" /><circle cx="396" cy="317" r="2.5" fill="red" /><circle cx="399" cy="317" r="2.5" fill="red" /><circle cx="400" cy="317" r="2.5" fill="red" /><circle cx="400" cy="313" r="2.5" fill="red" /><circle cx="400" cy="317" r="2.5" fill="red" /><circle cx="400" cy="317" r="2.5" fill="red" /><circle cx="400" cy="317" r="2.5" fill="red" /><circle cx="402" cy="317" r="2.5" fill="red" /><circle cx="403" cy="317" r="2.5" fill="red" /><circle cx="403" cy="313" r="2.5" fill="red" /><circle cx="414" cy="317" r="2.5" fill="red" /><circle cx="414" cy="317" r="2.5" fill="red" /><circle cx="414" cy="317" r="2.5" fill="red" /><circle cx="414" cy="317" r="2.5" fill="red" /><circle cx="414" cy="317" r="2.5" fill="red" /><circle cx="414" cy="317" r="2.5" fill="red" /><circle cx="414" cy="313" r="2.5" fill="red" /><circle cx="414" cy="317" r="2.5" fill="red" /><circle cx="414" cy="313" r="2.5" fill="red" /><circle cx="414" cy="313" r="2.5" fill="red" /><circle cx="415" cy="317" r="2.5" fill="red" /><circle cx="415" cy="313" r="2.5" fill="red" /><circle cx="415" cy="313" r="2.5" fill="red" /><circle cx="415" cy="317" r="2.5" fill="red" /><circle cx="415" cy="313" r="2.5" fill="red" /><circle cx="415" cy="317" r="2.5" fill="red" /><circle cx="415" cy="313" r="2.5" fill="red" /><circle cx="417" cy="317" r="2.5" fill="red" /><circle cx="417" cy="317" r="2.5" fill="red" /><circle cx="417" cy="317" r="2.5" fill="red" /><circle cx="417" cy="317" r="2.5" fill="red" /><circle cx="417" cy="313" r="2.5" fill="red" /><circle cx="417" cy="313" r="2.5" fill="red" /><circle cx="418" cy="317" r="2.5" fill="red" /><circle cx="418" cy="317" r="2.5" fill="red" /><circle cx="420" cy="317" r="2.5" fill="red" /><circle cx="420" cy="317" r="2.5" fill="red" /><circle cx="421" cy="313" r="2.5" fill="red" /><circle cx="425" cy="317" r="2.5" fill="red" /><circle cx="425" cy="317" r="2.5" fill="red" /><circle cx="428" cy="317" r="2.5" fill="red" /><circle cx="428" cy="317" r="2.5" fill="red" /><circle cx="429" cy="317" r="2.5" fill="red" /><circle cx="439" cy="317" r="2.5" fill="red" /><circle cx="442" cy="317" r="2.5" fill="red" /><circle cx="442" cy="309" r="2.5" fill="red" /><circle cx="443" cy="317" r="2.5" fill="red" /><circle cx="443" cy="317" r="2.5" fill="red" /><circle cx="444" cy="317" r="2.5" fill="red" /><circle cx="446" cy="317" r="2.5" fill="red" /><circle cx="446" cy="317" r="2.5" fill="red" /><circle cx="446" cy="304" r="2.5" fill="red" /><circle cx="446" cy="313" r="2.5" fill="red" /><circle cx="447" cy="309" r="2.5" fill="red" /><circle cx="447" cy="317" r="2.5" fill="red" /><circle cx="447" cy="317" r="2.5" fill="red" /><circle cx="454" cy="317" r="2.5" fill="red" /><circle cx="456" cy="317" r="2.5" fill="red" /><circle cx="464" cy="317" r="2.5" fill="red" /><circle cx="465" cy="317" r="2.5" fill="red" /><circle cx="468" cy="317" r="2.5" fill="red" /><circle cx="468" cy="317" r="2.5" fill="red" /><circle cx="468" cy="317" r="2.5" fill="red" /><circle cx="468" cy="317" r="2.5" fill="red" /><circle cx="468" cy="317" r="2.5" fill="red" /><circle cx="473" cy="317" r="2.5" fill="red" /><circle cx="475" cy="317" r="2.5" fill="red" /><circle cx="476" cy="317" r="2.5" fill="red" /><circle cx="476" cy="317" r="2.5" fill="red" /><circle cx="476" cy="317" r="2.5" fill="red" /><circle cx="476" cy="317" r="2.5" fill="red" /><circle cx="478" cy="317" r="2.5" fill="red" /><circle cx="480" cy="317" r="2.5" fill="red" /><circle cx="490" cy="317" r="2.5" fill="red" /><circle cx="493" cy="317" r="2.5" fill="red" /><circle cx="493" cy="317" r="2.5" fill="red" /><circle cx="494" cy="313" r="2.5" fill="red" /><circle cx="494" cy="317" r="2.5" fill="red" /><circle cx="494" cy="317" r="2.5" fill="red" /><circle cx="498" cy="317" r="2.5" fill="red" /><circle cx="498" cy="317" r="2.5" fill="red" /><circle cx="500" cy="317" r="2.5" fill="red" /><circle cx="501" cy="317" r="2.5" fill="red" /><circle cx="501" cy="317" r="2.5" fill="red" /><circle cx="501" cy="317" r="2.5" fill="red" /><circle cx="501" cy="317" r="2.5" fill="red" /><circle cx="501" cy="313" r="2.5" fill="red" /><circle cx="504" cy="313" r="2.5" fill="red" /><circle cx="504" cy="317" r="2.5" fill="red" /><circle cx="504" cy="317" r="2.5" fill="red" /><circle cx="505" cy="317" r="2.5" fill="red" /><circle cx="505" cy="317" r="2.5" fill="red" /><circle cx="507" cy="317" r="2.5" fill="red" /><circle cx="515" cy="317" r="2.5" fill="red" /><circle cx="515" cy="317" r="2.5" fill="red" /><circle cx="515" cy="317" r="2.5" fill="red" /><circle cx="515" cy="296" r="2.5" fill="red" /><circle cx="517" cy="317" r="2.5" fill="red" /><circle cx="517" cy="317" r="2.5" fill="red" /><circle cx="518" cy="317" r="2.5" fill="red" /><circle cx="518" cy="317" r="2.5" fill="red" /><circle cx="518" cy="317" r="2.5" fill="red" /><circle cx="519" cy="317" r="2.5" fill="red" /><circle cx="519" cy="317" r="2.5" fill="red" /><circle cx="520" cy="317" r="2.5" fill="red" /><circle cx="522" cy="317" r="2.5" fill="red" /><circle cx="524" cy="317" r="2.5" fill="red" /><circle cx="526" cy="317" r="2.5" fill="red" /><circle cx="527" cy="317" r="2.5" fill="red" /><circle cx="527" cy="309" r="2.5" fill="red" /><circle cx="527" cy="317" r="2.5" fill="red" /><circle cx="529" cy="317" r="2.5" fill="red" /><circle cx="540" cy="317" r="2.5" fill="red" /><circle cx="540" cy="317" r="2.5" fill="red" /><circle cx="540" cy="317" r="2.5" fill="red" /><circle cx="540" cy="317" r="2.5" fill="red" /><circle cx="541" cy="317" r="2.5" fill="red" /><circle cx="542" cy="313" r="2.5" fill="red" /><circle cx="544" cy="317" r="2.5" fill="red" /><circle cx="544" cy="317" r="2.5" fill="red" /><circle cx="544" cy="317" r="2.5" fill="red" /><circle cx="544" cy="317" r="2.5" fill="red" /><circle cx="544" cy="317" r="2.5" fill="red" /><circle cx="544" cy="317" r="2.5" fill="red" /><circle cx="544" cy="313" r="2.5" fill="red" /><circle cx="544" cy="317" r="2.5" fill="red" /><circle cx="545" cy="317" r="2.5" fill="red" /><circle cx="545" cy="317" r="2.5" fill="red" /><circle cx="545" cy="313" r="2.5" fill="red" /><circle cx="545" cy="313" r="2.5" fill="red" /><circle cx="545" cy="317" r="2.5" fill="red" /><circle cx="547" cy="317" r="2.5" fill="red" /><circle cx="548" cy="317" r="2.5" fill="red" /><circle cx="548" cy="317" r="2.5" fill="red" /><circle cx="548" cy="317" r="2.5" fill="red" /><circle cx="549" cy="317" r="2.5" fill="red" /><circle cx="551" cy="317" r="2.5" fill="red" /><circle cx="552" cy="317" r="2.5" fill="red" /><circle cx="552" cy="317" r="2.5" fill="red" /><circle cx="552" cy="317" r="2.5" fill="red" /><circle cx="552" cy="317" r="2.5" fill="red" /><circle cx="554" cy="317" r="2.5" fill="red" /><circle cx="554" cy="313" r="2.5" fill="red" /><circle cx="555" cy="317" r="2.5" fill="red" /><circle cx="555" cy="317" r="2.5" fill="red" /><circle cx="555" cy="309" r="2.5" fill="red" /><circle cx="556" cy="317" r="2.5" fill="red" /><circle cx="556" cy="317" r="2.5" fill="red" /><circle cx="556" cy="317" r="2.5" fill="red" /><circle cx="556" cy="317" r="2.5" fill="red" /><circle cx="558" cy="313" r="2.5" fill="red" /><circle cx="566" cy="317" r="2.5" fill="red" /><circle cx="566" cy="317" r="2.5" fill="red" /><circle cx="566" cy="317" r="2.5" fill="red" /><circle cx="567" cy="317" r="2.5" fill="red" /><circle cx="567" cy="317" r="2.5" fill="red" /><circle cx="570" cy="313" r="2.5" fill="red" /><circle cx="570" cy="317" r="2.5" fill="red" /><circle cx="570" cy="317" r="2.5" fill="red" /><circle cx="570" cy="317" r="2.5" fill="red" /><circle cx="570" cy="317" r="2.5" fill="red" /><circle cx="571" cy="317" r="2.5" fill="red" /><circle cx="572" cy="317" r="2.5" fill="red" /><circle cx="572" cy="317" r="2.5" fill="red" /><circle cx="572" cy="317" r="2.5" fill="red" /><circle cx="572" cy="313" r="2.5" fill="red" /><circle cx="573" cy="317" r="2.5" fill="red" /><circle cx="573" cy="313" r="2.5" fill="red" /><circle cx="573" cy="317" r="2.5" fill="red" /><circle cx="573" cy="317" r="2.5" fill="red" /><circle cx="573" cy="317" r="2.5" fill="red" /><circle cx="574" cy="317" r="2.5" fill="red" /><circle cx="576" cy="317" r="2.5" fill="red" /><circle cx="577" cy="317" r="2.5" fill="red" /><circle cx="577" cy="317" r="2.5" fill="red" /><circle cx="577" cy="317" r="2.5" fill="red" /><circle cx="577" cy="317" r="2.5" fill="red" /><circle cx="578" cy="317" r="2.5" fill="red" /><circle cx="578" cy="317" r="2.5" fill="red" /><circle cx="578" cy="317" r="2.5" fill="red" /><circle cx="580" cy="317" r="2.5" fill="red" /><circle cx="580" cy="317" r="2.5" fill="red" /><circle cx="581" cy="317" r="2.5" fill="red" /><circle cx="583" cy="317" r="2.5" fill="red" /><circle cx="591" cy="296" r="2.5" fill="red" /><circle cx="591" cy="317" r="2.5" fill="red" /><circle cx="591" cy="313" r="2.5" fill="red" /><circle cx="591" cy="317" r="2.5" fill="red" /><circle cx="592" cy="317" r="2.5" fill="red" /><circle cx="592" cy="317" r="2.5" fill="red" /><circle cx="592" cy="300" r="2.5" fill="red" /><circle cx="592" cy="317" r="2.5" fill="red" /><circle cx="592" cy="309" r="2.5" fill="red" /><circle cx="592" cy="317" r="2.5" fill="red" /><circle cx="592" cy="317" r="2.5" fill="red" /><circle cx="592" cy="317" r="2.5" fill="red" /><circle cx="592" cy="317" r="2.5" fill="red" /><circle cx="593" cy="317" r="2.5" fill="red" /><circle cx="593" cy="317" r="2.5" fill="red" /><circle cx="593" cy="317" r="2.5" fill="red" /><circle cx="593" cy="317" r="2.5" fill="red" /><circle cx="593" cy="313" r="2.5" fill="red" /><circle cx="593" cy="317" r="2.5" fill="red" /><circle cx="593" cy="309" r="2.5" fill="red" /><circle cx="593" cy="317" r="2.5" fill="red" /><circle cx="593" cy="309" r="2.5" fill="red" /><circle cx="593" cy="317" r="2.5" fill="red" /><circle cx="593" cy="317" r="2.5" fill="red" /><circle cx="594" cy="317" r="2.5" fill="red" /><circle cx="594" cy="317" r="2.5" fill="red" /><circle cx="594" cy="317" r="2.5" fill="red" /><circle cx="594" cy="317" r="2.5" fill="red" /><circle cx="594" cy="270" r="2.5" fill="red" /><circle cx="594" cy="317" r="2.5" fill="red" /><circle cx="594" cy="313" r="2.5" fill="red" /><circle cx="594" cy="304" r="2.5" fill="red" /><circle cx="594" cy="279" r="2.5" fill="red" /><circle cx="594" cy="292" r="2.5" fill="red" /><circle cx="594" cy="313" r="2.5" fill="red" /><circle cx="595" cy="317" r="2.5" fill="red" /><circle cx="595" cy="313" r="2.5" fill="red" /><circle cx="595" cy="313" r="2.5" fill="red" /><circle cx="596" cy="317" r="2.5" fill="red" /><circle cx="599" cy="313" r="2.5" fill="red" /><circle cx="602" cy="317" r="2.5" fill="red" /><circle cx="602" cy="317" r="2.5" fill="red" /><circle cx="602" cy="317" r="2.5" fill="red" /><circle cx="602" cy="313" r="2.5" fill="red" /><circle cx="602" cy="313" r="2.5" fill="red" /><circle cx="605" cy="317" r="2.5" fill="red" /><circle cx="605" cy="317" r="2.5" fill="red" /><circle cx="605" cy="317" r="2.5" fill="red" /><circle cx="606" cy="313" r="2.5" fill="red" /><circle cx="606" cy="313" r="2.5" fill="red" /><circle cx="606" cy="313" r="2.5" fill="red" /><circle cx="606" cy="313" r="2.5" fill="red" /><circle cx="606" cy="313" r="2.5" fill="red" /><circle cx="606" cy="317" r="2.5" fill="red" /><circle cx="606" cy="317" r="2.5" fill="red" /><circle cx="607" cy="317" r="2.5" fill="red" /><circle cx="608" cy="317" r="2.5" fill="red" /><circle cx="616" cy="313" r="2.5" fill="red" /><circle cx="616" cy="317" r="2.5" fill="red" /><circle cx="617" cy="309" r="2.5" fill="red" /><circle cx="617" cy="317" r="2.5" fill="red" /><circle cx="617" cy="317" r="2.5" fill="red" /><circle cx="617" cy="317" r="2.5" fill="red" /><circle cx="617" cy="317" r="2.5" fill="red" /><circle cx="617" cy="317" r="2.5" fill="red" /><circle cx="617" cy="317" r="2.5" fill="red" /><circle cx="619" cy="317" r="2.5" fill="red" /><circle cx="619" cy="317" r="2.5" fill="red" /><circle cx="619" cy="313" r="2.5" fill="red" /><circle cx="620" cy="317" r="2.5" fill="red" /><circle cx="620" cy="317" r="2.5" fill="red" /><circle cx="620" cy="317" r="2.5" fill="red" /><circle cx="620" cy="317" r="2.5" fill="red" /><circle cx="621" cy="317" r="2.5" fill="red" /><circle cx="621" cy="313" r="2.5" fill="red" /><circle cx="621" cy="317" r="2.5" fill="red" /><circle cx="624" cy="317" r="2.5" fill="red" /><circle cx="624" cy="317" r="2.5" fill="red" /><circle cx="626" cy="317" r="2.5" fill="red" /><circle cx="627" cy="313" r="2.5" fill="red" /><circle cx="628" cy="313" r="2.5" fill="red" /><circle cx="630" cy="317" r="2.5" fill="red" /><circle cx="631" cy="317" r="2.5" fill="red" /><circle cx="632" cy="317" r="2.5" fill="red" /><circle cx="645" cy="317" r="2.5" fill="red" /><circle cx="645" cy="317" r="2.5" fill="red" /><circle cx="645" cy="317" r="2.5" fill="red" /><circle cx="645" cy="317" r="2.5" fill="red" /><circle cx="645" cy="317" r="2.5" fill="red" /><circle cx="645" cy="317" r="2.5" fill="red" /><circle cx="645" cy="317" r="2.5" fill="red" /><circle cx="646" cy="317" r="2.5" fill="red" /><circle cx="646" cy="317" r="2.5" fill="red" /><circle cx="646" cy="317" r="2.5" fill="red" /><circle cx="646" cy="317" r="2.5" fill="red" /><circle cx="646" cy="317" r="2.5" fill="red" /><circle cx="647" cy="317" r="2.5" fill="red" /><circle cx="649" cy="317" r="2.5" fill="red" /><circle cx="652" cy="317" r="2.5" fill="red" /><circle cx="652" cy="317" r="2.5" fill="red" /><circle cx="653" cy="309" r="2.5" fill="red" /><circle cx="653" cy="317" r="2.5" fill="red" /><circle cx="656" cy="317" r="2.5" fill="red" /><circle cx="656" cy="317" r="2.5" fill="red" /><circle cx="656" cy="313" r="2.5" fill="red" /><circle cx="657" cy="317" r="2.5" fill="red" /><circle cx="657" cy="317" r="2.5" fill="red" /><circle cx="657" cy="317" r="2.5" fill="red" /><circle cx="657" cy="317" r="2.5" fill="red" /><circle cx="667" cy="317" r="2.5" fill="red" /><circle cx="668" cy="317" r="2.5" fill="red" /><circle cx="668" cy="317" r="2.5" fill="red" /><circle cx="670" cy="317" r="2.5" fill="red" /><circle cx="670" cy="317" r="2.5" fill="red" /><circle cx="671" cy="317" r="2.5" fill="red" /><circle cx="671" cy="313" r="2.5" fill="red" /><circle cx="671" cy="317" r="2.5" fill="red" /><circle cx="671" cy="317" r="2.5" fill="red" /><circle cx="672" cy="317" r="2.5" fill="red" /><circle cx="672" cy="317" r="2.5" fill="red" /><circle cx="674" cy="317" r="2.5" fill="red" /><circle cx="674" cy="317" r="2.5" fill="red" /><circle cx="674" cy="317" r="2.5" fill="red" /><circle cx="675" cy="317" r="2.5" fill="red" /><circle cx="679" cy="317" r="2.5" fill="red" /><circle cx="681" cy="317" r="2.5" fill="red" /><circle cx="681" cy="317" r="2.5" fill="red" /><circle cx="682" cy="309" r="2.5" fill="red" /><circle cx="682" cy="313" r="2.5" fill="red" /><circle cx="682" cy="317" r="2.5" fill="red" /><circle cx="682" cy="313" r="2.5" fill="red" /><circle cx="682" cy="313" r="2.5" fill="red" /><circle cx="682" cy="313" r="2.5" fill="red" /><circle cx="682" cy="296" r="2.5" fill="red" /><circle cx="682" cy="317" r="2.5" fill="red" /><circle cx="692" cy="317" r="2.5" fill="red" /><circle cx="692" cy="317" r="2.5" fill="red" /><circle cx="692" cy="309" r="2.5" fill="red" /><circle cx="692" cy="317" r="2.5" fill="red" /><circle cx="693" cy="317" r="2.5" fill="red" /><circle cx="693" cy="313" r="2.5" fill="red" /><circle cx="693" cy="317" r="2.5" fill="red" /><circle cx="693" cy="317" r="2.5" fill="red" /><circle cx="693" cy="317" r="2.5" fill="red" /><circle cx="694" cy="317" r="2.5" fill="red" /><circle cx="695" cy="317" r="2.5" fill="red" /><circle cx="695" cy="317" r="2.5" fill="red" /><circle cx="696" cy="313" r="2.5" fill="red" /><circle cx="696" cy="309" r="2.5" fill="red" /><circle cx="696" cy="317" r="2.5" fill="red" /><circle cx="696" cy="317" r="2.5" fill="red" /><circle cx="696" cy="313" r="2.5" fill="red" /><circle cx="696" cy="317" r="2.5" fill="red" /><circle cx="696" cy="317" r="2.5" fill="red" /><circle cx="696" cy="313" r="2.5" fill="red" /><circle cx="696" cy="317" r="2.5" fill="red" /><circle cx="696" cy="317" r="2.5" fill="red" /><circle cx="696" cy="317" r="2.5" fill="red" /><circle cx="697" cy="317" r="2.5" fill="red" /><circle cx="697" cy="317" r="2.5" fill="red" /><circle cx="699" cy="317" r="2.5" fill="red" /><circle cx="699" cy="317" r="2.5" fill="red" /><circle cx="699" cy="317" r="2.5" fill="red" /><circle cx="700" cy="317" r="2.5" fill="red" /><circle cx="700" cy="317" r="2.5" fill="red" /><circle cx="700" cy="317" r="2.5" fill="red" /><circle cx="703" cy="317" r="2.5" fill="red" /><circle cx="703" cy="317" r="2.5" fill="red" /><circle cx="704" cy="317" r="2.5" fill="red" /><circle cx="704" cy="317" r="2.5" fill="red" /><circle cx="704" cy="317" r="2.5" fill="red" /><circle cx="704" cy="317" r="2.5" fill="red" /><circle cx="704" cy="317" r="2.5" fill="red" /><circle cx="706" cy="317" r="2.5" fill="red" /><circle cx="710" cy="317" r="2.5" fill="red" /><circle cx="717" cy="317" r="2.5" fill="red" /><circle cx="718" cy="317" r="2.5" fill="red" /><circle cx="718" cy="317" r="2.5" fill="red" /><circle cx="719" cy="317" r="2.5" fill="red" /><circle cx="721" cy="317" r="2.5" fill="red" /><circle cx="721" cy="317" r="2.5" fill="red" /><circle cx="721" cy="317" r="2.5" fill="red" /><circle cx="721" cy="317" r="2.5" fill="red" /><circle cx="721" cy="317" r="2.5" fill="red" /><circle cx="721" cy="317" r="2.5" fill="red" /><circle cx="722" cy="317" r="2.5" fill="red" /><circle cx="723" cy="317" r="2.5" fill="red" /><circle cx="724" cy="317" r="2.5" fill="red" /><circle cx="724" cy="313" r="2.5" fill="red" /><circle cx="724" cy="317" r="2.5" fill="red" /><circle cx="725" cy="317" r="2.5" fill="red" /><circle cx="725" cy="317" r="2.5" fill="red" /><circle cx="725" cy="317" r="2.5" fill="red" /><circle cx="725" cy="317" r="2.5" fill="red" /><circle cx="725" cy="317" r="2.5" fill="red" /><circle cx="725" cy="313" r="2.5" fill="red" /><circle cx="725" cy="317" r="2.5" fill="red" /><circle cx="726" cy="317" r="2.5" fill="red" /><circle cx="726" cy="317" r="2.5" fill="red" /><circle cx="727" cy="317" r="2.5" fill="red" /><circle cx="727" cy="317" r="2.5" fill="red" /><circle cx="728" cy="317" r="2.5" fill="red" /><circle cx="728" cy="317" r="2.5" fill="red" /><circle cx="728" cy="317" r="2.5" fill="red" /><circle cx="728" cy="317" r="2.5" fill="red" /><circle cx="728" cy="304" r="2.5" fill="red" /><circle cx="728" cy="313" r="2.5" fill="red" /><circle cx="728" cy="304" r="2.5" fill="red" /><circle cx="728" cy="317" r="2.5" fill="red" /><circle cx="728" cy="317" r="2.5" fill="red" /><circle cx="728" cy="317" r="2.5" fill="red" /><circle cx="729" cy="317" r="2.5" fill="red" /><circle cx="729" cy="317" r="2.5" fill="red" /><circle cx="729" cy="317" r="2.5" fill="red" /><circle cx="729" cy="317" r="2.5" fill="red" /><circle cx="729" cy="317" r="2.5" fill="red" /><circle cx="732" cy="317" r="2.5" fill="red" /><circle cx="735" cy="317" r="2.5" fill="red" /><circle cx="735" cy="317" r="2.5" fill="red" /><circle cx="735" cy="317" r="2.5" fill="red" /><circle cx="743" cy="313" r="2.5" fill="red" /><circle cx="743" cy="313" r="2.5" fill="red" /><circle cx="744" cy="313" r="2.5" fill="red" /><circle cx="744" cy="317" r="2.5" fill="red" /><circle cx="744" cy="313" r="2.5" fill="red" /><circle cx="746" cy="317" r="2.5" fill="red" /><circle cx="746" cy="317" r="2.5" fill="red" /><circle cx="746" cy="317" r="2.5" fill="red" /><circle cx="746" cy="317" r="2.5" fill="red" /><circle cx="746" cy="317" r="2.5" fill="red" /><circle cx="747" cy="317" r="2.5" fill="red" /><circle cx="747" cy="317" r="2.5" fill="red" /><circle cx="747" cy="317" r="2.5" fill="red" /><circle cx="747" cy="317" r="2.5" fill="red" /><circle cx="747" cy="317" r="2.5" fill="red" /><circle cx="747" cy="304" r="2.5" fill="red" /><circle cx="747" cy="317" r="2.5" fill="red" /><circle cx="747" cy="317" r="2.5" fill="red" /><circle cx="747" cy="317" r="2.5" fill="red" /><circle cx="753" cy="317" r="2.5" fill="red" /><circle cx="754" cy="317" r="2.5" fill="red" /><circle cx="754" cy="317" r="2.5" fill="red" /><circle cx="758" cy="317" r="2.5" fill="red" /><circle cx="758" cy="313" r="2.5" fill="red" /><circle cx="758" cy="313" r="2.5" fill="red" /><circle cx="758" cy="317" r="2.5" fill="red" /><circle cx="761" cy="317" r="2.5" fill="red" /><circle cx="768" cy="313" r="2.5" fill="red" /><circle cx="769" cy="317" r="2.5" fill="red" /><circle cx="769" cy="317" r="2.5" fill="red" /><circle cx="769" cy="317" r="2.5" fill="red" /><circle cx="769" cy="317" r="2.5" fill="red" /><circle cx="769" cy="313" r="2.5" fill="red" /><circle cx="769" cy="317" r="2.5" fill="red" /><circle cx="769" cy="317" r="2.5" fill="red" /><circle cx="769" cy="317" r="2.5" fill="red" /><circle cx="772" cy="317" r="2.5" fill="red" /><circle cx="772" cy="317" r="2.5" fill="red" /><circle cx="772" cy="317" r="2.5" fill="red" /><circle cx="772" cy="317" r="2.5" fill="red" /><circle cx="775" cy="309" r="2.5" fill="red" /><circle cx="776" cy="317" r="2.5" fill="red" /><circle cx="777" cy="317" r="2.5" fill="red" /><circle cx="780" cy="317" r="2.5" fill="red" /><circle cx="780" cy="317" r="2.5" fill="red" /><circle cx="780" cy="317" r="2.5" fill="red" /><circle cx="780" cy="317" r="2.5" fill="red" /><circle cx="782" cy="317" r="2.5" fill="red" /><circle cx="783" cy="317" r="2.5" fill="red" /><circle cx="783" cy="313" r="2.5" fill="red" /><circle cx="784" cy="317" r="2.5" fill="red" /><circle cx="794" cy="317" r="2.5" fill="red" /><circle cx="797" cy="317" r="2.5" fill="red" /><circle cx="797" cy="317" r="2.5" fill="red" /><circle cx="797" cy="317" r="2.5" fill="red" /><circle cx="800" cy="317" r="2.5" fill="red" /><circle cx="804" cy="313" r="2.5" fill="red" /><circle cx="830" cy="317" r="2.5" fill="red" /><circle cx="833" cy="317" r="2.5" fill="red" /><circle cx="849" cy="317" r="2.5" fill="red" /><circle cx="852" cy="317" r="2.5" fill="red" /><circle cx="853" cy="152" r="2.5" fill="red" /><circle cx="855" cy="317" r="2.5" fill="red" /><circle cx="856" cy="317" r="2.5" fill="red" /><circle cx="856" cy="313" r="2.5" fill="red" /><circle cx="856" cy="317" r="2.5" fill="red" /><circle cx="856" cy="317" r="2.5" fill="red" /><circle cx="859" cy="317" r="2.5" fill="red" /><circle cx="870" cy="317" r="2.5" fill="red" /><circle cx="870" cy="313" r="2.5" fill="red" /><circle cx="870" cy="317" r="2.5" fill="red" /><circle cx="870" cy="317" r="2.5" fill="red" /><circle cx="874" cy="317" r="2.5" fill="red" /><circle cx="874" cy="313" r="2.5" fill="red" /><circle cx="874" cy="317" r="2.5" fill="red" /><circle cx="874" cy="317" r="2.5" fill="red" /><circle cx="877" cy="317" r="2.5" fill="red" /><circle cx="877" cy="317" r="2.5" fill="red" /><circle cx="877" cy="317" r="2.5" fill="red" /><circle cx="877" cy="317" r="2.5" fill="red" /><circle cx="898" cy="317" r="2.5" fill="red" /><circle cx="906" cy="317" r="2.5" fill="red" /><circle cx="910" cy="317" r="2.5" fill="red" /><circle cx="921" cy="317" r="2.5" fill="red" /><circle cx="921" cy="317" r="2.5" fill="red" /><circle cx="921" cy="317" r="2.5" fill="red" /><circle cx="921" cy="317" r="2.5" fill="red" /><circle cx="922" cy="317" r="2.5" fill="red" /><circle cx="924" cy="317" r="2.5" fill="red" /><circle cx="924" cy="317" r="2.5" fill="red" /><circle cx="925" cy="317" r="2.5" fill="red" /><circle cx="945" cy="317" r="2.5" fill="red" /><circle cx="946" cy="317" r="2.5" fill="red" /><circle cx="947" cy="317" r="2.5" fill="red" /><circle cx="948" cy="317" r="2.5" fill="red" /><circle cx="949" cy="313" r="2.5" fill="red" /><circle cx="949" cy="317" r="2.5" fill="red" /><circle cx="949" cy="317" r="2.5" fill="red" /><circle cx="950" cy="317" r="2.5" fill="red" /><circle cx="953" cy="317" r="2.5" fill="red" /><circle cx="953" cy="317" r="2.5" fill="red" /><circle cx="953" cy="317" r="2.5" fill="red" /><circle cx="960" cy="317" r="2.5" fill="red" /><circle cx="960" cy="317" r="2.5" fill="red" /><circle cx="961" cy="317" r="2.5" fill="red" /><circle cx="979" cy="317" r="2.5" fill="red" /><circle cx="979" cy="317" r="2.5" fill="red" /><circle cx="981" cy="317" r="2.5" fill="red" /><circle cx="982" cy="317" r="2.5" fill="red" /><circle cx="985" cy="317" r="2.5" fill="red" /><circle cx="985" cy="317" r="2.5" fill="red" /><circle cx="997" cy="313" r="2.5" fill="red" /><circle cx="997" cy="309" r="2.5" fill="red" /><circle cx="997" cy="317" r="2.5" fill="red" /><circle cx="997" cy="317" r="2.5" fill="red" /><circle cx="999" cy="317" r="2.5" fill="red" /><circle cx="1000" cy="317" r="2.5" fill="red" /><circle cx="1004" cy="317" r="2.5" fill="red" /><circle cx="1006" cy="317" r="2.5" fill="red" /><circle cx="1007" cy="317" r="2.5" fill="red" /><circle cx="1007" cy="317" r="2.5" fill="red" /><circle cx="1008" cy="313" r="2.5" fill="red" /><circle cx="1008" cy="313" r="2.5" fill="red" /><circle cx="1011" cy="317" r="2.5" fill="red" /><circle cx="1011" cy="317" r="2.5" fill="red" /><circle cx="1021" cy="317" r="2.5" fill="red" /><circle cx="1021" cy="317" r="2.5" fill="red" /><circle cx="1021" cy="317" r="2.5" fill="red" /><circle cx="1021" cy="317" r="2.5" fill="red" /><circle cx="1021" cy="317" r="2.5" fill="red" /><circle cx="1022" cy="313" r="2.5" fill="red" /><circle cx="1022" cy="317" r="2.5" fill="red" /><circle cx="1022" cy="317" r="2.5" fill="red" /><circle cx="1022" cy="317" r="2.5" fill="red" /><circle cx="1022" cy="317" r="2.5" fill="red" /><circle cx="1025" cy="317" r="2.5" fill="red" /><circle cx="1026" cy="317" r="2.5" fill="red" /><circle cx="1031" cy="317" r="2.5" fill="red" /><circle cx="1032" cy="317" r="2.5" fill="red" /><circle cx="1032" cy="317" r="2.5" fill="red" /><circle cx="1036" cy="317" r="2.5" fill="red" /><circle cx="1046" cy="313" r="2.5" fill="red" /><circle cx="1047" cy="317" r="2.5" fill="red" /><circle cx="1047" cy="313" r="2.5" fill="red" /><circle cx="1047" cy="317" r="2.5" fill="red" /><circle cx="1050" cy="317" r="2.5" fill="red" /><circle cx="1055" cy="317" r="2.5" fill="red" /><circle cx="1058" cy="317" r="2.5" fill="red" /><circle cx="1059" cy="317" r="2.5" fill="red" /><circle cx="1061" cy="317" r="2.5" fill="red" /><circle cx="1061" cy="317" r="2.5" fill="red" /><circle cx="1061" cy="317" r="2.5" fill="red" /><circle cx="1062" cy="309" r="2.5" fill="red" /><circle cx="1062" cy="313" r="2.5" fill="red" /><circle cx="1062" cy="313" r="2.5" fill="red" /><circle cx="1062" cy="317" r="2.5" fill="red" /><circle cx="1062" cy="317" r="2.5" fill="red" /><circle cx="1073" cy="317" r="2.5" fill="red" /><circle cx="1073" cy="317" r="2.5" fill="red" /><circle cx="1073" cy="317" r="2.5" fill="red" /><circle cx="1073" cy="313" r="2.5" fill="red" /><circle cx="1075" cy="317" r="2.5" fill="red" /><circle cx="1075" cy="317" r="2.5" fill="red" /><circle cx="1076" cy="317" r="2.5" fill="red" /><circle cx="1076" cy="317" r="2.5" fill="red" /><circle cx="1080" cy="317" r="2.5" fill="red" /><circle cx="1083" cy="317" r="2.5" fill="red" /><circle cx="1083" cy="317" r="2.5" fill="red" /><circle cx="1084" cy="313" r="2.5" fill="red" /><circle cx="1087" cy="317" r="2.5" fill="red" /><circle cx="1087" cy="317" r="2.5" fill="red" /><circle cx="1098" cy="317" r="2.5" fill="red" /><circle cx="1098" cy="317" r="2.5" fill="red" /><circle cx="1098" cy="317" r="2.5" fill="red" /><circle cx="1098" cy="317" r="2.5" fill="red" /><circle cx="1098" cy="317" r="2.5" fill="red" /><circle cx="1102" cy="317" r="2.5" fill="red" /><circle cx="1102" cy="317" r="2.5" fill="red" /><circle cx="1102" cy="317" r="2.5" fill="red" /><circle cx="1104" cy="317" r="2.5" fill="red" /><circle cx="1105" cy="317" r="2.5" fill="red" /><circle cx="1105" cy="317" r="2.5" fill="red" /><circle cx="1112" cy="313" r="2.5" fill="red" /><circle cx="1126" cy="317" r="2.5" fill="red" /><circle cx="1127" cy="317" r="2.5" fill="red" /><circle cx="1138" cy="317" r="2.5" fill="red" /><circle cx="1138" cy="317" r="2.5" fill="red" /><circle cx="1151" cy="317" r="2.5" fill="red" /><circle cx="1151" cy="317" r="2.5" fill="red" /><circle cx="1153" cy="317" r="2.5" fill="red" /><circle cx="1156" cy="317" r="2.5" fill="red" /><circle cx="1159" cy="317" r="2.5" fill="red" /><circle cx="1160" cy="317" r="2.5" fill="red" /><circle cx="1160" cy="317" r="2.5" fill="red" /><circle cx="1161" cy="317" r="2.5" fill="red" /><circle cx="1173" cy="317" r="2.5" fill="red" /><circle cx="1174" cy="317" r="2.5" fill="red" /><circle cx="1177" cy="317" r="2.5" fill="red" /><circle cx="1177" cy="309" r="2.5" fill="red" /><circle cx="1177" cy="300" r="2.5" fill="red" /><circle cx="1181" cy="317" r="2.5" fill="red" /><circle cx="1202" cy="317" r="2.5" fill="red" /><circle cx="1206" cy="317" r="2.5" fill="red" /><circle cx="1210" cy="317" r="2.5" fill="red" /><circle cx="1229" cy="313" r="2.5" fill="red" /><circle cx="1238" cy="317" r="2.5" fill="red" /><circle cx="1238" cy="317" r="2.5" fill="red" /><circle cx="1238" cy="317" r="2.5" fill="red" /><circle cx="1238" cy="317" r="2.5" fill="red" /><circle cx="1241" cy="317" r="2.5" fill="red" /><circle cx="1242" cy="317" r="2.5" fill="red" /><circle cx="1242" cy="317" r="2.5" fill="red" /><circle cx="1242" cy="317" r="2.5" fill="red" /><circle cx="1242" cy="317" r="2.5" fill="red" /><circle cx="1242" cy="317" r="2.5" fill="red" /><circle cx="1249" cy="317" r="2.5" fill="red" /><circle cx="1263" cy="317" r="2.5" fill="red" /><circle cx="1300" cy="317" r="2.5" fill="red" /><circle cx="1301" cy="317" r="2.5" fill="red" /><circle cx="1301" cy="317" r="2.5" fill="red" /><circle cx="1301" cy="317" r="2.5" fill="red" /><circle cx="1303" cy="317" r="2.5" fill="red" /><circle cx="1303" cy="317" r="2.5" fill="red" /><circle cx="1303" cy="317" r="2.5" fill="red" /><circle cx="1311" cy="317" r="2.5" fill="red" /><circle cx="1329" cy="317" r="2.5" fill="red" /><circle cx="1330" cy="317" r="2.5" fill="red" /><circle cx="1332" cy="317" r="2.5" fill="red" /><circle cx="1332" cy="313" r="2.5" fill="red" /><circle cx="1332" cy="317" r="2.5" fill="red" /><circle cx="1332" cy="317" r="2.5" fill="red" /><circle cx="1333" cy="317" r="2.5" fill="red" /><circle cx="1333" cy="317" r="2.5" fill="red" /><circle cx="1333" cy="313" r="2.5" fill="red" /><circle cx="1333" cy="317" r="2.5" fill="red" /><circle cx="1336" cy="317" r="2.5" fill="red" /><circle cx="1337" cy="317" r="2.5" fill="red" /><circle cx="1337" cy="317" r="2.5" fill="red" /><circle cx="1339" cy="317" r="2.5" fill="red" /><circle cx="1340" cy="317" r="2.5" fill="red" /><circle cx="1340" cy="317" r="2.5" fill="red" /><circle cx="1350" cy="317" r="2.5" fill="red" /><circle cx="1350" cy="317" r="2.5" fill="red" /><circle cx="1350" cy="317" r="2.5" fill="red" /><circle cx="1350" cy="317" r="2.5" fill="red" /><circle cx="1350" cy="317" r="2.5" fill="red" /><circle cx="1351" cy="317" r="2.5" fill="red" /><circle cx="1351" cy="317" r="2.5" fill="red" /><circle cx="1351" cy="317" r="2.5" fill="red" /><circle cx="1351" cy="317" r="2.5" fill="red" /><circle cx="1351" cy="317" r="2.5" fill="red" /><circle cx="1351" cy="309" r="2.5" fill="red" /><circle cx="1351" cy="317" r="2.5" fill="red" /><circle cx="1351" cy="317" r="2.5" fill="red" /><circle cx="1353" cy="317" r="2.5" fill="red" /><circle cx="1354" cy="313" r="2.5" fill="red" /><circle cx="1354" cy="309" r="2.5" fill="red" /><circle cx="1354" cy="317" r="2.5" fill="red" /><circle cx="1359" cy="317" r="2.5" fill="red" /><circle cx="1359" cy="317" r="2.5" fill="red" /><circle cx="1359" cy="317" r="2.5" fill="red" /><circle cx="1359" cy="313" r="2.5" fill="red" /><circle cx="1359" cy="304" r="2.5" fill="red" /><circle cx="1359" cy="313" r="2.5" fill="red" /><circle cx="1360" cy="317" r="2.5" fill="red" /><circle cx="1361" cy="317" r="2.5" fill="red" /><circle cx="1361" cy="317" r="2.5" fill="red" /><circle cx="1361" cy="313" r="2.5" fill="red" /><circle cx="1361" cy="317" r="2.5" fill="red" /><circle cx="1362" cy="317" r="2.5" fill="red" /><circle cx="1362" cy="317" r="2.5" fill="red" /><circle cx="1362" cy="317" r="2.5" fill="red" /><circle cx="1366" cy="313" r="2.5" fill="red" /><circle cx="1368" cy="317" r="2.5" fill="red" /><circle cx="1368" cy="317" r="2.5" fill="red" /><circle cx="1376" cy="317" r="2.5" fill="red" /><circle cx="1376" cy="317" r="2.5" fill="red" /><circle cx="1376" cy="317" r="2.5" fill="red" /><circle cx="1377" cy="317" r="2.5" fill="red" /></svg>