<svg xmlns="http://www.w3.org/2000/svg" width="1400" height="380"><line x1="60" y1="20" x2="60" y2="325" stroke="#e5e7eb" stroke-width="1" /><line x1="172" y1="20" x2="172" y2="325" stroke="#e5e7eb" stroke-width="1" /><line x1="273" y1="20" x2="273" y2="325" stroke="#e5e7eb" stroke-width="1" /><line x1="385" y1="20" x2="385" y2="325" stroke="#e5e7eb" stroke-width="1" /><line x1="493" y1="20" x2="493" y2="325" stroke="#e5e7eb" stroke-width="1" /><line x1="606" y1="20" x2="606" y2="325" stroke="#e5e7eb" stroke-width="1" /><line x1="714" y1="20" x2="714" y2="325" stroke="#e5e7eb" stroke-width="1" /><line x1="826" y1="20" x2="826" y2="325" stroke="#e5e7eb" stroke-width="1" /><line x1="938" y1="20" x2="938" y2="325" stroke="#e5e7eb" stroke-width="1" /><line x1="1047" y1="20" x2="1047" y2="325" stroke="#e5e7eb" stroke-width="1" /><line x1="1159" y1="20" x2="1159" y2="325" stroke="#e5e7eb" stroke-width="1" /><line x1="1267" y1="20" x2="1267" y2="325" stroke="#e5e7eb" stroke-width="1" /><line x1="60" y1="275" x2="1380" y2="275" stroke="#e5e7eb" stroke-width="1" /><line x1="60" y1="173" x2="1380" y2="173" stroke="#e5e7eb" stroke-width="1" /><line x1="60" y1="20" x2="1380" y2="20" stroke="#e5e7eb" stroke-width="1" /><line x1="60" y1="325" x2="1380" y2="325" stroke="black" stroke-width="1"/><line x1="60" y1="20" x2="60" y2="325" stroke="black" stroke-width="1"/><text x="720.0" y="362" font-size="12" text-anchor="middle">Time (UTC, 2006)</text><text x="18" y="172.5" font-size="12" transform="rotate(-90, 18, 172.5)" text-anchor="middle">Gap duration (minutes)</text><line x1="60" y1="325" x2="60" y2="330" stroke="black" stroke-width="1"/><text x="60" y="343" font-size="10" text-anchor="middle">Jan</text><line x1="172" y1="325" x2="172" y2="330" stroke="black" stroke-width="1"/><text x="172" y="343" font-size="10" text-anchor="middle">Feb</text><line x1="273" y1="325" x2="273" y2="330" stroke="black" stroke-width="1"/><text x="273" y="343" font-size="10" text-anchor="middle">Mar</text><line x1="385" y1="325" x2="385" y2="330" stroke="black" stroke-width="1"/><text x="385" y="343" font-size="10" text-anchor="middle">Apr</text><line x1="493" y1="325" x2="493" y2="330" stroke="black" stroke-width="1"/><text x="493" y="343" font-size="10" text-anchor="middle">May</text><line x1="606" y1="325" x2="606" y2="330" stroke="black" stroke-width="1"/><text x="606" y="343" font-size="10" text-anchor="middle">Jun</text><line x1="714" y1="325" x2="714" y2="330" stroke="black" stroke-width="1"/><text x="714" y="343" font-size="10" text-anchor="middle">Jul</text><line x1="826" y1="325" x2="826" y2="330" stroke="black" stroke-width="1"/><text x="826" y="343" font-size="10" text-anchor="middle">Aug</text><line x1="938" y1="325" x2="938" y2="330" stroke="black" stroke-width="1"/><text x="938" y="343" font-size="10" text-anchor="middle">Sep</text><line x1="1047" y1="325" x2="1047" y2="330" stroke="black" stroke-width="1"/><text x="1047" y="343" font-size="10" text-anchor="middle">Oct</text><line x1="1159" y1="325" x2="1159" y2="330" stroke="black" stroke-width="1"/><text x="1159" y="343" font-size="10" text-anchor="middle">Nov</text><line x1="1267" y1="325" x2="1267" y2="330" stroke="black" stroke-width="1"/><text x="1267" y="343" font-size="10" text-anchor="middle">Dec</text><line x1="55" y1="275" x2="60" y2="275" stroke="black" stroke-width="1"/><text x="52" y="278" font-size="10" text-anchor="end">10</text><line x1="55" y1="173" x2="60" y2="173" stroke="black" stroke-width="1"/><text x="52" y="176" font-size="10" text-anchor="end">30</text><line x1="55" y1="20" x2="60" y2="20" stroke="black" stroke-width="1"/><text x="52" y="23" font-size="10" text-anchor="end">60</text><circle cx="70" cy="249" r="2.5" fill="red" /><circle cx="74" cy="249" r="2.5" fill="red" /><circle cx="77" cy="249" r="2.5" fill="red" /><circle cx="77" cy="224" r="2.5" fill="red" /><circle cx="81" cy="275" r="2.5" fill="red" /><circle cx="89" cy="275" r="2.5" fill="red" /><circle cx="92" cy="249" r="2.5" fill="red" /><circle cx="95" cy="249" r="2.5" fill="red" /><circle cx="96" cy="275" r="2.5" fill="red" /><circle cx="99" cy="249" r="2.5" fill="red" /><circle cx="103" cy="249" r="2.5" fill="red" /><circle cx="104" cy="275" r="2.5" fill="red" /><circle cx="106" cy="275" r="2.5" fill="red" /><circle cx="116" cy="275" r="2.5" fill="red" /><circle cx="116" cy="275" r="2.5" fill="red" /><circle cx="116" cy="275" r="2.5" fill="red" /><circle cx="117" cy="275" r="2.5" fill="red" /><circle cx="117" cy="275" r="2.5" fill="red" /><circle cx="117" cy="275" r="2.5" fill="red" /><circle cx="117" cy="275" r="2.5" fill="red" /><circle cx="117" cy="275" r="2.5" fill="red" /><circle cx="117" cy="249" r="2.5" fill="red" /><circle cx="117" cy="249" r="2.5" fill="red" /><circle cx="121" cy="249" r="2.5" fill="red" /><circle cx="124" cy="249" r="2.5" fill="red" /><circle cx="128" cy="249" r="2.5" fill="red" /><circle cx="142" cy="249" r="2.5" fill="red" /><circle cx="143" cy="275" r="2.5" fill="red" /><circle cx="146" cy="249" r="2.5" fill="red" /><circle cx="150" cy="249" r="2.5" fill="red" /><circle cx="153" cy="249" r="2.5" fill="red" /><circle cx="168" cy="249" r="2.5" fill="red" /><circle cx="168" cy="275" r="2.5" fill="red" /><circle cx="168" cy="275" r="2.5" fill="red" /><circle cx="169" cy="275" r="2.5" fill="red" /><circle cx="169" cy="275" r="2.5" fill="red" /><circle cx="171" cy="249" r="2.5" fill="red" /><circle cx="172" cy="275" r="2.5" fill="red" /><circle cx="175" cy="249" r="2.5" fill="red" /><circle cx="179" cy="249" r="2.5" fill="red" /><circle cx="179" cy="275" r="2.5" fill="red" /><circle cx="182" cy="275" r="2.5" fill="red" /><circle cx="190" cy="275" r="2.5" fill="red" /><circle cx="193" cy="275" r="2.5" fill="red" /><circle cx="193" cy="249" r="2.5" fill="red" /><circle cx="197" cy="249" r="2.5" fill="red" /><circle cx="198" cy="275" r="2.5" fill="red" /><circle cx="200" cy="249" r="2.5" fill="red" /><circle cx="201" cy="275" r="2.5" fill="red" /><circle cx="201" cy="275" r="2.5" fill="red" /><circle cx="204" cy="249" r="2.5" fill="red" /><circle cx="204" cy="249" r="2.5" fill="red" /><circle cx="215" cy="275" r="2.5" fill="red" /><circle cx="215" cy="275" r="2.5" fill="red" /><circle cx="216" cy="275" r="2.5" fill="red" /><circle cx="218" cy="275" r="2.5" fill="red" /><circle cx="218" cy="249" r="2.5" fill="red" /><circle cx="219" cy="275" r="2.5" fill="red" /><circle cx="219" cy="275" r="2.5" fill="red" /><circle cx="222" cy="249" r="2.5" fill="red" /><circle cx="223" cy="275" r="2.5" fill="red" /><circle cx="224" cy="275" r="2.5" fill="red" /><circle cx="226" cy="249" r="2.5" fill="red" /><circle cx="226" cy="275" r="2.5" fill="red" /><circle cx="226" cy="275" r="2.5" fill="red" /><circle cx="226" cy="275" r="2.5" fill="red" /><circle cx="227" cy="275" r="2.5" fill="red" /><circle cx="229" cy="249" r="2.5" fill="red" /><circle cx="229" cy="275" r="2.5" fill="red" /><circle cx="230" cy="275" r="2.5" fill="red" /><circle cx="230" cy="224" r="2.5" fill="red" /><circle cx="240" cy="275" r="2.5" fill="red" /><circle cx="240" cy="275" r="2.5" fill="red" /><circle cx="241" cy="275" r="2.5" fill="red" /><circle cx="242" cy="275" r="2.5" fill="red" /><circle cx="243" cy="275" r="2.5" fill="red" /><circle cx="243" cy="275" r="2.5" fill="red" /><circle cx="243" cy="275" r="2.5" fill="red" /><circle cx="243" cy="249" r="2.5" fill="red" /><circle cx="243" cy="122" r="2.5" fill="red" /><circle cx="243" cy="275" r="2.5" fill="red" /><circle cx="244" cy="275" r="2.5" fill="red" /><circle cx="244" cy="275" r="2.5" fill="red" /><circle cx="244" cy="249" r="2.5" fill="red" /><circle cx="244" cy="275" r="2.5" fill="red" /><circle cx="245" cy="275" r="2.5" fill="red" /><circle cx="247" cy="275" r="2.5" fill="red" /><circle cx="247" cy="249" r="2.5" fill="red" /><circle cx="247" cy="249" r="2.5" fill="red" /><circle cx="247" cy="275" r="2.5" fill="red" /><circle cx="247" cy="275" r="2.5" fill="red" /><circle cx="247" cy="275" r="2.5" fill="red" /><circle cx="248" cy="275" r="2.5" fill="red" /><circle cx="248" cy="249" r="2.5" fill="red" /><circle cx="248" cy="275" r="2.5" fill="red" /><circle cx="248" cy="275" r="2.5" fill="red" /><circle cx="251" cy="249" r="2.5" fill="red" /><circle cx="252" cy="275" r="2.5" fill="red" /><circle cx="252" cy="275" r="2.5" fill="red" /><circle cx="252" cy="275" r="2.5" fill="red" /><circle cx="254" cy="249" r="2.5" fill="red" /><circle cx="256" cy="275" r="2.5" fill="red" /><circle cx="269" cy="275" r="2.5" fill="red" /><circle cx="273" cy="224" r="2.5" fill="red" /><circle cx="273" cy="275" r="2.5" fill="red" /><circle cx="276" cy="224" r="2.5" fill="red" /><circle cx="277" cy="275" r="2.5" fill="red" /><circle cx="277" cy="275" r="2.5" fill="red" /><circle cx="280" cy="249" r="2.5" fill="red" /><circle cx="294" cy="275" r="2.5" fill="red" /><circle cx="294" cy="275" r="2.5" fill="red" /><circle cx="298" cy="249" r="2.5" fill="red" /><circle cx="301" cy="249" r="2.5" fill="red" /><circle cx="305" cy="249" r="2.5" fill="red" /><circle cx="306" cy="275" r="2.5" fill="red" /><circle cx="307" cy="275" r="2.5" fill="red" /><circle cx="320" cy="275" r="2.5" fill="red" /><circle cx="323" cy="275" r="2.5" fill="red" /><circle cx="323" cy="275" r="2.5" fill="red" /><circle cx="323" cy="249" r="2.5" fill="red" /><circle cx="327" cy="249" r="2.5" fill="red" /><circle cx="327" cy="275" r="2.5" fill="red" /><circle cx="330" cy="275" r="2.5" fill="red" /><circle cx="331" cy="275" r="2.5" fill="red" /><circle cx="331" cy="275" r="2.5" fill="red" /><circle cx="342" cy="275" r="2.5" fill="red" /><circle cx="349" cy="275" r="2.5" fill="red" /><circle cx="349" cy="275" r="2.5" fill="red" /><circle cx="350" cy="275" r="2.5" fill="red" /><circle cx="352" cy="249" r="2.5" fill="red" /><circle cx="354" cy="275" r="2.5" fill="red" /><circle cx="356" cy="275" r="2.5" fill="red" /><circle cx="357" cy="275" r="2.5" fill="red" /><circle cx="357" cy="275" r="2.5" fill="red" /><circle cx="357" cy="275" r="2.5" fill="red" /><circle cx="367" cy="275" r="2.5" fill="red" /><circle cx="367" cy="275" r="2.5" fill="red" /><circle cx="371" cy="275" r="2.5" fill="red" /><circle cx="377" cy="275" r="2.5" fill="red" /><circle cx="377" cy="275" r="2.5" fill="red" /><circle cx="377" cy="275" r="2.5" fill="red" /><circle cx="382" cy="275" r="2.5" fill="red" /><circle cx="392" cy="275" r="2.5" fill="red" /><circle cx="392" cy="275" r="2.5" fill="red" /><circle cx="396" cy="275" r="2.5" fill="red" /><circle cx="396" cy="275" r="2.5" fill="red" /><circle cx="396" cy="275" r="2.5" fill="red" /><circle cx="396" cy="275" r="2.5" fill="red" /><circle cx="399" cy="275" r="2.5" fill="red" /><circle cx="399" cy="275" r="2.5" fill="red" /><circle cx="403" cy="275" r="2.5" fill="red" /><circle cx="403" cy="249" r="2.5" fill="red" /><circle cx="406" cy="275" r="2.5" fill="red" /><circle cx="406" cy="249" r="2.5" fill="red" /><circle cx="417" cy="249" r="2.5" fill="red" /><circle cx="418" cy="275" r="2.5" fill="red" /><circle cx="422" cy="275" r="2.5" fill="red" /><circle cx="422" cy="275" r="2.5" fill="red" /><circle cx="424" cy="275" r="2.5" fill="red" /><circle cx="425" cy="275" r="2.5" fill="red" /><circle cx="428" cy="275" r="2.5" fill="red" /><circle cx="428" cy="275" r="2.5" fill="red" /><circle cx="428" cy="224" r="2.5" fill="red" /><circle cx="429" cy="249" r="2.5" fill="red" /><circle cx="432" cy="275" r="2.5" fill="red" /><circle cx="432" cy="275" r="2.5" fill="red" /><circle cx="443" cy="275" r="2.5" fill="red" /><circle cx="443" cy="275" r="2.5" fill="red" /><circle cx="443" cy="275" r="2.5" fill="red" /><circle cx="443" cy="275" r="2.5" fill="red" /><circle cx="443" cy="275" r="2.5" fill="red" /><circle cx="446" cy="275" r="2.5" fill="red" /><circle cx="446" cy="275" r="2.5" fill="red" /><circle cx="447" cy="275" r="2.5" fill="red" /><circle cx="447" cy="275" r="2.5" fill="red" /><circle cx="450" cy="275" r="2.5" fill="red" /><circle cx="453" cy="275" r="2.5" fill="red" /><circle cx="453" cy="224" r="2.5" fill="red" /><circle cx="457" cy="275" r="2.5" fill="red" /><circle cx="458" cy="275" r="2.5" fill="red" /><circle cx="471" cy="224" r="2.5" fill="red" /><circle cx="472" cy="224" r="2.5" fill="red" /><circle cx="472" cy="275" r="2.5" fill="red" /><circle cx="472" cy="275" r="2.5" fill="red" /><circle cx="475" cy="275" r="2.5" fill="red" /><circle cx="479" cy="275" r="2.5" fill="red" /><circle cx="479" cy="275" r="2.5" fill="red" /><circle cx="480" cy="275" r="2.5" fill="red" /><circle cx="480" cy="275" r="2.5" fill="red" /><circle cx="482" cy="275" r="2.5" fill="red" /><circle cx="483" cy="275" r="2.5" fill="red" /><circle cx="483" cy="275" r="2.5" fill="red" /><circle cx="493" cy="275" r="2.5" fill="red" /><circle cx="493" cy="275" r="2.5" fill="red" /><circle cx="494" cy="275" r="2.5" fill="red" /><circle cx="495" cy="275" r="2.5" fill="red" /><circle cx="495" cy="275" r="2.5" fill="red" /><circle cx="498" cy="275" r="2.5" fill="red" /><circle cx="500" cy="275" r="2.5" fill="red" /><circle cx="501" cy="275" r="2.5" fill="red" /><circle cx="504" cy="275" r="2.5" fill="red" /><circle cx="508" cy="275" r="2.5" fill="red" /><circle cx="508" cy="275" r="2.5" fill="red" /><circle cx="508" cy="275" r="2.5" fill="red" /><circle cx="509" cy="275" r="2.5" fill="red" /><circle cx="520" cy="249" r="2.5" fill="red" /><circle cx="522" cy="249" r="2.5" fill="red" /><circle cx="529" cy="275" r="2.5" fill="red" /><circle cx="533" cy="275" r="2.5" fill="red" /><circle cx="551" cy="275" r="2.5" fill="red" /><circle cx="551" cy="275" r="2.5" fill="red" /><circle cx="555" cy="275" r="2.5" fill="red" /><circle cx="559" cy="275" r="2.5" fill="red" /><circle cx="573" cy="275" r="2.5" fill="red" /><circle cx="576" cy="275" r="2.5" fill="red" /><circle cx="580" cy="275" r="2.5" fill="red" /><circle cx="584" cy="275" r="2.5" fill="red" /><circle cx="594" cy="275" r="2.5" fill="red" /><circle cx="595" cy="275" r="2.5" fill="red" /><circle cx="596" cy="275" r="2.5" fill="red" /><circle cx="596" cy="275" r="2.5" fill="red" /><circle cx="597" cy="275" r="2.5" fill="red" /><circle cx="598" cy="275" r="2.5" fill="red" /><circle cx="598" cy="249" r="2.5" fill="red" /><circle cx="598" cy="275" r="2.5" fill="red" /><circle cx="598" cy="275" r="2.5" fill="red" /><circle cx="598" cy="275" r="2.5" fill="red" /><circle cx="611" cy="275" r="2.5" fill="red" /><circle cx="620" cy="275" r="2.5" fill="red" /><circle cx="623" cy="275" r="2.5" fill="red" /><circle cx="623" cy="275" r="2.5" fill="red" /><circle cx="624" cy="275" r="2.5" fill="red" /><circle cx="628" cy="249" r="2.5" fill="red" /><circle cx="628" cy="275" r="2.5" fill="red" /><circle cx="631" cy="275" r="2.5" fill="red" /><circle cx="631" cy="275" r="2.5" fill="red" /><circle cx="632" cy="275" r="2.5" fill="red" /><circle cx="635" cy="275" r="2.5" fill="red" /><circle cx="646" cy="275" r="2.5" fill="red" /><circle cx="646" cy="275" r="2.5" fill="red" /><circle cx="649" cy="275" r="2.5" fill="red" /><circle cx="650" cy="275" r="2.5" fill="red" /><circle cx="656" cy="275" r="2.5" fill="red" /><circle cx="657" cy="249" r="2.5" fill="red" /><circle cx="657" cy="275" r="2.5" fill="red" /><circle cx="659" cy="275" r="2.5" fill="red" /><circle cx="661" cy="275" r="2.5" fill="red" /><circle cx="675" cy="275" r="2.5" fill="red" /><circle cx="678" cy="275" r="2.5" fill="red" /><circle cx="681" cy="275" r="2.5" fill="red" /><circle cx="682" cy="275" r="2.5" fill="red" /><circle cx="682" cy="275" r="2.5" fill="red" /><circle cx="696" cy="275" r="2.5" fill="red" /><circle cx="697" cy="275" r="2.5" fill="red" /><circle cx="700" cy="275" r="2.5" fill="red" /><circle cx="704" cy="275" r="2.5" fill="red" /><circle cx="706" cy="275" r="2.5" fill="red" /><circle cx="710" cy="275" r="2.5" fill="red" /><circle cx="722" cy="275" r="2.5" fill="red" /><circle cx="724" cy="275" r="2.5" fill="red" /><circle cx="725" cy="275" r="2.5" fill="red" /><circle cx="726" cy="275" r="2.5" fill="red" /><circle cx="726" cy="275" r="2.5" fill="red" /><circle cx="726" cy="275" r="2.5" fill="red" /><circle cx="728" cy="275" r="2.5" fill="red" /><circle cx="733" cy="275" r="2.5" fill="red" /><circle cx="733" cy="275" r="2.5" fill="red" /><circle cx="733" cy="224" r="2.5" fill="red" /><circle cx="736" cy="275" r="2.5" fill="red" /><circle cx="736" cy="275" r="2.5" fill="red" /><circle cx="737" cy="275" r="2.5" fill="red" /><circle cx="737" cy="275" r="2.5" fill="red" /><circle cx="747" cy="275" r="2.5" fill="red" /><circle cx="751" cy="275" r="2.5" fill="red" /><circle cx="751" cy="275" r="2.5" fill="red" /><circle cx="754" cy="275" r="2.5" fill="red" /><circle cx="754" cy="275" r="2.5" fill="red" /><circle cx="754" cy="275" r="2.5" fill="red" /><circle cx="755" cy="275" r="2.5" fill="red" /><circle cx="757" cy="275" r="2.5" fill="red" /><circle cx="757" cy="275" r="2.5" fill="red" /><circle cx="761" cy="275" r="2.5" fill="red" /><circle cx="772" cy="275" r="2.5" fill="red" /><circle cx="772" cy="275" r="2.5" fill="red" /><circle cx="773" cy="275" r="2.5" fill="red" /><circle cx="773" cy="275" r="2.5" fill="red" /><circle cx="776" cy="275" r="2.5" fill="red" /><circle cx="776" cy="275" r="2.5" fill="red" /><circle cx="779" cy="275" r="2.5" fill="red" /><circle cx="779" cy="275" r="2.5" fill="red" /><circle cx="780" cy="275" r="2.5" fill="red" /><circle cx="784" cy="275" r="2.5" fill="red" /><circle cx="787" cy="275" r="2.5" fill="red" /><circle cx="787" cy="275" r="2.5" fill="red" /><circle cx="787" cy="275" r="2.5" fill="red" /><circle cx="787" cy="275" r="2.5" fill="red" /><circle cx="789" cy="275" r="2.5" fill="red" /><circle cx="797" cy="275" r="2.5" fill="red" /><circle cx="801" cy="275" r="2.5" fill="red" /><circle cx="801" cy="275" r="2.5" fill="red" /><circle cx="809" cy="249" r="2.5" fill="red" /><circle cx="811" cy="275" r="2.5" fill="red" /><circle cx="811" cy="275" r="2.5" fill="red" /><circle cx="822" cy="275" r="2.5" fill="red" /><circle cx="823" cy="275" r="2.5" fill="red" /><circle cx="826" cy="275" r="2.5" fill="red" /><circle cx="826" cy="275" r="2.5" fill="red" /><circle cx="826" cy="275" r="2.5" fill="red" /><circle cx="828" cy="275" r="2.5" fill="red" /><circle cx="834" cy="275" r="2.5" fill="red" /><circle cx="837" cy="275" r="2.5" fill="red" /><circle cx="838" cy="275" r="2.5" fill="red" /><circle cx="838" cy="275" r="2.5" fill="red" /><circle cx="838" cy="275" r="2.5" fill="red" /><circle cx="838" cy="275" r="2.5" fill="red" /><circle cx="838" cy="249" r="2.5" fill="red" /><circle cx="840" cy="275" r="2.5" fill="red" /><circle cx="848" cy="275" r="2.5" fill="red" /><circle cx="848" cy="275" r="2.5" fill="red" /><circle cx="849" cy="275" r="2.5" fill="red" /><circle cx="849" cy="275" r="2.5" fill="red" /><circle cx="853" cy="275" r="2.5" fill="red" /><circle cx="858" cy="275" r="2.5" fill="red" /><circle cx="859" cy="275" r="2.5" fill="red" /><circle cx="862" cy="249" r="2.5" fill="red" /><circle cx="873" cy="275" r="2.5" fill="red" /><circle cx="874" cy="275" r="2.5" fill="red" /><circle cx="874" cy="249" r="2.5" fill="red" /><circle cx="877" cy="275" r="2.5" fill="red" /><circle cx="878" cy="275" r="2.5" fill="red" /><circle cx="881" cy="275" r="2.5" fill="red" /><circle cx="881" cy="275" r="2.5" fill="red" /><circle cx="881" cy="275" r="2.5" fill="red" /><circle cx="881" cy="275" r="2.5" fill="red" /><circle cx="881" cy="249" r="2.5" fill="red" /><circle cx="881" cy="275" r="2.5" fill="red" /><circle cx="884" cy="275" r="2.5" fill="red" /><circle cx="884" cy="275" r="2.5" fill="red" /><circle cx="885" cy="275" r="2.5" fill="red" /><circle cx="885" cy="275" r="2.5" fill="red" /><circle cx="888" cy="275" r="2.5" fill="red" /><circle cx="888" cy="275" r="2.5" fill="red" /><circle cx="888" cy="249" r="2.5" fill="red" /><circle cx="888" cy="275" r="2.5" fill="red" /><circle cx="898" cy="224" r="2.5" fill="red" /><circle cx="898" cy="275" r="2.5" fill="red" /><circle cx="899" cy="275" r="2.5" fill="red" /><circle cx="901" cy="275" r="2.5" fill="red" /><circle cx="902" cy="275" r="2.5" fill="red" /><circle cx="903" cy="275" r="2.5" fill="red" /><circle cx="903" cy="275" r="2.5" fill="red" /><circle cx="903" cy="275" r="2.5" fill="red" /><circle cx="905" cy="275" r="2.5" fill="red" /><circle cx="906" cy="275" r="2.5" fill="red" /><circle cx="906" cy="275" r="2.5" fill="red" /><circle cx="907" cy="275" r="2.5" fill="red" /><circle cx="907" cy="275" r="2.5" fill="red" /><circle cx="909" cy="275" r="2.5" fill="red" /><circle cx="910" cy="275" r="2.5" fill="red" /><circle cx="913" cy="275" r="2.5" fill="red" /><circle cx="915" cy="275" r="2.5" fill="red" /><circle cx="924" cy="275" r="2.5" fill="red" /><circle cx="924" cy="275" r="2.5" fill="red" /><circle cx="924" cy="275" r="2.5" fill="red" /><circle cx="927" cy="275" r="2.5" fill="red" /><circle cx="927" cy="275" r="2.5" fill="red" /><circle cx="928" cy="275" r="2.5" fill="red" /><circle cx="931" cy="275" r="2.5" fill="red" /><circle cx="932" cy="275" r="2.5" fill="red" /><circle cx="933" cy="275" r="2.5" fill="red" /><circle cx="934" cy="275" r="2.5" fill="red" /><circle cx="934" cy="275" r="2.5" fill="red" /><circle cx="934" cy="275" r="2.5" fill="red" /><circle cx="935" cy="275" r="2.5" fill="red" /><circle cx="939" cy="275" r="2.5" fill="red" /><circle cx="939" cy="275" r="2.5" fill="red" /><circle cx="949" cy="249" r="2.5" fill="red" /><circle cx="949" cy="275" r="2.5" fill="red" /><circle cx="950" cy="275" r="2.5" fill="red" /><circle cx="950" cy="275" r="2.5" fill="red" /><circle cx="951" cy="275" r="2.5" fill="red" /><circle cx="952" cy="275" r="2.5" fill="red" /><circle cx="952" cy="249" r="2.5" fill="red" /><circle cx="952" cy="275" r="2.5" fill="red" /><circle cx="952" cy="275" r="2.5" fill="red" /><circle cx="952" cy="249" r="2.5" fill="red" /><circle cx="952" cy="249" r="2.5" fill="red" /><circle cx="952" cy="275" r="2.5" fill="red" /><circle cx="952" cy="275" r="2.5" fill="red" /><circle cx="952" cy="275" r="2.5" fill="red" /><circle cx="953" cy="275" r="2.5" fill="red" /><circle cx="957" cy="275" r="2.5" fill="red" /><circle cx="957" cy="275" r="2.5" fill="red" /><circle cx="960" cy="275" r="2.5" fill="red" /><circle cx="961" cy="275" r="2.5" fill="red" /><circle cx="961" cy="275" r="2.5" fill="red" /><circle cx="961" cy="275" r="2.5" fill="red" /><circle cx="964" cy="275" r="2.5" fill="red" /><circle cx="967" cy="275" r="2.5" fill="red" /><circle cx="974" cy="275" r="2.5" fill="red" /><circle cx="974" cy="275" r="2.5" fill="red" /><circle cx="975" cy="275" r="2.5" fill="red" /><circle cx="975" cy="275" r="2.5" fill="red" /><circle cx="979" cy="275" r="2.5" fill="red" /><circle cx="982" cy="275" r="2.5" fill="red" /><circle cx="982" cy="275" r="2.5" fill="red" /><circle cx="985" cy="275" r="2.5" fill="red" /><circle cx="985" cy="275" r="2.5" fill="red" /><circle cx="986" cy="249" r="2.5" fill="red" /><circle cx="986" cy="275" r="2.5" fill="red" /><circle cx="989" cy="275" r="2.5" fill="red" /><circle cx="989" cy="275" r="2.5" fill="red" /><circle cx="989" cy="275" r="2.5" fill="red" /><circle cx="989" cy="275" r="2.5" fill="red" /><circle cx="990" cy="275" r="2.5" fill="red" /><circle cx="990" cy="249" r="2.5" fill="red" /><circle cx="990" cy="275" r="2.5" fill="red" /><circle cx="992" cy="275" r="2.5" fill="red" /><circle cx="1000" cy="275" r="2.5" fill="red" /><circle cx="1003" cy="275" r="2.5" fill="red" /><circle cx="1004" cy="275" r="2.5" fill="red" /><circle cx="1006" cy="249" r="2.5" fill="red" /><circle cx="1007" cy="275" r="2.5" fill="red" /><circle cx="1007" cy="275" r="2.5" fill="red" /><circle cx="1007" cy="275" r="2.5" fill="red" /><circle cx="1007" cy="275" r="2.5" fill="red" /><circle cx="1007" cy="275" r="2.5" fill="red" /><circle cx="1008" cy="224" r="2.5" fill="red" /><circle cx="1008" cy="275" r="2.5" fill="red" /><circle cx="1008" cy="275" r="2.5" fill="red" /><circle cx="1008" cy="249" r="2.5" fill="red" /><circle cx="1008" cy="275" r="2.5" fill="red" /><circle cx="1009" cy="275" r="2.5" fill="red" /><circle cx="1011" cy="275" r="2.5" fill="red" /><circle cx="1015" cy="275" r="2.5" fill="red" /><circle cx="1015" cy="249" r="2.5" fill="red" /><circle cx="1025" cy="249" r="2.5" fill="red" /><circle cx="1025" cy="275" r="2.5" fill="red" /><circle cx="1025" cy="275" r="2.5" fill="red" /><circle cx="1025" cy="249" r="2.5" fill="red" /><circle cx="1025" cy="275" r="2.5" fill="red" /><circle cx="1025" cy="275" r="2.5" fill="red" /><circle cx="1028" cy="275" r="2.5" fill="red" /><circle cx="1029" cy="275" r="2.5" fill="red" /><circle cx="1030" cy="275" r="2.5" fill="red" /><circle cx="1032" cy="275" r="2.5" fill="red" /><circle cx="1033" cy="275" r="2.5" fill="red" /><circle cx="1036" cy="275" r="2.5" fill="red" /><circle cx="1036" cy="275" r="2.5" fill="red" /><circle cx="1036" cy="249" r="2.5" fill="red" /><circle cx="1036" cy="275" r="2.5" fill="red" /><circle cx="1036" cy="275" r="2.5" fill="red" /><circle cx="1038" cy="275" r="2.5" fill="red" /><circle cx="1039" cy="275" r="2.5" fill="red" /><circle cx="1040" cy="275" r="2.5" fill="red" /><circle cx="1040" cy="249" r="2.5" fill="red" /><circle cx="1040" cy="275" r="2.5" fill="red" /><circle cx="1040" cy="249" r="2.5" fill="red" /><circle cx="1050" cy="275" r="2.5" fill="red" /><circle cx="1050" cy="275" r="2.5" fill="red" /><circle cx="1050" cy="224" r="2.5" fill="red" /><circle cx="1051" cy="275" r="2.5" fill="red" /><circle cx="1051" cy="275" r="2.5" fill="red" /><circle cx="1054" cy="275" r="2.5" fill="red" /><circle cx="1054" cy="275" r="2.5" fill="red" /><circle cx="1054" cy="275" r="2.5" fill="red" /><circle cx="1055" cy="275" r="2.5" fill="red" /><circle cx="1055" cy="275" r="2.5" fill="red" /><circle cx="1055" cy="275" r="2.5" fill="red" /><circle cx="1055" cy="275" r="2.5" fill="red" /><circle cx="1055" cy="249" r="2.5" fill="red" /><circle cx="1057" cy="275" r="2.5" fill="red" /><circle cx="1058" cy="275" r="2.5" fill="red" /><circle cx="1059" cy="275" r="2.5" fill="red" /><circle cx="1060" cy="275" r="2.5" fill="red" /><circle cx="1061" cy="275" r="2.5" fill="red" /><circle cx="1061" cy="275" r="2.5" fill="red" /><circle cx="1061" cy="275" r="2.5" fill="red" /><circle cx="1065" cy="275" r="2.5" fill="red" /><circle cx="1065" cy="275" r="2.5" fill="red" /><circle cx="1066" cy="249" r="2.5" fill="red" /><circle cx="1066" cy="275" r="2.5" fill="red" /><circle cx="1066" cy="275" r="2.5" fill="red" /><circle cx="1068" cy="275" r="2.5" fill="red" /><circle cx="1076" cy="275" r="2.5" fill="red" /><circle cx="1076" cy="275" r="2.5" fill="red" /><circle cx="1077" cy="249" r="2.5" fill="red" /><circle cx="1078" cy="275" r="2.5" fill="red" /><circle cx="1078" cy="249" r="2.5" fill="red" /><circle cx="1079" cy="275" r="2.5" fill="red" /><circle cx="1079" cy="275" r="2.5" fill="red" /><circle cx="1079" cy="275" r="2.5" fill="red" /><circle cx="1079" cy="249" r="2.5" fill="red" /><circle cx="1079" cy="275" r="2.5" fill="red" /><circle cx="1079" cy="275" r="2.5" fill="red" /><circle cx="1079" cy="198" r="2.5" fill="red" /><circle cx="1080" cy="275" r="2.5" fill="red" /><circle cx="1080" cy="275" r="2.5" fill="red" /><circle cx="1083" cy="275" r="2.5" fill="red" /><circle cx="1083" cy="275" r="2.5" fill="red" /><circle cx="1084" cy="275" r="2.5" fill="red" /><circle cx="1084" cy="275" r="2.5" fill="red" /><circle cx="1086" cy="275" r="2.5" fill="red" /><circle cx="1087" cy="275" r="2.5" fill="red" /><circle cx="1090" cy="275" r="2.5" fill="red" /><circle cx="1093" cy="275" r="2.5" fill="red" /><circle cx="1101" cy="275" r="2.5" fill="red" /><circle cx="1101" cy="224" r="2.5" fill="red" /><circle cx="1102" cy="275" r="2.5" fill="red" /><circle cx="1102" cy="249" r="2.5" fill="red" /><circle cx="1102" cy="148" r="2.5" fill="red" /><circle cx="1103" cy="275" r="2.5" fill="red" /><circle cx="1104" cy="275" r="2.5" fill="red" /><circle cx="1105" cy="275" r="2.5" fill="red" /><circle cx="1105" cy="275" r="2.5" fill="red" /><circle cx="1105" cy="275" r="2.5" fill="red" /><circle cx="1105" cy="275" r="2.5" fill="red" /><circle cx="1107" cy="275" r="2.5" fill="red" /><circle cx="1108" cy="249" r="2.5" fill="red" /><circle cx="1108" cy="275" r="2.5" fill="red" /><circle cx="1109" cy="275" r="2.5" fill="red" /><circle cx="1109" cy="275" r="2.5" fill="red" /><circle cx="1109" cy="275" r="2.5" fill="red" /><circle cx="1112" cy="275" r="2.5" fill="red" /><circle cx="1113" cy="275" r="2.5" fill="red" /><circle cx="1113" cy="275" r="2.5" fill="red" /><circle cx="1113" cy="275" r="2.5" fill="red" /><circle cx="1115" cy="275" r="2.5" fill="red" /><circle cx="1115" cy="275" r="2.5" fill="red" /><circle cx="1115" cy="275" r="2.5" fill="red" /><circle cx="1116" cy="275" r="2.5" fill="red" /><circle cx="1116" cy="275" r="2.5" fill="red" /><circle cx="1116" cy="275" r="2.5" fill="red" /><circle cx="1126" cy="275" r="2.5" fill="red" /><circle cx="1126" cy="275" r="2.5" fill="red" /><circle cx="1126" cy="275" r="2.5" fill="red" /><circle cx="1127" cy="275" r="2.5" fill="red" /><circle cx="1127" cy="275" r="2.5" fill="red" /><circle cx="1127" cy="275" r="2.5" fill="red" /><circle cx="1130" cy="275" r="2.5" fill="red" /><circle cx="1130" cy="275" r="2.5" fill="red" /><circle cx="1131" cy="275" r="2.5" fill="red" /><circle cx="1131" cy="275" r="2.5" fill="red" /><circle cx="1131" cy="224" r="2.5" fill="red" /><circle cx="1133" cy="275" r="2.5" fill="red" /><circle cx="1133" cy="275" r="2.5" fill="red" /><circle cx="1133" cy="275" r="2.5" fill="red" /><circle cx="1134" cy="275" r="2.5" fill="red" /><circle cx="1134" cy="249" r="2.5" fill="red" /><circle cx="1135" cy="275" r="2.5" fill="red" /><circle cx="1135" cy="275" r="2.5" fill="red" /><circle cx="1136" cy="275" r="2.5" fill="red" /><circle cx="1137" cy="275" r="2.5" fill="red" /><circle cx="1137" cy="275" r="2.5" fill="red" /><circle cx="1137" cy="275" r="2.5" fill="red" /><circle cx="1138" cy="275" r="2.5" fill="red" /><circle cx="1140" cy="275" r="2.5" fill="red" /><circle cx="1141" cy="249" r="2.5" fill="red" /><circle cx="1141" cy="275" r="2.5" fill="red" /><circle cx="1142" cy="275" r="2.5" fill="red" /><circle cx="1151" cy="275" r="2.5" fill="red" /><circle cx="1152" cy="275" r="2.5" fill="red" /><circle cx="1152" cy="275" r="2.5" fill="red" /><circle cx="1152" cy="275" r="2.5" fill="red" /><circle cx="1153" cy="275" r="2.5" fill="red" /><circle cx="1155" cy="275" r="2.5" fill="red" /><circle cx="1156" cy="275" r="2.5" fill="red" /><circle cx="1156" cy="275" r="2.5" fill="red" /><circle cx="1156" cy="275" r="2.5" fill="red" /><circle cx="1156" cy="275" r="2.5" fill="red" /><circle cx="1156" cy="275" r="2.5" fill="red" /><circle cx="1156" cy="275" r="2.5" fill="red" /><circle cx="1159" cy="275" r="2.5" fill="red" /><circle cx="1159" cy="275" r="2.5" fill="red" /><circle cx="1159" cy="224" r="2.5" fill="red" /><circle cx="1160" cy="275" r="2.5" fill="red" /><circle cx="1163" cy="275" r="2.5" fill="red" /><circle cx="1163" cy="275" r="2.5" fill="red" /><circle cx="1166" cy="275" r="2.5" fill="red" /><circle cx="1166" cy="275" r="2.5" fill="red" /><circle cx="1166" cy="249" r="2.5" fill="red" /><circle cx="1166" cy="275" r="2.5" fill="red" /><circle cx="1166" cy="275" r="2.5" fill="red" /><circle cx="1166" cy="275" r="2.5" fill="red" /><circle cx="1166" cy="275" r="2.5" fill="red" /><circle cx="1166" cy="224" r="2.5" fill="red" /><circle cx="1166" cy="275" r="2.5" fill="red" /><circle cx="1167" cy="275" r="2.5" fill="red" /><circle cx="1167" cy="275" r="2.5" fill="red" /><circle cx="1167" cy="275" r="2.5" fill="red" /><circle cx="1167" cy="275" r="2.5" fill="red" /><circle cx="1167" cy="275" r="2.5" fill="red" /><circle cx="1167" cy="249" r="2.5" fill="red" /><circle cx="1167" cy="275" r="2.5" fill="red" /><circle cx="1167" cy="275" r="2.5" fill="red" /><circle cx="1169" cy="275" r="2.5" fill="red" /><circle cx="1177" cy="275" r="2.5" fill="red" /><circle cx="1177" cy="275" r="2.5" fill="red" /><circle cx="1178" cy="249" r="2.5" fill="red" /><circle cx="1178" cy="275" r="2.5" fill="red" /><circle cx="1178" cy="249" r="2.5" fill="red" /><circle cx="1179" cy="275" r="2.5" fill="red" /><circle cx="1181" cy="249" r="2.5" fill="red" /><circle cx="1182" cy="275" r="2.5" fill="red" /><circle cx="1185" cy="275" r="2.5" fill="red" /><circle cx="1185" cy="275" r="2.5" fill="red" /><circle cx="1185" cy="275" r="2.5" fill="red" /><circle cx="1185" cy="249" r="2.5" fill="red" /><circle cx="1185" cy="275" r="2.5" fill="red" /><circle cx="1185" cy="275" r="2.5" fill="red" /><circle cx="1187" cy="275" r="2.5" fill="red" /><circle cx="1188" cy="249" r="2.5" fill="red" /><circle cx="1189" cy="275" r="2.5" fill="red" /><circle cx="1191" cy="275" r="2.5" fill="red" /><circle cx="1203" cy="275" r="2.5" fill="red" /><circle cx="1205" cy="275" r="2.5" fill="red" /><circle cx="1209" cy="275" r="2.5" fill="red" /><circle cx="1210" cy="275" r="2.5" fill="red" /><circle cx="1210" cy="275" r="2.5" fill="red" /><circle cx="1212" cy="275" r="2.5" fill="red" /><circle cx="1213" cy="275" r="2.5" fill="red" /><circle cx="1214" cy="275" r="2.5" fill="red" /><circle cx="1214" cy="275" r="2.5" fill="red" /><circle cx="1214" cy="275" r="2.5" fill="red" /><circle cx="1216" cy="275" r="2.5" fill="red" /><circle cx="1216" cy="275" r="2.5" fill="red" /><circle cx="1217" cy="275" r="2.5" fill="red" /><circle cx="1227" cy="275" r="2.5" fill="red" /><circle cx="1228" cy="275" r="2.5" fill="red" /><circle cx="1228" cy="275" r="2.5" fill="red" /><circle cx="1228" cy="275" r="2.5" fill="red" /><circle cx="1229" cy="275" r="2.5" fill="red" /><circle cx="1229" cy="275" r="2.5" fill="red" /><circle cx="1231" cy="275" r="2.5" fill="red" /><circle cx="1231" cy="275" r="2.5" fill="red" /><circle cx="1231" cy="275" r="2.5" fill="red" /><circle cx="1231" cy="249" r="2.5" fill="red" /><circle cx="1231" cy="275" r="2.5" fill="red" /><circle cx="1232" cy="275" r="2.5" fill="red" /><circle cx="1232" cy="275" r="2.5" fill="red" /><circle cx="1232" cy="275" r="2.5" fill="red" /><circle cx="1235" cy="275" r="2.5" fill="red" /><circle cx="1238" cy="275" r="2.5" fill="red" /><circle cx="1238" cy="275" r="2.5" fill="red" /><circle cx="1239" cy="275" r="2.5" fill="red" /><circle cx="1239" cy="275" r="2.5" fill="red" /><circle cx="1239" cy="275" r="2.5" fill="red" /><circle cx="1241" cy="275" r="2.5" fill="red" /><circle cx="1241" cy="275" r="2.5" fill="red" /><circle cx="1241" cy="275" r="2.5" fill="red" /><circle cx="1241" cy="275" r="2.5" fill="red" /><circle cx="1241" cy="275" r="2.5" fill="red" /><circle cx="1242" cy="275" r="2.5" fill="red" /><circle cx="1242" cy="249" r="2.5" fill="red" /><circle cx="1242" cy="275" r="2.5" fill="red" /><circle cx="1243" cy="275" r="2.5" fill="red" /><circle cx="1245" cy="275" r="2.5" fill="red" /><circle cx="1257" cy="275" r="2.5" fill="red" /><circle cx="1257" cy="275" r="2.5" fill="red" /><circle cx="1257" cy="275" r="2.5" fill="red" /><circle cx="1257" cy="275" r="2.5" fill="red" /><circle cx="1257" cy="275" r="2.5" fill="red" /><circle cx="1264" cy="275" r="2.5" fill="red" /><circle cx="1264" cy="275" r="2.5" fill="red" /><circle cx="1268" cy="275" r="2.5" fill="red" /><circle cx="1281" cy="249" r="2.5" fill="red" /><circle cx="1281" cy="275" r="2.5" fill="red" /><circle cx="1283" cy="275" r="2.5" fill="red" /><circle cx="1286" cy="275" r="2.5" fill="red" /><circle cx="1286" cy="275" r="2.5" fill="red" /><circle cx="1293" cy="249" r="2.5" fill="red" /><circle cx="1294" cy="275" r="2.5" fill="red" /><circle cx="1303" cy="275" r="2.5" fill="red" /><circle cx="1307" cy="275" r="2.5" fill="red" /><circle cx="1315" cy="275" r="2.5" fill="red" /><circle cx="1315" cy="275" r="2.5" fill="red" /><circle cx="1315" cy="275" r="2.5" fill="red" /><circle cx="1315" cy="275" r="2.5" fill="red" /><circle cx="1329" cy="275" r="2.5" fill="red" /><circle cx="1329" cy="275" r="2.5" fill="red" /><circle cx="1329" cy="275" r="2.5" fill="red" /><circle cx="1332" cy="275" r="2.5" fill="red" /><circle cx="1332" cy="275" r="2.5" fill="red" /><circle cx="1333" cy="275" r="2.5" fill="red" /><circle cx="1333" cy="275" r="2.5" fill="red" /><circle cx="1333" cy="275" r="2.5" fill="red" /><circle cx="1336" cy="275" r="2.5" fill="red" /><circle cx="1336" cy="275" r="2.5" fill="red" /><circle cx="1337" cy="275" r="2.5" fill="red" /><circle cx="1340" cy="275" r="2.5" fill="red" /><circle cx="1340" cy="275" r="2.5" fill="red" /><circle cx="1340" cy="275" r="2.5" fill="red" /><circle cx="1340" cy="275" r="2.5" fill="red" /><circle cx="1341" cy="249" r="2.5" fill="red" /><circle cx="1341" cy="275" r="2.5" fill="red" /><circle cx="1343" cy="275" r="2.5" fill="red" /><circle cx="1344" cy="275" r="2.5" fill="red" /><circle cx="1358" cy="275" r="2.5" fill="red" /><circle cx="1358" cy="275" r="2.5" fill="red" /><circle cx="1358" cy="275" r="2.5" fill="red" /><circle cx="1359" cy="275" r="2.5" fill="red" /><circle cx="1359" cy="224" r="2.5" fill="red" /><circle cx="1360" cy="275" r="2.5" fill="red" /><circle cx="1360" cy="275" r="2.5" fill="red" /><circle cx="1360" cy="275" r="2.5" fill="red" /><circle cx="1361" cy="275" r="2.5" fill="red" /><circle cx="1362" cy="275" r="2.5" fill="red" /><circle cx="1362" cy="275" r="2.5" fill="red" /><circle cx="1365" cy="275" r="2.5" fill="red" /><circle cx="1366" cy="249" r="2.5" fill="red" /><circle cx="1366" cy="275" r="2.5" fill="red" /><circle cx="1368" cy="275" r="2.5" fill="red" /><circle cx="1368" cy="275" r="2.5" fill="red" /><circle cx="1369" cy="275" r="2.5" fill="red" /></svg>