<svg xmlns="http://www.w3.org/2000/svg" width="1400" height="380"><line x1="60" y1="20" x2="60" y2="325" stroke="#e5e7eb" stroke-width="1" /><line x1="171" y1="20" x2="171" y2="325" stroke="#e5e7eb" stroke-width="1" /><line x1="276" y1="20" x2="276" y2="325" stroke="#e5e7eb" stroke-width="1" /><line x1="388" y1="20" x2="388" y2="325" stroke="#e5e7eb" stroke-width="1" /><line x1="496" y1="20" x2="496" y2="325" stroke="#e5e7eb" stroke-width="1" /><line x1="608" y1="20" x2="608" y2="325" stroke="#e5e7eb" stroke-width="1" /><line x1="716" y1="20" x2="716" y2="325" stroke="#e5e7eb" stroke-width="1" /><line x1="828" y1="20" x2="828" y2="325" stroke="#e5e7eb" stroke-width="1" /><line x1="940" y1="20" x2="940" y2="325" stroke="#e5e7eb" stroke-width="1" /><line x1="1048" y1="20" x2="1048" y2="325" stroke="#e5e7eb" stroke-width="1" /><line x1="1160" y1="20" x2="1160" y2="325" stroke="#e5e7eb" stroke-width="1" /><line x1="1268" y1="20" x2="1268" y2="325" stroke="#e5e7eb" stroke-width="1" /><line x1="60" y1="20" x2="1380" y2="20" stroke="#e5e7eb" stroke-width="1" /><line x1="60" y1="325" x2="1380" y2="325" stroke="black" stroke-width="1"/><line x1="60" y1="20" x2="60" y2="325" stroke="black" stroke-width="1"/><text x="720.0" y="362" font-size="12" text-anchor="middle">Time (UTC, 2012)</text><text x="18" y="172.5" font-size="12" transform="rotate(-90, 18, 172.5)" text-anchor="middle">Gap duration (minutes)</text><line x1="60" y1="325" x2="60" y2="330" stroke="black" stroke-width="1"/><text x="60" y="343" font-size="10" text-anchor="middle">Jan</text><line x1="171" y1="325" x2="171" y2="330" stroke="black" stroke-width="1"/><text x="171" y="343" font-size="10" text-anchor="middle">Feb</text><line x1="276" y1="325" x2="276" y2="330" stroke="black" stroke-width="1"/><text x="276" y="343" font-size="10" text-anchor="middle">Mar</text><line x1="388" y1="325" x2="388" y2="330" stroke="black" stroke-width="1"/><text x="388" y="343" font-size="10" text-anchor="middle">Apr</text><line x1="496" y1="325" x2="496" y2="330" stroke="black" stroke-width="1"/><text x="496" y="343" font-size="10" text-anchor="middle">May</text><line x1="608" y1="325" x2="608" y2="330" stroke="black" stroke-width="1"/><text x="608" y="343" font-size="10" text-anchor="middle">Jun</text><line x1="716" y1="325" x2="716" y2="330" stroke="black" stroke-width="1"/><text x="716" y="343" font-size="10" text-anchor="middle">Jul</text><line x1="828" y1="325" x2="828" y2="330" stroke="black" stroke-width="1"/><text x="828" y="343" font-size="10" text-anchor="middle">Aug</text><line x1="940" y1="325" x2="940" y2="330" stroke="black" stroke-width="1"/><text x="940" y="343" font-size="10" text-anchor="middle">Sep</text><line x1="1048" y1="325" x2="1048" y2="330" stroke="black" stroke-width="1"/><text x="1048" y="343" font-size="10" text-anchor="middle">Oct</text><line x1="1160" y1="325" x2="1160" y2="330" stroke="black" stroke-width="1"/><text x="1160" y="343" font-size="10" text-anchor="middle">Nov</text><line x1="1268" y1="325" x2="1268" y2="330" stroke="black" stroke-width="1"/><text x="1268" y="343" font-size="10" text-anchor="middle">Dec</text><line x1="55" y1="20" x2="60" y2="20" stroke="black" stroke-width="1"/><text x="52" y="23" font-size="10" text-anchor="end">10</text><circle cx="975" cy="20" r="2.5" fill="red" /></svg>