<svg xmlns="http://www.w3.org/2000/svg" width="1400" height="380"><line x1="60" y1="20" x2="60" y2="325" stroke="#e5e7eb" stroke-width="1" /><line x1="253" y1="20" x2="253" y2="325" stroke="#e5e7eb" stroke-width="1" /><line x1="427" y1="20" x2="427" y2="325" stroke="#e5e7eb" stroke-width="1" /><line x1="620" y1="20" x2="620" y2="325" stroke="#e5e7eb" stroke-width="1" /><line x1="807" y1="20" x2="807" y2="325" stroke="#e5e7eb" stroke-width="1" /><line x1="1000" y1="20" x2="1000" y2="325" stroke="#e5e7eb" stroke-width="1" /><line x1="1186" y1="20" x2="1186" y2="325" stroke="#e5e7eb" stroke-width="1" /><line x1="60" y1="323" x2="1380" y2="323" stroke="#e5e7eb" stroke-width="1" /><line x1="60" y1="319" x2="1380" y2="319" stroke="#e5e7eb" stroke-width="1" /><line x1="60" y1="313" x2="1380" y2="313" stroke="#e5e7eb" stroke-width="1" /><line x1="60" y1="300" x2="1380" y2="300" stroke="#e5e7eb" stroke-width="1" /><line x1="60" y1="287" x2="1380" y2="287" stroke="#e5e7eb" stroke-width="1" /><line x1="60" y1="249" x2="1380" y2="249" stroke="#e5e7eb" stroke-width="1" /><line x1="60" y1="173" x2="1380" y2="173" stroke="#e5e7eb" stroke-width="1" /><line x1="60" y1="20" x2="1380" y2="20" stroke="#e5e7eb" stroke-width="1" /><line x1="60" y1="325" x2="1380" y2="325" stroke="black" stroke-width="1"/><line x1="60" y1="20" x2="60" y2="325" stroke="black" stroke-width="1"/><text x="720.0" y="362" font-size="12" text-anchor="middle">Time (UTC, Jan–Jul 2025)</text><text x="18" y="172.5" font-size="12" transform="rotate(-90, 18, 172.5)" text-anchor="middle">Gap duration (minutes)</text><line x1="60" y1="325" x2="60" y2="330" stroke="black" stroke-width="1"/><text x="60" y="343" font-size="10" text-anchor="middle">Jan</text><line x1="253" y1="325" x2="253" y2="330" stroke="black" stroke-width="1"/><text x="253" y="343" font-size="10" text-anchor="middle">Feb</text><line x1="427" y1="325" x2="427" y2="330" stroke="black" stroke-width="1"/><text x="427" y="343" font-size="10" text-anchor="middle">Mar</text><line x1="620" y1="325" x2="620" y2="330" stroke="black" stroke-width="1"/><text x="620" y="343" font-size="10" text-anchor="middle">Apr</text><line x1="807" y1="325" x2="807" y2="330" stroke="black" stroke-width="1"/><text x="807" y="343" font-size="10" text-anchor="middle">May</text><line x1="1000" y1="325" x2="1000" y2="330" stroke="black" stroke-width="1"/><text x="1000" y="343" font-size="10" text-anchor="middle">Jun</text><line x1="1186" y1="325" x2="1186" y2="330" stroke="black" stroke-width="1"/><text x="1186" y="343" font-size="10" text-anchor="middle">Jul</text><line x1="55" y1="323" x2="60" y2="323" stroke="black" stroke-width="1"/><text x="52" y="326" font-size="10" text-anchor="end">10</text><line x1="55" y1="319" x2="60" y2="319" stroke="black" stroke-width="1"/><text x="52" y="322" font-size="10" text-anchor="end">30</text><line x1="55" y1="313" x2="60" y2="313" stroke="black" stroke-width="1"/><text x="52" y="316" font-size="10" text-anchor="end">60</text><line x1="55" y1="300" x2="60" y2="300" stroke="black" stroke-width="1"/><text x="52" y="303" font-size="10" text-anchor="end">120</text><line x1="55" y1="287" x2="60" y2="287" stroke="black" stroke-width="1"/><text x="52" y="290" font-size="10" text-anchor="end">180</text><line x1="55" y1="249" x2="60" y2="249" stroke="black" stroke-width="1"/><text x="52" y="252" font-size="10" text-anchor="end">360</text><line x1="55" y1="173" x2="60" y2="173" stroke="black" stroke-width="1"/><text x="52" y="176" font-size="10" text-anchor="end">720</text><line x1="55" y1="20" x2="60" y2="20" stroke="black" stroke-width="1"/><text x="52" y="23" font-size="10" text-anchor="end">1440</text><circle cx="465" cy="323" r="2.5" fill="red" /><circle cx="614" cy="313" r="2.5" fill="red" /><circle cx="627" cy="20" r="2.5" fill="red" /><circle cx="659" cy="20" r="2.5" fill="red" /><circle cx="665" cy="20" r="2.5" fill="red" /><circle cx="671" cy="20" r="2.5" fill="red" /><circle cx="702" cy="20" r="2.5" fill="red" /><circle cx="708" cy="20" r="2.5" fill="red" /><circle cx="746" cy="20" r="2.5" fill="red" /><circle cx="752" cy="20" r="2.5" fill="red" /><circle cx="758" cy="20" r="2.5" fill="red" /><circle cx="764" cy="20" r="2.5" fill="red" /><circle cx="789" cy="20" r="2.5" fill="red" /><circle cx="796" cy="20" r="2.5" fill="red" /><circle cx="839" cy="20" r="2.5" fill="red" /><circle cx="852" cy="20" r="2.5" fill="red" /><circle cx="876" cy="20" r="2.5" fill="red" /><circle cx="889" cy="20" r="2.5" fill="red" /><circle cx="926" cy="20" r="2.5" fill="red" /><circle cx="932" cy="20" r="2.5" fill="red" /><circle cx="939" cy="20" r="2.5" fill="red" /><circle cx="964" cy="20" r="2.5" fill="red" /><circle cx="970" cy="20" r="2.5" fill="red" /><circle cx="976" cy="20" r="2.5" fill="red" /><circle cx="1186" cy="262" r="2.5" fill="red" /><circle cx="1225" cy="20" r="2.5" fill="red" /><circle cx="1231" cy="20" r="2.5" fill="red" /><circle cx="1238" cy="20" r="2.5" fill="red" /><circle cx="1244" cy="20" r="2.5" fill="red" /><circle cx="1269" cy="20" r="2.5" fill="red" /><circle cx="1319" cy="20" r="2.5" fill="red" /><circle cx="1325" cy="20" r="2.5" fill="red" /></svg>